<svg width="164" height="40" viewBox="0 0 164 40" fill="none" xmlns="http://www.w3.org/2000/svg">
<path fill-rule="evenodd" clip-rule="evenodd" d="M22.0102 30.668C23.7392 30.2523 26.6883 29.5435 27.1377 29.2558L27.2697 29.2017L27.3746 29.1793C26.3669 28.0224 23.2238 24.9255 21.0263 22.759C20.0087 21.7573 19.1911 20.9509 18.8684 20.6157L18.7067 20.4401C18.4804 20.1933 18.3781 20.0818 17.8653 20.188L5.94084 23.4572L6.29719 23.8255L6.32952 23.8631C6.77826 24.4557 8.81407 26.5238 10.9924 28.6757C13.1364 30.7947 15.394 32.9817 16.3858 33.9009C16.4215 33.0351 16.4855 32.5692 16.9969 32.1667C17.476 31.7892 18.3055 31.5833 19.9513 31.1748L21.0039 30.9115C21.1358 30.8785 21.5344 30.7829 22.0102 30.668ZM29.9832 26.5581C30.0479 26.3542 30.0822 26.116 30.1086 25.8553L30.1211 25.7913L33.8067 12.2672C33.5097 12.3642 33.2966 12.4672 33.125 12.5497C32.6994 12.7542 32.4532 12.8723 32.0084 12.6796V12.6783C31.5544 12.4823 30.981 11.9095 29.6242 10.5534L28.7538 9.685C28.3578 9.29038 27.9177 8.87134 27.4683 8.4424C26.4342 7.45518 25.348 6.41911 24.4624 5.37052L24.2216 5.14879C23.885 6.18484 23.1439 8.78881 22.4352 11.3928C21.6862 14.1433 20.9827 16.87 20.8316 17.7418L29.9297 26.6987C29.9495 26.6525 29.9667 26.6063 29.9819 26.5581H29.9832ZM6.11967 15.2942C5.72043 16.7018 5.31063 18.1463 5.11793 19.3427L5.1054 19.3975L4.93976 19.938C6.1982 19.6654 8.96585 18.9507 11.5844 18.2367C14.3705 17.4778 16.9599 16.7341 17.3077 16.5546C17.4753 16.1936 18.3306 13.1878 19.1581 10.1463C19.8154 7.72638 20.4429 5.30586 20.6831 4.18072L20.0661 4.30941L6.27871 8.03983L6.28597 8.04579C7.83477 9.18545 7.78396 9.36033 7.1775 11.4463C7.0475 11.893 6.88714 12.4454 6.69445 13.2016C6.53079 13.8457 6.32622 14.5657 6.11967 15.2942ZM2.9673 13.7216C3.32827 12.2923 3.60411 11.0899 3.65361 10.5851C3.27416 10.3581 2.88482 10.1469 2.51725 9.94761C1.02586 9.13856 -0.159332 8.49582 0.0175232 7.16677C0.171281 6.01655 1.14464 5.77704 2.08171 5.54673C2.22161 5.51242 2.35953 5.47808 2.45192 5.453L2.45324 5.45103L15.9615 1.83274C17.7776 1.37873 19.1046 0.970261 20.1255 0.656803C21.7099 0.169792 22.5889 -0.100105 23.3986 0.0345154C24.4248 0.204773 25.1474 0.970284 26.7675 2.68538C27.1027 3.03975 27.4769 3.43632 27.888 3.86394C28.2866 4.27836 28.9531 4.93103 29.6711 5.63449C30.8543 6.79329 32.1787 8.09065 32.7271 8.73868C33.129 8.60472 33.614 8.30776 34.1135 8.00156C35.2902 7.28226 36.54 6.51679 37.619 7.22751C38.8266 8.02336 38.0466 10.4353 37.5609 11.9359C37.4841 12.1664 37.4117 12.3983 37.3438 12.6315C36.9306 14.146 36.5269 15.6632 36.1329 17.1829C35.6076 19.1896 35.0843 21.1891 34.5458 23.0771C34.1734 24.4016 33.8164 25.7303 33.4748 27.063L33.1356 28.363C33.0353 28.7474 32.9416 29.1335 32.8544 29.5211C32.4169 31.4302 32.4024 31.4929 29.8393 32.1871V32.1858L19.9031 34.9211C19.9011 35.1409 19.9071 35.3975 19.9143 35.6754C19.9407 36.7708 19.9737 38.1665 19.5752 39.0508C19.195 39.8942 18.5081 40.3013 17.2747 39.7437C16.8167 39.5378 9.28788 31.9126 5.37002 27.9446C4.66916 27.2335 3.96702 26.5237 3.2636 25.8151C2.79507 25.3452 2.39252 24.9704 2.06059 24.6609C0.60352 23.3041 0.348137 23.0659 0.896518 21.2406C1.21789 20.1696 2.25658 16.5355 2.9673 13.7216Z" fill="#1C70EB"/>
<path d="M49.3385 23.5108H58.6181V26.7707H46.6738V7.62024H50.3759V22.3394L49.3385 23.5108ZM64.2517 20.0212C64.2517 21.7917 64.4675 22.9551 64.8958 23.5147C65.3247 24.0743 66.1655 24.3561 67.4153 24.3561C68.7404 24.3561 69.7461 24.0136 70.4423 23.3293C71.0164 22.7585 71.3497 21.9369 71.4441 20.8744V12.4989H75.1237V26.7707H71.6097C71.8006 25.8431 72.0327 24.9245 72.3052 24.0176C72.0796 24.3485 71.8314 24.6634 71.5622 24.9599C70.4186 26.2639 68.6144 26.9159 66.1496 26.9159C64.0076 26.9159 62.5459 26.3405 61.7679 25.1889C60.9852 24.0341 60.5959 22.3876 60.5959 20.2462V12.4989H64.2517V20.0212ZM89.5413 7.62024H93.2203V26.7707H89.5413L90.2956 24.4043C89.9973 24.7989 89.5803 25.1975 89.0457 25.5994C87.8909 26.4447 86.3104 26.8677 84.3056 26.8677H84.0813C81.9273 26.8347 80.3594 26.2355 79.3728 25.0728C78.3863 23.9093 77.8907 22.086 77.8907 19.6021C77.8907 17.1315 78.3863 15.32 79.3728 14.1645C80.3594 13.0137 81.9273 12.4184 84.0819 12.3781H84.3525C86.3414 12.3781 87.9061 12.8005 89.0457 13.6452C89.5803 14.0477 89.9973 14.4469 90.2956 14.8409L89.5413 7.62024ZM85.4222 24.3317C86.7545 24.3317 87.7761 24.0545 88.4802 23.4982C89.1322 22.9835 89.4859 22.2345 89.5413 21.2526V18.0045C89.4859 17.0061 89.1322 16.2492 88.4802 15.7344C87.7761 15.1867 86.7545 14.9135 85.4222 14.9135C84.0232 14.9135 83.0399 15.1907 82.4698 15.7509C81.9003 16.3105 81.6172 17.5987 81.6172 19.6107C81.6172 21.6551 81.9003 22.9512 82.4698 23.5029C83.0399 24.0539 84.0225 24.3317 85.4222 24.3317ZM103.275 26.8921C100.744 26.8921 98.786 26.3319 97.4028 25.2133C96.0196 24.0941 95.3274 22.2147 95.3274 19.5744C95.3274 16.9342 96.019 15.0706 97.4028 13.9837C98.786 12.8969 100.744 12.3537 103.275 12.3537C105.798 12.3537 107.752 12.8969 109.132 13.9837C110.511 15.0706 111.199 16.9335 111.199 19.5744C111.199 22.2147 110.511 24.0948 109.132 25.2133C107.752 26.3319 105.798 26.8921 103.275 26.8921ZM103.283 24.3799C104.718 24.3799 105.787 24.0981 106.49 23.5306C107.194 22.9631 107.544 21.6511 107.544 19.5909C107.544 17.5419 107.194 16.2379 106.49 15.6777C105.787 15.1187 104.718 14.8409 103.283 14.8409C101.845 14.8409 100.771 15.1188 100.067 15.6784C99.3601 16.238 99.0064 17.5419 99.0064 19.5903C99.0064 21.6512 99.3601 22.9631 100.067 23.5306C100.771 24.0981 101.845 24.3799 103.283 24.3799ZM117.492 31.1175H113.813V12.4019H117.492L116.737 14.7564C117.028 14.3618 117.445 13.9712 117.987 13.5772C119.143 12.7279 120.743 12.3056 122.787 12.3056H122.952C125.106 12.3452 126.678 12.9774 127.665 14.2055C128.651 15.4329 129.143 17.2239 129.143 19.5744C129.143 21.925 128.647 23.7041 127.661 24.9111C126.674 26.1187 125.106 26.747 122.952 26.7951H122.727C120.723 26.7951 119.139 26.3642 117.984 25.507C117.441 25.1124 117.024 24.7184 116.733 24.3192L117.492 31.1175ZM118.553 23.4144C119.257 23.9615 120.279 24.2353 121.611 24.2353C123.003 24.2353 123.986 23.9292 124.555 23.3135C125.129 22.6978 125.416 21.442 125.416 19.5421C125.416 17.6383 125.129 16.3785 124.555 15.7628C123.986 15.1471 123.003 14.8409 121.612 14.8409C120.279 14.8409 119.257 15.1187 118.553 15.6744C117.894 16.1891 117.539 16.9421 117.492 17.9405V21.1364C117.539 22.1421 117.893 22.8984 118.553 23.4144ZM143.702 24.1865C143.285 24.8068 142.92 25.2655 142.609 25.5631C142.299 25.8614 141.909 26.1148 141.446 26.3286C140.982 26.5417 140.436 26.6981 139.802 26.7951C139.106 26.8966 138.403 26.9451 137.7 26.9403C137.142 26.9403 136.568 26.8994 135.974 26.8229C135.385 26.747 134.826 26.6183 134.296 26.4368C133.788 26.266 133.311 26.0133 132.885 25.6885C132.467 25.3655 132.133 24.9473 131.91 24.469C131.674 23.974 131.556 23.3253 131.556 22.5209C131.556 21.8042 131.675 21.2123 131.91 20.7457C132.146 20.2785 132.464 19.876 132.865 19.5421C133.266 19.2082 133.75 18.9462 134.311 18.7568C134.892 18.5639 135.49 18.4267 136.096 18.347C136.721 18.2626 137.334 18.2216 137.932 18.2216H143.089V17.4733C143.089 16.6524 142.935 16.0446 142.629 15.65C142.323 15.256 141.906 15.0059 141.383 14.9016C140.86 14.7961 140.082 14.7446 139.052 14.7446C138.14 14.7446 137.405 14.8007 136.851 14.9135C136.296 15.0257 135.856 15.2593 135.53 15.6137C135.2 15.968 135.035 16.5237 135.027 17.28H131.627C131.666 16.0723 131.942 15.1471 132.448 14.5031C132.956 13.859 133.557 13.4004 134.253 13.1265C134.948 12.8526 135.66 12.6593 136.387 12.5471C137.118 12.4349 138.054 12.3781 139.205 12.3781C141.249 12.3781 142.715 12.5352 143.6 12.8487C144.484 13.1628 145.235 13.698 145.848 14.4549C146.462 15.2111 146.768 16.3105 146.768 17.7511V26.7707H143.206L143.702 24.1865ZM138.451 24.622C139.005 24.622 139.54 24.5851 140.054 24.5132C140.573 24.4406 141.044 24.3119 141.481 24.1265C141.913 23.9417 142.279 23.7081 142.573 23.4223C142.868 23.1406 143.042 22.835 143.088 22.5123L143.195 20.299H138.309C137.9 20.299 137.511 20.3267 137.146 20.3874C136.806 20.4392 136.477 20.5453 136.171 20.7016C135.888 20.8474 135.656 21.0745 135.503 21.3535C135.341 21.6393 135.259 22.0055 135.259 22.4523C135.259 22.967 135.349 23.3695 135.53 23.6599C135.702 23.9394 135.956 24.1596 136.257 24.2915C136.586 24.4302 136.932 24.5198 137.287 24.5574C137.673 24.601 138.062 24.6231 138.451 24.622ZM155.596 24.1628L159.204 12.4989H163.048L158.202 26.7707C157.219 29.3786 156.288 30.808 155.407 31.0575C154.527 31.3069 152.436 31.4316 149.134 31.4316V28.437C151.854 28.437 153.367 28.3769 153.674 28.2562C153.98 28.1308 154.35 27.6319 154.783 26.7714H153.438L148.533 12.4989H152.365L155.596 24.1628Z" fill="white"/>
</svg>
