<svg width="526" height="712" viewBox="0 0 526 712" fill="none" xmlns="http://www.w3.org/2000/svg">
<path d="M225.465 519.408C225.309 519.126 225.21 518.815 225.175 518.494C225.14 518.174 225.169 517.849 225.261 517.54C225.353 517.231 225.506 516.943 225.71 516.694C225.915 516.444 226.167 516.238 226.452 516.088C227.621 515.425 229.106 515.852 229.768 517.049C230.43 518.246 229.977 519.733 228.808 520.369C228.237 520.676 227.568 520.744 226.946 520.559C226.325 520.374 225.802 519.951 225.492 519.381L225.465 519.408ZM202.064 476.434C201.908 476.152 201.809 475.842 201.774 475.521C201.739 475.2 201.768 474.876 201.86 474.566C201.952 474.257 202.105 473.97 202.309 473.72C202.514 473.471 202.766 473.265 203.051 473.114C203.333 472.96 203.643 472.864 203.963 472.83C204.283 472.797 204.606 472.827 204.914 472.919C205.222 473.01 205.509 473.162 205.759 473.365C206.008 473.568 206.215 473.819 206.367 474.102C206.578 474.472 206.687 474.891 206.683 475.316C206.68 475.742 206.565 476.159 206.349 476.525C206.133 476.892 205.824 477.195 205.453 477.403C205.083 477.612 204.664 477.719 204.239 477.713C203.363 477.712 202.541 477.259 202.091 476.434L202.064 476.434ZM178.663 433.461C178.506 433.181 178.405 432.871 178.368 432.552C178.331 432.232 178.358 431.908 178.447 431.599C178.537 431.29 178.687 431.002 178.889 430.751C179.091 430.501 179.341 430.293 179.624 430.141C179.906 429.988 180.216 429.892 180.536 429.858C180.855 429.825 181.178 429.855 181.486 429.947C181.794 430.039 182.081 430.19 182.33 430.393C182.58 430.596 182.787 430.846 182.94 431.129C183.093 431.412 183.189 431.722 183.222 432.042C183.255 432.362 183.225 432.685 183.133 432.993C183.042 433.302 182.89 433.589 182.688 433.839C182.485 434.088 182.236 434.296 181.953 434.449C181.581 434.634 181.183 434.74 180.785 434.739C179.909 434.738 179.087 434.285 178.663 433.461ZM155.263 390.488C155.107 390.207 155.008 389.898 154.972 389.578C154.936 389.259 154.964 388.936 155.053 388.627C155.142 388.319 155.291 388.031 155.492 387.78C155.693 387.53 155.941 387.322 156.223 387.167C156.548 386.988 156.911 386.886 157.282 386.869C157.653 386.852 158.023 386.92 158.364 387.068C158.705 387.216 159.008 387.44 159.248 387.724C159.489 388.007 159.662 388.342 159.754 388.702C159.845 389.063 159.853 389.44 159.777 389.804C159.7 390.168 159.542 390.51 159.313 390.803C159.084 391.096 158.791 391.333 158.457 391.495C158.123 391.658 157.756 391.741 157.384 391.739C156.508 391.738 155.686 391.285 155.263 390.461L155.263 390.488ZM131.862 347.514C131.706 347.232 131.609 346.921 131.574 346.601C131.54 346.28 131.569 345.956 131.661 345.647C131.753 345.338 131.905 345.051 132.109 344.801C132.313 344.552 132.564 344.345 132.849 344.194C133.414 343.897 134.074 343.833 134.686 344.018C135.298 344.202 135.813 344.619 136.122 345.179C136.43 345.739 136.507 346.398 136.335 347.015C136.164 347.631 135.758 348.155 135.205 348.475C134.833 348.661 134.434 348.767 134.036 348.766C133.16 348.765 132.338 348.312 131.888 347.488L131.862 347.514ZM108.461 304.541C107.826 303.371 108.252 301.883 109.448 301.221C109.728 301.065 110.037 300.966 110.356 300.93C110.675 300.894 110.997 300.921 111.306 301.011C111.614 301.1 111.901 301.25 112.152 301.451C112.402 301.652 112.61 301.9 112.764 302.182C112.974 302.552 113.083 302.971 113.08 303.396C113.077 303.822 112.961 304.239 112.745 304.605C112.529 304.972 112.22 305.274 111.85 305.483C111.479 305.692 111.06 305.798 110.635 305.793C109.76 305.791 108.938 305.339 108.487 304.514L108.461 304.541ZM85.0601 261.567C84.4248 260.397 84.8516 258.91 86.0469 258.247C86.3725 258.068 86.7349 257.966 87.1061 257.949C87.4773 257.931 87.8475 257.999 88.1884 258.148C88.5293 258.296 88.8317 258.52 89.0726 258.804C89.3134 259.087 89.4862 259.422 89.5778 259.782C89.6694 260.143 89.6773 260.52 89.6009 260.884C89.5245 261.248 89.3658 261.589 89.1371 261.883C88.9083 262.176 88.6155 262.413 88.2812 262.575C87.9468 262.737 87.5797 262.821 87.2081 262.819C86.3323 262.818 85.5101 262.365 85.0601 261.541L85.0601 261.567ZM61.6593 218.594C60.9974 217.424 61.4507 215.936 62.6195 215.274C62.9012 215.117 63.2114 215.018 63.5317 214.983C63.8521 214.948 64.1762 214.978 64.4851 215.07C64.794 215.162 65.0814 215.315 65.3305 215.519C65.5796 215.724 65.7854 215.976 65.9357 216.262C66.5976 217.432 66.1443 218.919 64.949 219.582C64.5771 219.794 64.1788 219.9 63.7807 219.899C62.9314 219.898 62.0827 219.418 61.6593 218.594ZM38.2584 175.647C38.1019 175.365 38.0033 175.055 37.9683 174.734C37.9332 174.413 37.9626 174.089 38.0545 173.779C38.1464 173.47 38.2991 173.182 38.5035 172.933C38.708 172.684 38.9601 172.478 39.2452 172.327C40.414 171.664 41.8996 172.118 42.5615 173.288C43.2233 174.485 42.7699 175.972 41.6012 176.609C41.2293 176.821 40.8311 176.926 40.4329 176.926C39.5571 176.924 38.735 176.445 38.2849 175.647L38.2584 175.647ZM14.8576 132.674C14.704 132.391 14.6077 132.081 14.5741 131.761C14.5406 131.441 14.5706 131.117 14.6623 130.809C14.7539 130.5 14.9055 130.213 15.1084 129.963C15.3113 129.713 15.5614 129.506 15.8443 129.354C16.1263 129.198 16.4364 129.1 16.7565 129.066C17.0766 129.031 17.4004 129.061 17.709 129.153C18.0176 129.245 18.3048 129.397 18.554 129.601C18.8033 129.805 19.0094 130.057 19.1606 130.342C19.8224 131.512 19.3691 132.999 18.2003 133.662C17.8285 133.874 17.4037 133.979 17.0321 133.979C16.1828 133.978 15.3341 133.498 14.8841 132.7L14.8576 132.674ZM-8.54326 89.7003C-8.69685 89.4176 -8.79317 89.1073 -8.82669 88.7872C-8.86021 88.4672 -8.83025 88.1436 -8.73858 87.8351C-8.64689 87.5267 -8.49528 87.2394 -8.29242 86.9897C-8.08957 86.7401 -7.83947 86.5329 -7.55648 86.3803C-7.27474 86.2236 -6.9646 86.1249 -6.64423 86.0898C-6.32387 86.0548 -5.99974 86.0841 -5.69086 86.1761C-5.38197 86.2681 -5.09455 86.421 -4.84545 86.6257C-4.59635 86.8304 -4.3906 87.0828 -4.24024 87.3682C-3.57839 88.5383 -4.00522 90.0523 -5.20049 90.6883C-5.57237 90.9003 -5.97064 91.006 -6.36875 91.0055C-7.24461 91.0042 -8.06674 90.5513 -8.51676 89.7269L-8.54326 89.7003ZM-31.9441 46.7269C-32.097 46.4458 -32.1932 46.1373 -32.2271 45.819C-32.2609 45.5006 -32.2318 45.1788 -32.1414 44.8717C-32.051 44.5646 -31.9011 44.2784 -31.7002 44.0294C-31.4993 43.7803 -31.2514 43.5733 -30.9706 43.4202C-30.6898 43.267 -30.3816 43.1708 -30.0637 43.1369C-29.7457 43.103 -29.4242 43.1321 -29.1175 43.2226C-28.8108 43.3131 -28.5249 43.4632 -28.2761 43.6643C-28.0273 43.8654 -27.8206 44.1136 -27.6676 44.3948C-27.0058 45.5649 -27.4591 47.0522 -28.6544 47.7148C-28.9322 47.8734 -29.239 47.9744 -29.5565 48.0118C-29.8741 48.0492 -30.1959 48.0223 -30.5029 47.9326C-30.8098 47.8429 -31.0956 47.6923 -31.3432 47.4897C-31.5908 47.2872 -31.7952 47.0368 -31.9441 46.7535L-31.9441 46.7269ZM-55.3449 3.75355C-55.4979 3.47243 -55.594 3.1639 -55.6279 2.84558C-55.6617 2.52726 -55.6326 2.20538 -55.5422 1.89831C-55.4518 1.59125 -55.3019 1.30502 -55.101 1.05596C-54.9001 0.806907 -54.6522 0.599903 -54.3714 0.44677C-54.0906 0.293637 -53.7824 0.197374 -53.4645 0.163477C-53.1465 0.129581 -52.825 0.158714 -52.5183 0.249215C-52.2116 0.339715 -51.9257 0.489809 -51.6769 0.690928C-51.4281 0.892048 -51.2214 1.14025 -51.0684 1.42137C-50.7561 1.98915 -50.6819 2.65786 -50.8619 3.28045C-51.042 3.90305 -51.4617 4.42857 -52.0287 4.74146C-52.4005 4.92692 -52.7988 5.03264 -53.1969 5.03207C-54.0728 5.03081 -54.8949 4.57792 -55.3449 3.75355ZM243.017 532.24C242.117 530.857 242.517 529.051 243.872 528.15C244.258 527.899 244.698 527.742 245.155 527.692C245.613 527.641 246.075 527.698 246.507 527.857C246.939 528.017 247.327 528.276 247.642 528.612C247.956 528.948 248.188 529.354 248.318 529.795C248.449 530.237 248.475 530.703 248.394 531.157C248.313 531.611 248.128 532.039 247.853 532.408C247.577 532.777 247.22 533.077 246.809 533.284C246.397 533.491 245.944 533.599 245.483 533.599C244.501 533.598 243.573 533.118 243.017 532.267L243.017 532.24ZM216.402 491.176C215.528 489.793 215.902 487.986 217.284 487.085C218.665 486.183 220.469 486.584 221.37 487.967C222.27 489.35 221.869 491.157 220.488 492.058C219.831 492.482 219.034 492.629 218.27 492.469C217.505 492.309 216.834 491.854 216.402 491.202L216.402 491.176ZM189.813 450.111C189.6 449.786 189.454 449.423 189.381 449.041C189.309 448.66 189.313 448.268 189.392 447.888C189.472 447.507 189.625 447.147 189.844 446.826C190.063 446.506 190.343 446.232 190.669 446.02C192.05 445.118 193.854 445.52 194.728 446.903C195.017 447.347 195.181 447.86 195.203 448.39C195.226 448.919 195.106 449.445 194.855 449.912C194.605 450.379 194.234 450.77 193.781 451.044C193.327 451.318 192.809 451.465 192.28 451.469C191.324 451.468 190.369 450.988 189.813 450.137L189.813 450.111ZM163.198 409.046C162.324 407.663 162.699 405.83 164.08 404.955C165.461 404.054 167.292 404.455 168.166 405.838C169.067 407.221 168.666 409.027 167.284 409.929C166.628 410.352 165.831 410.5 165.066 410.339C164.301 410.179 163.63 409.724 163.198 409.072L163.198 409.046ZM136.61 367.981C135.709 366.598 136.11 364.792 137.465 363.89C137.852 363.639 138.293 363.482 138.751 363.432C139.21 363.382 139.674 363.439 140.106 363.601C140.538 363.762 140.927 364.022 141.241 364.36C141.555 364.698 141.786 365.106 141.915 365.549C142.044 365.992 142.068 366.46 141.984 366.914C141.9 367.368 141.712 367.797 141.433 368.165C141.155 368.533 140.795 368.831 140.381 369.035C139.967 369.239 139.511 369.343 139.05 369.34C138.068 369.338 137.139 368.859 136.583 368.008L136.61 367.981ZM109.995 326.916C109.121 325.533 109.522 323.7 110.876 322.826C112.258 321.924 114.089 322.325 114.963 323.708C115.863 325.091 115.462 326.898 114.081 327.799C113.424 328.222 112.627 328.37 111.862 328.21C111.098 328.05 110.427 327.595 109.995 326.943L109.995 326.916ZM83.4063 285.851C83.1815 285.527 83.0241 285.16 82.9435 284.774C82.8629 284.387 82.8606 283.988 82.9369 283.601C83.0132 283.213 83.1665 282.845 83.3877 282.518C83.6088 282.191 83.8934 281.911 84.2244 281.696C84.5555 281.481 84.9262 281.335 85.3147 281.267C85.7033 281.198 86.1016 281.208 86.4862 281.296C86.8707 281.385 87.2336 281.549 87.5534 281.781C87.8731 282.012 88.1432 282.306 88.3475 282.643C89.2214 284.026 88.8472 285.833 87.4923 286.734C86.8355 287.158 86.0386 287.305 85.2739 287.145C84.5092 286.985 83.8383 286.53 83.4062 285.878L83.4063 285.851ZM56.7912 244.787C55.9173 243.404 56.3181 241.571 57.6729 240.696C59.0544 239.794 60.8586 240.196 61.7325 241.579C62.6329 242.962 62.2322 244.768 60.8507 245.669C60.1939 246.093 59.397 246.24 58.6323 246.08C57.8676 245.92 57.1967 245.465 56.7646 244.813L56.7912 244.787ZM30.2027 203.695C29.3023 202.339 29.703 200.506 31.0844 199.631C32.4658 198.73 34.2701 199.131 35.1705 200.514C36.0444 201.897 35.6702 203.703 34.3153 204.605C33.9901 204.818 33.6256 204.965 33.2432 205.036C32.8607 205.108 32.4679 205.102 32.0876 205.02C31.7074 204.938 31.3472 204.781 31.0282 204.558C30.7091 204.335 30.4375 204.051 30.2292 203.722L30.2027 203.695ZM3.61422 162.63C2.7138 161.247 3.11455 159.415 4.49595 158.54C5.87738 157.638 7.6816 158.039 8.55548 159.422C9.4559 160.805 9.0552 162.612 7.67376 163.513C7.02188 163.938 6.22819 164.087 5.46702 163.926C4.70586 163.766 4.03945 163.309 3.61418 162.657L3.61422 162.63ZM-23.0008 121.566C-23.8747 120.183 -23.5005 118.35 -22.1191 117.475C-20.7377 116.573 -18.9334 116.975 -18.033 118.358C-17.1592 119.741 -17.5333 121.547 -18.8882 122.448C-19.545 122.872 -20.342 123.019 -21.1067 122.859C-21.8713 122.699 -22.5423 122.244 -22.9743 121.592L-23.0008 121.566ZM-49.5893 80.5008C-50.4898 79.1178 -50.089 77.2849 -48.7076 76.41C-47.3262 75.5086 -45.5219 75.9098 -44.6215 77.2928C-43.7476 78.6758 -44.1484 80.4821 -45.5033 81.3835C-46.1551 81.8085 -46.9488 81.957 -47.71 81.7965C-48.4712 81.6359 -49.1376 81.1795 -49.5628 80.5274L-49.5893 80.5008ZM260.648 545.153C259.483 543.637 259.751 541.458 261.266 540.291C262.78 539.124 264.956 539.393 266.148 540.909C267.314 542.426 267.046 544.604 265.531 545.771C264.893 546.248 264.15 546.487 263.407 546.485C262.372 546.484 261.364 546.031 260.675 545.153L260.648 545.153ZM230.739 506.422C229.573 504.905 229.842 502.727 231.356 501.533C231.716 501.255 232.126 501.05 232.565 500.93C233.003 500.81 233.461 500.778 233.912 500.836C234.363 500.893 234.798 501.039 235.193 501.264C235.588 501.49 235.934 501.792 236.212 502.151C236.491 502.511 236.696 502.922 236.815 503.362C236.935 503.801 236.967 504.259 236.909 504.71C236.852 505.162 236.707 505.598 236.481 505.993C236.255 506.388 235.954 506.735 235.595 507.013C235.238 507.294 234.828 507.502 234.391 507.624C233.953 507.746 233.495 507.781 233.044 507.726C232.593 507.671 232.157 507.527 231.762 507.304C231.366 507.08 231.019 506.78 230.739 506.422ZM200.856 467.69C199.69 466.174 199.959 463.996 201.473 462.829C202.988 461.662 205.164 461.931 206.356 463.447C207.522 464.963 207.253 467.142 205.739 468.309C205.101 468.786 204.357 469.051 203.614 469.05C202.579 469.048 201.571 468.568 200.882 467.691L200.856 467.69ZM170.946 428.959C170.527 428.417 170.278 427.763 170.231 427.08C170.183 426.396 170.339 425.714 170.678 425.119C171.018 424.524 171.526 424.043 172.139 423.737C172.751 423.431 173.441 423.314 174.12 423.401C174.799 423.487 175.437 423.773 175.953 424.223C176.47 424.672 176.842 425.265 177.022 425.926C177.202 426.587 177.182 427.287 176.965 427.937C176.748 428.587 176.344 429.158 175.802 429.577C175.445 429.858 175.036 430.066 174.598 430.188C174.16 430.31 173.703 430.345 173.252 430.29C172.801 430.235 172.365 430.091 171.969 429.868C171.574 429.644 171.226 429.344 170.946 428.986L170.946 428.959ZM141.063 390.228C139.898 388.738 140.166 386.533 141.681 385.366C143.195 384.199 145.371 384.468 146.563 385.984C147.729 387.501 147.461 389.679 145.946 390.846C145.308 391.324 144.565 391.588 143.822 391.587C142.787 391.586 141.779 391.106 141.09 390.228L141.063 390.228ZM111.154 351.497C110.735 350.955 110.486 350.301 110.438 349.617C110.39 348.934 110.546 348.251 110.886 347.656C111.225 347.061 111.734 346.581 112.346 346.275C112.959 345.969 113.648 345.852 114.327 345.938C115.006 346.025 115.644 346.311 116.161 346.76C116.678 347.21 117.049 347.803 117.23 348.464C117.41 349.125 117.39 349.825 117.173 350.474C116.956 351.124 116.551 351.695 116.01 352.115C115.399 352.592 114.629 352.83 113.886 352.829C112.851 352.828 111.843 352.375 111.154 351.497ZM81.2709 312.766C80.1052 311.276 80.3738 309.071 81.8883 307.904C82.6142 307.341 83.5336 307.09 84.4443 307.206C85.355 307.322 86.1824 307.795 86.7445 308.522C87.3066 309.249 87.5573 310.169 87.4415 311.081C87.3257 311.993 86.8529 312.821 86.1271 313.384C85.4894 313.861 84.7458 314.126 84.0027 314.125C82.9676 314.123 81.9597 313.643 81.2709 312.766ZM51.3614 274.034C50.9424 273.492 50.6933 272.838 50.6455 272.155C50.5978 271.471 50.7536 270.789 51.0933 270.194C51.4329 269.599 51.9412 269.118 52.5537 268.812C53.1663 268.507 53.8556 268.389 54.5346 268.476C55.2136 268.562 55.8518 268.848 56.3684 269.298C56.885 269.747 57.2569 270.34 57.4371 271.001C57.6172 271.662 57.5975 272.362 57.3804 273.012C57.1634 273.662 56.7587 274.233 56.2176 274.652C55.6064 275.13 54.8364 275.368 54.0932 275.367C53.0581 275.365 52.0502 274.912 51.3614 274.034ZM21.4784 235.303C20.3128 233.787 20.5813 231.608 22.0959 230.415C23.6104 229.248 25.7864 229.517 26.9786 231.033C28.1442 232.549 27.8757 234.728 26.3611 235.921C25.7235 236.399 24.98 236.637 24.2368 236.636C23.2017 236.634 22.1938 236.181 21.505 235.303L21.4784 235.303ZM-8.43108 196.572C-8.85009 196.03 -9.0992 195.376 -9.14693 194.692C-9.19465 194.009 -9.03884 193.326 -8.6992 192.731C-8.35955 192.136 -7.85133 191.656 -7.23878 191.35C-6.62623 191.044 -5.93687 190.927 -5.25786 191.013C-4.57885 191.1 -3.94069 191.386 -3.42406 191.835C-2.90743 192.285 -2.53555 192.878 -2.35541 193.539C-2.17528 194.2 -2.19499 194.9 -2.41206 195.55C-2.62913 196.199 -3.03381 196.77 -3.57492 197.19C-4.18606 197.667 -4.95609 197.905 -5.69924 197.904C-6.73435 197.903 -7.74227 197.45 -8.43108 196.572ZM-38.314 157.841C-39.4797 156.324 -39.2111 154.146 -37.6966 152.952C-36.2086 151.785 -34.0061 152.081 -32.8404 153.57C-31.6748 155.087 -31.9433 157.265 -33.4579 158.459C-34.0956 158.936 -34.8391 159.174 -35.5822 159.173C-36.6173 159.172 -37.6252 158.718 -38.314 157.841ZM-68.2236 119.109C-68.6426 118.567 -68.8917 117.913 -68.9394 117.23C-68.9871 116.546 -68.8313 115.864 -68.4917 115.269C-68.152 114.674 -67.6438 114.193 -67.0312 113.887C-66.4187 113.582 -65.7293 113.465 -65.0503 113.551C-64.3713 113.637 -63.7332 113.923 -63.2165 114.373C-62.6999 114.822 -62.328 115.415 -62.1479 116.076C-61.9678 116.737 -61.9875 117.437 -62.2045 118.087C-62.4216 118.737 -62.8263 119.308 -63.3674 119.727C-63.9785 120.205 -64.7486 120.469 -65.4918 120.468C-66.5269 120.467 -67.5347 119.987 -68.2236 119.109ZM278.359 558.119C276.875 556.496 276.958 553.998 278.58 552.486C280.201 551 282.696 551.083 284.18 552.706C285.664 554.329 285.58 556.827 283.959 558.313C283.188 559.029 282.232 559.373 281.277 559.372C280.189 559.37 279.154 558.944 278.359 558.119ZM245.155 522.199C243.671 520.576 243.754 518.079 245.375 516.566C246.996 515.081 249.491 515.164 250.975 516.787C252.459 518.41 252.376 520.908 250.781 522.393C250.01 523.11 249.028 523.48 248.072 523.479C246.984 523.477 245.95 523.024 245.155 522.199ZM211.95 486.28C211.275 485.497 210.93 484.482 210.988 483.45C211.046 482.417 211.502 481.447 212.261 480.745C213.019 480.043 214.021 479.663 215.054 479.686C216.086 479.709 217.07 480.133 217.797 480.868C219.281 482.491 219.171 484.988 217.576 486.501C216.806 487.19 215.823 487.561 214.868 487.56C213.806 487.558 212.745 487.105 211.95 486.28ZM178.745 450.361C178.032 449.585 177.652 448.559 177.688 447.504C177.724 446.45 178.174 445.453 178.939 444.728C179.721 444.052 180.735 443.706 181.766 443.764C182.798 443.822 183.767 444.279 184.468 445.039C185.169 445.798 185.549 446.801 185.526 447.835C185.503 448.869 185.079 449.854 184.345 450.581C183.575 451.271 182.592 451.642 181.637 451.64C180.575 451.639 179.514 451.212 178.745 450.361ZM145.541 414.441C144.82 413.668 144.436 412.641 144.472 411.585C144.509 410.528 144.963 409.53 145.735 408.808C146.513 408.097 147.54 407.721 148.593 407.763C149.646 407.804 150.64 408.259 151.361 409.029C152.845 410.652 152.762 413.15 151.141 414.662C150.37 415.352 149.414 415.722 148.432 415.721C147.37 415.719 146.309 415.293 145.541 414.441ZM112.336 378.522C110.852 376.899 110.935 374.401 112.556 372.916C114.151 371.43 116.672 371.513 118.156 373.11C119.64 374.733 119.557 377.23 117.936 378.742C117.555 379.098 117.107 379.375 116.619 379.557C116.13 379.739 115.611 379.822 115.09 379.801C114.569 379.781 114.058 379.657 113.585 379.437C113.112 379.218 112.688 378.907 112.336 378.522ZM79.1314 342.602C77.6473 341.006 77.7306 338.482 79.3517 336.996C80.9729 335.51 83.4676 335.594 84.9516 337.217C86.4356 338.813 86.3524 341.337 84.7578 342.823C83.9871 343.539 83.0045 343.883 82.0491 343.882C80.9609 343.881 79.9264 343.454 79.1314 342.602ZM45.9267 306.683C44.4427 305.087 44.5259 302.562 46.1471 301.077C47.7682 299.591 50.263 299.674 51.7735 301.297C52.2957 301.866 52.641 302.575 52.7673 303.337C52.8936 304.099 52.7954 304.881 52.4847 305.588C52.174 306.295 51.6642 306.897 51.0177 307.318C50.3712 307.74 49.616 307.964 48.8444 307.963C47.7828 307.961 46.7217 307.535 45.9267 306.683ZM12.7221 270.764C11.238 269.167 11.3478 266.643 12.9424 265.157C14.5636 263.672 17.0583 263.755 18.5689 265.378C20.0529 266.974 19.9696 269.499 18.3485 270.984C17.5726 271.701 16.5445 272.08 15.4897 272.039C14.4349 271.997 13.4396 271.539 12.7221 270.764ZM-20.456 234.844C-21.9401 233.248 -21.8568 230.724 -20.2622 229.238C-18.6411 227.752 -16.1463 227.836 -14.6358 229.459C-13.1518 231.055 -13.235 233.579 -14.8562 235.065C-15.6269 235.781 -16.5829 236.125 -17.5649 236.124C-18.6265 236.122 -19.6876 235.696 -20.456 234.844ZM-53.6607 198.925C-55.1447 197.302 -55.0615 194.804 -53.4403 193.292C-51.8457 191.806 -49.3244 191.89 -47.8404 193.513C-46.3299 195.136 -46.4396 197.633 -48.0608 199.119C-48.8315 199.835 -49.7875 200.179 -50.7695 200.178C-51.8311 200.176 -52.8922 199.75 -53.6607 198.925Z" fill="#1C70EB" fill-opacity="0.4"/>
<path d="M296.18 571.138C295.328 570.331 294.825 569.224 294.777 568.051C294.73 566.878 295.142 565.733 295.926 564.86C296.71 563.987 297.804 563.456 298.974 563.379C300.144 563.303 301.298 563.687 302.188 564.45C304.017 566.127 304.199 568.944 302.551 570.801C301.674 571.783 300.425 572.313 299.204 572.311C298.143 572.31 297.082 571.936 296.207 571.164L296.18 571.138ZM259.76 538.509C257.904 536.858 257.749 534.015 259.397 532.184C261.045 530.326 263.885 530.171 265.741 531.821C267.57 533.498 267.725 536.315 266.077 538.172C265.2 539.154 263.951 539.657 262.731 539.655C261.642 539.654 260.608 539.28 259.76 538.509ZM223.312 505.879C221.457 504.229 221.302 501.386 222.95 499.555C224.598 497.724 227.438 497.542 229.294 499.192C231.123 500.842 231.278 503.685 229.63 505.516C228.752 506.498 227.504 507.028 226.283 507.026C225.222 507.025 224.16 506.651 223.312 505.879ZM186.865 473.25C185.009 471.6 184.854 468.783 186.529 466.926C186.921 466.487 187.395 466.13 187.925 465.875C188.455 465.62 189.03 465.473 189.618 465.442C190.205 465.41 190.792 465.496 191.346 465.693C191.9 465.89 192.41 466.194 192.846 466.589C194.675 468.239 194.857 471.083 193.209 472.914C192.331 473.896 191.083 474.399 189.862 474.397C188.774 474.396 187.74 474.022 186.891 473.25L186.865 473.25ZM150.417 440.621C148.562 438.971 148.407 436.128 150.081 434.27C150.873 433.386 151.981 432.851 153.165 432.783C154.349 432.715 155.512 433.119 156.399 433.907C158.228 435.557 158.383 438.401 156.735 440.232C155.941 441.112 154.833 441.643 153.65 441.711C152.468 441.779 151.307 441.378 150.417 440.595L150.417 440.621ZM113.97 407.992C112.114 406.342 111.959 403.499 113.608 401.667C115.256 399.81 118.096 399.654 119.925 401.305C121.754 402.981 121.909 405.798 120.261 407.656C119.383 408.638 118.135 409.141 116.914 409.139C115.853 409.137 114.792 408.764 113.943 407.992L113.97 407.992ZM77.5226 375.363C76.6432 374.567 76.1142 373.455 76.0513 372.27C75.9883 371.085 76.3965 369.923 77.1867 369.038C78.8349 367.181 81.675 367.025 83.504 368.675C85.333 370.326 85.5147 373.169 83.8399 375C82.9627 375.982 81.7145 376.485 80.4936 376.483C79.432 376.482 78.3709 376.108 77.5227 375.336L77.5226 375.363ZM41.0752 342.734C40.6367 342.342 40.28 341.867 40.0256 341.336C39.7712 340.805 39.6241 340.229 39.5929 339.641C39.5617 339.054 39.6469 338.465 39.8436 337.911C40.0403 337.356 40.3447 336.846 40.7392 336.409C41.1309 335.97 41.6055 335.613 42.1356 335.358C42.6657 335.104 43.2409 334.956 43.828 334.925C44.4152 334.894 45.0027 334.979 45.5568 335.176C46.1109 335.373 46.6206 335.678 47.0565 336.073C48.8855 337.723 49.0407 340.566 47.3925 342.397C46.5152 343.379 45.2936 343.882 44.0462 343.881C42.9845 343.879 41.9234 343.506 41.0752 342.734ZM4.62783 310.105C2.79889 308.428 2.61713 305.611 4.26535 303.753C5.05659 302.869 6.16536 302.335 7.3492 302.267C8.53303 302.199 9.69561 302.603 10.5827 303.391C12.4382 305.041 12.5934 307.884 10.9452 309.715C10.1584 310.604 9.05133 311.145 7.86697 311.218C6.68261 311.291 5.51769 310.89 4.62783 310.105ZM-31.8196 277.475C-33.6485 275.825 -33.8037 272.982 -32.1555 271.124C-31.7638 270.685 -31.2893 270.328 -30.7592 270.074C-30.2291 269.819 -29.6539 269.672 -29.0668 269.64C-28.4796 269.609 -27.8921 269.694 -27.338 269.891C-26.7839 270.088 -26.2742 270.393 -25.8382 270.788C-24.9489 271.582 -24.4111 272.697 -24.3431 273.888C-24.2751 275.079 -24.6826 276.249 -25.4757 277.139C-26.2689 278.029 -27.3829 278.568 -28.5726 278.636C-29.7623 278.704 -30.9303 278.296 -31.8196 277.502L-31.8196 277.475ZM-68.267 244.846C-68.7055 244.454 -69.0622 243.979 -69.3166 243.448C-69.571 242.918 -69.7181 242.342 -69.7493 241.754C-69.7805 241.166 -69.6953 240.578 -69.4986 240.023C-69.3018 239.469 -68.9974 238.958 -68.6029 238.522C-66.9547 236.664 -64.1146 236.509 -62.2856 238.159C-60.4301 239.836 -60.3015 242.652 -61.9497 244.51C-62.8269 245.492 -64.0486 245.995 -65.296 245.993C-66.3576 245.992 -67.4188 245.618 -68.267 244.846ZM314.13 584.237C313.599 583.85 313.149 583.362 312.807 582.801C312.465 582.24 312.237 581.616 312.137 580.967C312.037 580.317 312.066 579.654 312.223 579.015C312.38 578.377 312.662 577.776 313.052 577.247C314.674 575.017 317.807 574.517 320.034 576.167C322.261 577.791 322.761 580.928 321.112 583.157C320.128 584.484 318.614 585.2 317.075 585.198C316.066 585.196 315.032 584.876 314.13 584.237ZM274.678 555.35C273.607 554.568 272.89 553.394 272.683 552.083C272.476 550.773 272.796 549.434 273.573 548.36C275.196 546.13 278.328 545.63 280.555 547.281C282.782 548.905 283.282 552.041 281.634 554.27C280.676 555.598 279.136 556.313 277.596 556.311C276.561 556.309 275.553 555.989 274.652 555.35L274.678 555.35ZM235.2 526.463C234.669 526.079 234.22 525.593 233.879 525.034C233.537 524.475 233.309 523.854 233.209 523.207C233.109 522.559 233.138 521.898 233.294 521.262C233.451 520.625 233.732 520.026 234.121 519.5C235.744 517.27 238.876 516.77 241.103 518.394C243.304 520.018 243.83 523.154 242.182 525.384C241.198 526.711 239.684 527.426 238.144 527.424C237.136 527.422 236.101 527.102 235.2 526.463ZM195.748 497.603C195.216 497.216 194.767 496.728 194.425 496.167C194.083 495.606 193.855 494.982 193.755 494.333C193.655 493.683 193.684 493.02 193.841 492.381C193.998 491.743 194.279 491.142 194.67 490.613C196.292 488.383 199.424 487.883 201.625 489.533C203.852 491.157 204.352 494.294 202.703 496.497C201.719 497.85 200.205 498.539 198.666 498.537C197.631 498.535 196.623 498.215 195.721 497.576L195.748 497.603ZM156.269 468.716C155.738 468.329 155.288 467.841 154.946 467.28C154.604 466.719 154.377 466.095 154.276 465.446C154.176 464.796 154.205 464.133 154.362 463.494C154.519 462.856 154.801 462.255 155.191 461.726C156.813 459.496 159.946 458.996 162.173 460.646C164.374 462.271 164.873 465.407 163.251 467.636C162.267 468.964 160.753 469.679 159.214 469.677C158.205 469.675 157.171 469.355 156.269 468.716ZM116.817 439.829C115.747 439.048 115.029 437.873 114.822 436.563C114.615 435.252 114.935 433.913 115.713 432.839C117.335 430.609 120.467 430.109 122.695 431.76C124.922 433.384 125.421 436.52 123.773 438.75C122.789 440.077 121.275 440.792 119.736 440.79C118.7 440.788 117.692 440.468 116.791 439.829L116.817 439.829ZM77.3389 410.942C76.8076 410.556 76.358 410.068 76.016 409.506C75.6739 408.945 75.4462 408.322 75.346 407.672C75.2458 407.022 75.275 406.359 75.432 405.721C75.589 405.082 75.8706 404.481 76.2607 403.952C77.883 401.723 81.0155 401.222 83.2426 402.873C85.4698 404.497 85.943 407.633 84.3208 409.863C83.3369 411.19 81.7964 411.905 80.2836 411.903C79.2485 411.901 78.2404 411.581 77.3389 410.942ZM37.887 382.055C36.8162 381.274 36.0987 380.099 35.8916 378.789C35.6845 377.479 36.0048 376.14 36.7823 375.065C38.4045 372.862 41.537 372.362 43.7642 373.986C45.9913 375.61 46.4911 378.746 44.8423 380.976C43.8584 382.303 42.3445 383.018 40.8051 383.016C39.77 383.015 38.7619 382.694 37.8604 382.055L37.887 382.055ZM-1.59149 353.168C-2.1219 352.784 -2.57095 352.299 -2.91266 351.74C-3.25438 351.181 -3.48195 350.56 -3.58223 349.912C-3.68251 349.264 -3.6535 348.603 -3.49685 347.967C-3.34022 347.331 -3.05907 346.732 -2.6697 346.205C-1.04749 343.975 2.0851 343.475 4.31224 345.099C6.53937 346.723 7.01261 349.859 5.3904 352.089C4.40648 353.416 2.86606 354.131 1.35321 354.129C0.318109 354.128 -0.69 353.807 -1.59149 353.168ZM-41.07 324.308C-42.1377 323.524 -42.8509 322.347 -43.0531 321.036C-43.2552 319.726 -42.9298 318.389 -42.1482 317.318C-40.5259 315.089 -37.3934 314.588 -35.1663 316.239C-32.9391 317.863 -32.4393 320.999 -34.0881 323.202C-35.072 324.556 -36.5859 325.245 -38.1252 325.242C-39.1338 325.241 -40.1685 324.921 -41.0699 324.282L-41.07 324.308ZM-80.5219 295.421C-81.0532 295.035 -81.5028 294.547 -81.8448 293.986C-82.1869 293.424 -82.4146 292.801 -82.5148 292.151C-82.615 291.501 -82.5858 290.838 -82.4288 290.2C-82.2718 289.561 -81.9902 288.96 -81.6001 288.431C-79.9779 286.202 -76.8453 285.701 -74.6182 287.352C-72.4176 288.976 -71.9178 292.112 -73.54 294.342C-74.5239 295.669 -76.0378 296.384 -77.5772 296.382C-78.5858 296.381 -79.6204 296.06 -80.5219 295.421Z" fill="#1C70EB" fill-opacity="0.4"/>
<path d="M332.156 597.336C331.532 596.969 330.987 596.482 330.551 595.904C330.116 595.326 329.798 594.668 329.617 593.967C329.435 593.265 329.394 592.535 329.494 591.818C329.595 591.101 329.836 590.411 330.203 589.787C331.746 587.158 335.118 586.286 337.743 587.831C338.782 588.449 339.59 589.39 340.043 590.511C340.496 591.633 340.569 592.872 340.251 594.038C339.933 595.205 339.241 596.235 338.282 596.971C337.323 597.706 336.15 598.107 334.942 598.11C333.986 598.109 333.058 597.869 332.183 597.362L332.156 597.336ZM289.991 572.564C289.368 572.2 288.823 571.716 288.387 571.14C287.951 570.565 287.633 569.908 287.451 569.209C287.27 568.51 287.228 567.782 287.329 567.067C287.43 566.351 287.67 565.663 288.038 565.041C289.581 562.413 292.926 561.541 295.552 563.059C296.595 563.671 297.408 564.61 297.865 565.731C298.323 566.851 298.4 568.091 298.084 569.259C297.769 570.428 297.078 571.46 296.119 572.197C295.16 572.934 293.986 573.335 292.777 573.338C291.821 573.337 290.866 573.096 290.018 572.564L289.991 572.564ZM247.8 547.818C246.544 547.073 245.634 545.861 245.268 544.447C244.902 543.032 245.11 541.531 245.846 540.269C247.389 537.641 250.761 536.769 253.387 538.314C254.426 538.931 255.233 539.873 255.686 540.994C256.139 542.115 256.212 543.354 255.894 544.521C255.576 545.688 254.885 546.718 253.926 547.453C252.967 548.189 251.793 548.589 250.585 548.593C249.656 548.591 248.701 548.351 247.826 547.845L247.8 547.818ZM205.634 523.073C205.011 522.706 204.465 522.219 204.03 521.641C203.594 521.063 203.276 520.404 203.095 519.703C202.913 519.002 202.872 518.272 202.972 517.555C203.073 516.838 203.314 516.147 203.681 515.523C205.224 512.895 208.596 512.023 211.222 513.568C213.847 515.113 214.718 518.489 213.175 521.091C212.688 521.921 211.994 522.609 211.16 523.088C210.326 523.567 209.382 523.819 208.42 523.821C207.465 523.819 206.536 523.579 205.661 523.073L205.634 523.073ZM163.469 498.3C162.846 497.933 162.3 497.447 161.865 496.869C161.429 496.291 161.111 495.632 160.93 494.931C160.748 494.23 160.707 493.5 160.807 492.783C160.908 492.066 161.149 491.375 161.516 490.751C162.259 489.494 163.47 488.582 164.883 488.215C166.296 487.849 167.797 488.057 169.057 488.796C170.095 489.413 170.903 490.355 171.356 491.476C171.809 492.597 171.882 493.836 171.564 495.003C171.246 496.17 170.555 497.2 169.596 497.936C168.637 498.671 167.463 499.071 166.255 499.075C165.3 499.074 164.345 498.833 163.496 498.327L163.469 498.3ZM121.304 473.555C120.679 473.189 120.132 472.704 119.694 472.127C119.257 471.55 118.937 470.892 118.753 470.191C118.569 469.49 118.525 468.759 118.623 468.041C118.721 467.323 118.959 466.632 119.325 466.006C120.868 463.377 124.24 462.505 126.865 464.05C129.49 465.595 130.361 468.971 128.818 471.599C127.807 473.352 125.975 474.332 124.064 474.329C123.135 474.328 122.179 474.088 121.304 473.581L121.304 473.555ZM79.1127 448.809C77.8575 448.064 76.9475 446.852 76.5816 445.438C76.2157 444.024 76.4234 442.522 77.1595 441.26C78.7027 438.632 82.0747 437.76 84.7 439.305C87.3254 440.85 88.1965 444.199 86.6533 446.827C86.1668 447.657 85.4722 448.346 84.6383 448.825C83.8043 449.304 82.8599 449.556 81.8985 449.557C80.943 449.556 80.0144 449.315 79.1393 448.809L79.1127 448.809ZM36.9477 424.037C36.324 423.67 35.7787 423.184 35.3429 422.606C34.9072 422.028 34.5895 421.369 34.4081 420.668C34.2267 419.967 34.1851 419.237 34.2857 418.52C34.3864 417.802 34.6272 417.112 34.9945 416.488C36.5377 413.86 39.9096 412.988 42.535 414.533C43.5737 415.15 44.3815 416.092 44.8344 417.213C45.2874 418.334 45.3604 419.573 45.0424 420.74C44.7244 421.907 44.0329 422.937 43.0739 423.672C42.115 424.408 40.9415 424.808 39.7334 424.812C38.778 424.81 37.8494 424.57 36.9742 424.064L36.9477 424.037ZM-5.21735 399.292C-5.84104 398.925 -6.38635 398.438 -6.82212 397.86C-7.25789 397.282 -7.57555 396.624 -7.75695 395.922C-7.93836 395.221 -7.97995 394.491 -7.87933 393.774C-7.77871 393.057 -7.53786 392.366 -7.17056 391.743C-5.62741 389.114 -2.28197 388.242 0.343392 389.787C2.96876 391.332 3.83979 394.708 2.32321 397.31C1.83671 398.14 1.14211 398.828 0.308151 399.307C-0.525804 399.786 -1.47021 400.038 -2.43158 400.04C-3.38707 400.038 -4.3422 399.798 -5.1908 399.292L-5.21735 399.292ZM-47.3824 374.52C-48.0071 374.157 -48.5541 373.675 -48.992 373.1C-49.4299 372.525 -49.75 371.869 -49.934 371.17C-50.118 370.471 -50.1622 369.743 -50.064 369.026C-49.9659 368.31 -49.7274 367.621 -49.3622 366.997C-47.819 364.369 -44.447 363.47 -41.8216 365.015C-40.7829 365.632 -39.9751 366.574 -39.5222 367.695C-39.0693 368.816 -38.9962 370.055 -39.3142 371.222C-39.6322 372.389 -40.3237 373.419 -41.2827 374.155C-42.2417 374.89 -43.4151 375.29 -44.6232 375.294C-45.5521 375.293 -46.5073 375.052 -47.3824 374.546L-47.3824 374.52ZM-89.574 349.774C-90.1977 349.407 -90.743 348.921 -91.1787 348.342C-91.6145 347.764 -91.9322 347.106 -92.1136 346.405C-92.295 345.704 -92.3366 344.974 -92.236 344.256C-92.1353 343.539 -91.8945 342.849 -91.5272 342.225C-89.984 339.596 -86.6121 338.724 -83.9867 340.269C-82.9479 340.887 -82.1402 341.828 -81.6872 342.95C-81.2343 344.071 -81.1613 345.31 -81.4793 346.477C-81.7973 347.643 -82.4888 348.673 -83.4477 349.409C-84.4067 350.145 -85.5802 350.545 -86.7883 350.549C-87.7437 350.547 -88.6723 350.307 -89.5475 349.801L-89.574 349.774ZM350.345 610.435C349.624 610.109 348.976 609.644 348.437 609.065C347.897 608.487 347.478 607.807 347.202 607.066C346.927 606.324 346.801 605.535 346.832 604.744C346.863 603.954 347.051 603.177 347.383 602.459C347.711 601.74 348.177 601.093 348.756 600.555C349.334 600.016 350.012 599.597 350.752 599.322C351.492 599.046 352.279 598.92 353.068 598.95C353.857 598.979 354.633 599.165 355.35 599.495C358.374 600.881 359.696 604.443 358.311 607.471C357.3 609.675 355.121 611 352.839 610.997C352.016 610.996 351.167 610.808 350.371 610.462L350.345 610.435ZM305.864 590.071C305.146 589.743 304.499 589.276 303.961 588.697C303.424 588.118 303.005 587.439 302.73 586.698C302.455 585.957 302.329 585.169 302.358 584.379C302.388 583.589 302.573 582.813 302.903 582.095C303.231 581.376 303.697 580.728 304.275 580.19C304.853 579.652 305.532 579.233 306.272 578.957C307.012 578.682 307.799 578.555 308.588 578.585C309.377 578.615 310.152 578.8 310.87 579.13C313.893 580.516 315.215 584.079 313.831 587.106C312.819 589.31 310.641 590.635 308.358 590.632C307.535 590.631 306.686 590.444 305.864 590.071ZM261.41 569.733C260.33 569.237 259.421 568.432 258.797 567.419C258.174 566.406 257.865 565.231 257.909 564.042C257.952 562.853 258.347 561.704 259.044 560.739C259.74 559.775 260.706 559.039 261.82 558.625C262.934 558.21 264.145 558.136 265.302 558.411C266.458 558.685 267.507 559.297 268.316 560.169C269.125 561.041 269.657 562.133 269.846 563.307C270.035 564.482 269.872 565.686 269.377 566.768C268.365 568.999 266.187 570.298 263.904 570.294C263.082 570.293 262.232 570.133 261.41 569.759L261.41 569.733ZM216.956 549.395C216.238 549.067 215.591 548.6 215.054 548.021C214.516 547.442 214.097 546.763 213.822 546.022C213.547 545.281 213.421 544.493 213.451 543.703C213.48 542.913 213.665 542.137 213.995 541.419C214.321 540.698 214.786 540.049 215.363 539.509C215.941 538.969 216.62 538.549 217.361 538.273C218.102 537.997 218.89 537.872 219.679 537.903C220.469 537.934 221.245 538.121 221.962 538.454C224.985 539.84 226.334 543.403 224.923 546.43C224.266 547.881 223.06 549.01 221.571 549.571C220.082 550.132 218.432 550.078 216.983 549.421L216.956 549.395ZM172.502 529.03C171.784 528.702 171.138 528.235 170.6 527.657C170.062 527.078 169.644 526.399 169.368 525.658C169.093 524.917 168.967 524.129 168.997 523.339C169.026 522.549 169.211 521.773 169.541 521.055C169.869 520.335 170.335 519.688 170.913 519.15C171.491 518.611 172.17 518.192 172.91 517.917C173.65 517.642 174.437 517.515 175.226 517.545C176.015 517.574 176.791 517.76 177.508 518.09C180.532 519.476 181.88 523.065 180.469 526.066C179.457 528.27 177.279 529.595 174.997 529.592C174.174 529.591 173.325 529.403 172.529 529.03L172.502 529.03ZM128.022 508.692C127.304 508.364 126.657 507.897 126.119 507.319C125.582 506.74 125.163 506.061 124.888 505.32C124.613 504.579 124.487 503.791 124.516 503.001C124.546 502.211 124.731 501.435 125.061 500.717C125.389 499.997 125.855 499.35 126.433 498.812C127.011 498.273 127.689 497.854 128.43 497.579C129.17 497.304 129.957 497.177 130.746 497.207C131.535 497.236 132.31 497.422 133.027 497.752C136.051 499.138 137.373 502.701 135.989 505.728C135.326 507.179 134.115 508.309 132.622 508.87C131.129 509.43 129.475 509.376 128.022 508.719L128.022 508.692ZM83.5681 488.354C82.8497 488.026 82.2032 487.559 81.6654 486.981C81.1276 486.402 80.7092 485.723 80.4341 484.982C80.159 484.241 80.0326 483.453 80.0623 482.663C80.092 481.873 80.277 481.097 80.6069 480.379C80.9346 479.66 81.4009 479.012 81.979 478.474C82.557 477.935 83.2356 477.516 83.9756 477.241C84.7157 476.966 85.5028 476.839 86.2918 476.869C87.0808 476.899 87.8562 477.084 88.5735 477.414C91.5972 478.8 92.9192 482.363 91.5347 485.39C90.5229 487.62 88.3447 488.919 86.0621 488.916C85.2393 488.915 84.3903 488.728 83.568 488.381L83.5681 488.354ZM39.1141 468.016C38.0338 467.521 37.1245 466.716 36.5012 465.703C35.8779 464.69 35.5686 463.514 35.6124 462.326C35.6563 461.137 36.0513 459.987 36.7475 459.023C37.4437 458.059 38.4098 457.323 39.5237 456.909C40.6376 456.494 41.8493 456.42 43.0055 456.694C44.1618 456.969 45.2106 457.581 46.0195 458.453C46.8284 459.324 47.3609 460.417 47.5498 461.591C47.7387 462.766 47.5755 463.97 47.0808 465.052C46.0956 467.256 43.8907 468.581 41.6082 468.578C40.7589 468.577 39.9364 468.39 39.1141 468.043L39.1141 468.016ZM-5.33975 447.652C-6.05807 447.324 -6.70466 446.857 -7.24243 446.278C-7.78023 445.7 -8.19864 445.02 -8.47373 444.279C-8.74882 443.538 -8.87516 442.75 -8.84551 441.961C-8.81586 441.171 -8.6308 440.394 -8.30095 439.676C-7.97545 438.955 -7.51039 438.306 -6.9327 437.766C-6.355 437.226 -5.67612 436.806 -4.9353 436.53C-4.19447 436.255 -3.40641 436.129 -2.61667 436.16C-1.82693 436.191 -1.05122 436.378 -0.334332 436.712C2.68938 438.098 4.01135 441.66 2.62686 444.687C1.64167 446.891 -0.563154 448.217 -2.84568 448.214C-3.695 448.212 -4.54409 448.052 -5.33979 447.679L-5.33975 447.652ZM-49.7937 427.314C-50.5139 426.988 -51.1624 426.523 -51.7018 425.944C-52.2411 425.366 -52.6606 424.686 -52.936 423.945C-53.2114 423.203 -53.3371 422.414 -53.306 421.623C-53.275 420.833 -53.0876 420.056 -52.7549 419.338C-52.4271 418.619 -51.9609 417.972 -51.3828 417.433C-50.8047 416.895 -50.1262 416.476 -49.3861 416.201C-48.646 415.925 -47.859 415.799 -47.07 415.829C-46.281 415.858 -45.5056 416.043 -44.7883 416.374C-41.7645 417.76 -40.4426 421.322 -41.8271 424.349C-42.8388 426.553 -45.0171 427.879 -47.2996 427.876C-48.1224 427.874 -48.9714 427.687 -49.7672 427.341L-49.7937 427.314ZM-94.2741 406.95C-94.9924 406.621 -95.639 406.155 -96.1768 405.576C-96.7146 404.997 -97.133 404.318 -97.4081 403.577C-97.6832 402.836 -97.8095 402.048 -97.7799 401.258C-97.7502 400.468 -97.5652 399.692 -97.2353 398.974C-96.9076 398.255 -96.4413 397.607 -95.8632 397.069C-95.2851 396.53 -94.6066 396.112 -93.8666 395.836C-93.1265 395.561 -92.3394 395.434 -91.5504 395.464C-90.7614 395.494 -89.986 395.679 -89.2687 396.009C-86.245 397.395 -84.923 400.958 -86.3075 403.985C-87.3192 406.189 -89.4975 407.514 -91.78 407.511C-92.6028 407.51 -93.4519 407.323 -94.2741 406.95ZM368.639 623.535C367.004 622.972 365.659 621.781 364.899 620.226C364.14 618.67 364.029 616.876 364.59 615.239C364.867 614.429 365.299 613.682 365.864 613.041C366.429 612.399 367.114 611.875 367.881 611.498C368.649 611.122 369.482 610.9 370.335 610.847C371.187 610.793 372.042 610.908 372.85 611.185C376.246 612.359 378.072 616.082 376.899 619.481C376.459 620.772 375.625 621.892 374.514 622.682C373.403 623.472 372.072 623.892 370.709 623.883C370.019 623.882 369.302 623.775 368.613 623.535L368.639 623.535ZM322.374 607.738C320.74 607.172 319.397 605.982 318.638 604.427C317.879 602.872 317.767 601.08 318.325 599.442C318.601 598.632 319.034 597.886 319.599 597.244C320.164 596.602 320.849 596.078 321.616 595.701C322.383 595.325 323.217 595.104 324.07 595.05C324.922 594.996 325.777 595.111 326.585 595.388C330.007 596.562 331.833 600.285 330.661 603.684C330.094 605.318 328.904 606.661 327.352 607.421C325.799 608.18 324.01 608.294 322.374 607.738ZM276.109 591.941C274.472 591.378 273.125 590.189 272.361 588.635C271.598 587.08 271.48 585.286 272.033 583.645C272.628 582.05 273.821 580.75 275.359 580.022C276.896 579.295 278.657 579.197 280.265 579.75C281.874 580.304 283.203 581.464 283.97 582.984C284.736 584.504 284.879 586.263 284.369 587.888C283.926 589.177 283.09 590.295 281.98 591.084C280.87 591.874 279.54 592.295 278.179 592.29C277.488 592.289 276.772 592.181 276.082 591.941L276.109 591.941ZM229.844 576.118C228.211 575.559 226.868 574.373 226.108 572.823C225.349 571.272 225.236 569.482 225.795 567.848C226.353 566.214 227.537 564.869 229.086 564.109C230.635 563.348 232.423 563.236 234.055 563.795C237.477 564.969 239.276 568.665 238.104 572.064C237.672 573.358 236.844 574.482 235.737 575.277C234.631 576.072 233.302 576.497 231.94 576.493C231.25 576.492 230.533 576.385 229.844 576.118ZM183.578 560.321C182.766 560.045 182.017 559.611 181.372 559.044C180.728 558.477 180.202 557.789 179.823 557.019C179.445 556.248 179.222 555.41 179.167 554.554C179.112 553.697 179.226 552.837 179.503 552.025C180.068 550.389 181.257 549.044 182.81 548.285C184.363 547.525 186.154 547.412 187.79 547.971C188.598 548.248 189.344 548.681 189.985 549.247C190.626 549.812 191.15 550.498 191.526 551.266C191.902 552.034 192.123 552.869 192.176 553.722C192.23 554.576 192.115 555.432 191.839 556.241C191.401 557.536 190.568 558.66 189.457 559.455C188.346 560.25 187.014 560.675 185.648 560.669C184.958 560.668 184.242 560.561 183.552 560.321L183.578 560.321ZM137.313 544.498C136.097 544.081 135.031 543.312 134.251 542.288C133.471 541.265 133.011 540.033 132.93 538.748C132.85 537.463 133.151 536.183 133.797 535.07C134.442 533.957 135.403 533.06 136.558 532.493C137.713 531.927 139.009 531.715 140.284 531.886C141.558 532.057 142.753 532.603 143.718 533.454C144.683 534.305 145.375 535.423 145.705 536.667C146.035 537.912 145.989 539.226 145.573 540.444C145.142 541.737 144.314 542.862 143.207 543.657C142.1 544.452 140.771 544.877 139.409 544.873C138.719 544.872 138.003 544.764 137.313 544.498ZM91.0479 528.701C87.6258 527.527 85.7997 523.831 86.999 520.431C87.5574 518.797 88.7414 517.452 90.2905 516.692C91.8395 515.932 93.6268 515.819 95.2591 516.378C96.8914 516.937 98.235 518.122 98.9943 519.673C99.7536 521.224 99.8665 523.013 99.3081 524.647C98.8707 525.942 98.0376 527.067 96.9266 527.862C95.8156 528.656 94.4831 529.081 93.1176 529.076C92.4275 529.075 91.7111 528.968 91.0213 528.727L91.0479 528.701ZM44.7827 512.904C43.9743 512.628 43.2282 512.194 42.5872 511.629C41.9462 511.064 41.4227 510.377 41.0466 509.609C40.6706 508.841 40.4495 508.007 40.3958 507.153C40.3421 506.3 40.4569 505.444 40.7337 504.635C41.0079 503.824 41.4395 503.075 42.0037 502.432C42.568 501.789 43.2537 501.264 44.0214 500.887C44.7891 500.511 45.6237 500.29 46.4771 500.237C47.3304 500.184 48.1858 500.301 48.9939 500.581C52.416 501.755 54.2155 505.451 53.0428 508.851C52.6101 510.141 51.781 511.262 50.674 512.052C49.567 512.843 48.2387 513.263 46.8789 513.253C46.1889 513.252 45.4724 513.144 44.7827 512.904ZM-1.48254 497.081C-2.29092 496.804 -3.03695 496.371 -3.67799 495.806C-4.31904 495.24 -4.84253 494.554 -5.21855 493.786C-5.59456 493.018 -5.81573 492.183 -5.86942 491.33C-5.92311 490.476 -5.80828 489.62 -5.53149 488.811C-4.96666 487.176 -3.77749 485.831 -2.22438 485.071C-0.671257 484.311 1.11928 484.199 2.7552 484.758C3.5636 485.034 4.30962 485.468 4.95067 486.033C5.59171 486.598 6.11518 487.285 6.4912 488.053C6.86722 488.82 7.08839 489.655 7.14209 490.509C7.19579 491.362 7.08095 492.218 6.80414 493.027C6.37003 494.322 5.53691 495.446 4.42456 496.237C3.31224 497.028 1.97799 497.445 0.613723 497.429C-0.0763549 497.428 -0.7928 497.321 -1.48254 497.081ZM-47.7478 481.284C-48.5562 481.007 -49.3022 480.574 -49.9432 480.009C-50.5843 479.443 -51.1078 478.757 -51.4838 477.989C-51.8598 477.221 -52.081 476.387 -52.1347 475.533C-52.1884 474.679 -52.0735 473.824 -51.7967 473.014C-51.5226 472.204 -51.0909 471.455 -50.5267 470.812C-49.9625 470.169 -49.2767 469.644 -48.509 469.267C-47.7413 468.89 -46.9067 468.669 -46.0534 468.617C-45.2 468.564 -44.3447 468.681 -43.5366 468.961C-42.7282 469.237 -41.9822 469.671 -41.3411 470.236C-40.7001 470.801 -40.1766 471.488 -39.8006 472.256C-39.4246 473.024 -39.2034 473.858 -39.1497 474.712C-39.096 475.565 -39.2108 476.421 -39.4876 477.23C-39.9278 478.522 -40.7624 479.641 -41.8734 480.431C-42.9843 481.221 -44.3154 481.642 -45.6781 481.632C-46.3681 481.631 -47.0846 481.524 -47.7743 481.284L-47.7478 481.284ZM-94.013 465.487C-94.8214 465.211 -95.5674 464.777 -96.2085 464.212C-96.8495 463.647 -97.373 462.96 -97.749 462.192C-98.125 461.424 -98.3462 460.59 -98.3999 459.736C-98.4536 458.883 -98.3388 458.027 -98.062 457.218C-97.7858 456.405 -97.3524 455.654 -96.7864 455.009C-96.2203 454.364 -95.5329 453.837 -94.7633 453.458C-93.9937 453.079 -93.157 452.856 -92.3011 452.801C-91.4453 452.746 -90.5869 452.86 -89.7753 453.138C-86.3797 454.312 -84.5537 458.034 -85.7263 461.434C-86.1696 462.723 -87.005 463.841 -88.1152 464.63C-89.2255 465.42 -90.5549 465.841 -91.9168 465.836C-92.6068 465.835 -93.3233 465.727 -94.013 465.487ZM387.014 636.608C385.198 636.179 383.627 635.045 382.646 633.457C381.666 631.868 381.355 629.955 381.784 628.137C382.212 626.32 383.344 624.747 384.931 623.765C386.518 622.783 388.429 622.472 390.245 622.901C391.914 623.307 393.378 624.31 394.36 625.721C395.342 627.132 395.775 628.854 395.576 630.563C395.378 632.271 394.563 633.848 393.284 634.996C392.005 636.144 390.35 636.784 388.632 636.796C388.102 636.795 387.544 636.741 387.014 636.608ZM339.441 625.326C337.631 624.895 336.065 623.762 335.087 622.177C334.109 620.592 333.799 618.683 334.225 616.869C334.657 615.052 335.793 613.481 337.382 612.502C338.971 611.522 340.884 611.215 342.699 611.647C346.467 612.529 348.823 616.332 347.916 620.104C347.482 621.915 346.35 623.481 344.768 624.459C343.185 625.438 341.28 625.75 339.468 625.326L339.441 625.326ZM291.869 614.045C290.057 613.607 288.491 612.469 287.514 610.879C286.537 609.29 286.227 607.378 286.653 605.561C287.09 603.747 288.227 602.179 289.814 601.201C291.402 600.223 293.312 599.913 295.127 600.339C296.939 600.777 298.505 601.914 299.482 603.504C300.459 605.093 300.769 607.005 300.343 608.822C299.909 610.638 298.773 612.208 297.184 613.187C295.596 614.166 293.684 614.474 291.869 614.045ZM244.297 602.763C242.485 602.325 240.919 601.187 239.942 599.598C238.965 598.009 238.655 596.097 239.08 594.28C239.513 592.462 240.649 590.891 242.238 589.912C243.827 588.933 245.739 588.625 247.555 589.057C251.322 589.966 253.652 593.742 252.771 597.514C252.405 599.058 251.529 600.433 250.285 601.415C249.04 602.397 247.5 602.929 245.916 602.925C245.385 602.924 244.828 602.87 244.297 602.737L244.297 602.763ZM196.725 591.482C195.827 591.271 194.979 590.884 194.231 590.345C193.482 589.805 192.848 589.123 192.363 588.337C191.878 587.552 191.553 586.678 191.407 585.766C191.26 584.855 191.295 583.923 191.508 583.025C191.719 582.126 192.105 581.277 192.644 580.528C193.183 579.779 193.864 579.143 194.649 578.658C195.434 578.173 196.307 577.847 197.217 577.701C198.128 577.554 199.059 577.588 199.956 577.802C203.723 578.684 206.08 582.488 205.172 586.259C204.812 587.801 203.941 589.176 202.701 590.158C201.461 591.141 199.925 591.674 198.343 591.67C197.813 591.669 197.255 591.616 196.725 591.482ZM149.152 580.2C147.337 579.771 145.766 578.638 144.785 577.05C143.804 575.461 143.494 573.547 143.923 571.73C144.351 569.912 145.483 568.34 147.07 567.358C148.657 566.376 150.568 566.065 152.384 566.494C154.053 566.9 155.517 567.903 156.499 569.314C157.481 570.725 157.914 572.447 157.715 574.155C157.517 575.864 156.702 577.441 155.422 578.589C154.143 579.737 152.489 580.377 150.771 580.389C150.24 580.388 149.683 580.334 149.152 580.2ZM101.58 568.919C100.684 568.707 99.8377 568.32 99.0911 567.779C98.3445 567.239 97.7119 566.556 97.2296 565.77C96.7474 564.984 96.425 564.111 96.2809 563.2C96.1369 562.289 96.174 561.358 96.3903 560.462C96.6011 559.563 96.9871 558.714 97.5261 557.965C98.0651 557.216 98.7465 556.58 99.5313 556.095C100.316 555.61 101.189 555.285 102.099 555.138C103.01 554.991 103.941 555.025 104.838 555.239C108.605 556.122 110.962 559.925 110.054 563.696C109.621 565.508 108.489 567.073 106.906 568.052C105.324 569.03 103.418 569.342 101.607 568.919L101.58 568.919ZM54.008 557.638C52.1958 557.199 50.6302 556.062 49.6529 554.472C48.6757 552.883 48.366 550.971 48.7915 549.154C49.2291 547.339 50.3657 545.772 51.9533 544.794C53.5409 543.815 55.4506 543.505 57.2656 543.931C58.9351 544.337 60.3988 545.34 61.3809 546.751C62.3629 548.162 62.7956 549.884 62.5973 551.592C62.3991 553.301 61.5836 554.878 60.3045 556.026C59.0255 557.174 57.3712 557.814 55.6533 557.826C55.1224 557.825 54.5651 557.771 54.0345 557.638L54.008 557.638ZM6.43573 546.356C5.53781 546.145 4.69032 545.759 3.94186 545.219C3.19339 544.679 2.55868 543.997 2.07405 543.211C1.58945 542.426 1.2645 541.552 1.11781 540.64C0.97112 539.729 1.00558 538.797 1.21923 537.899C1.65178 536.082 2.7874 534.511 4.37643 533.531C5.96549 532.552 7.87793 532.244 9.69337 532.676C13.461 533.559 15.7911 537.362 14.9098 541.16C14.4754 542.976 13.3394 544.546 11.7509 545.525C10.1624 546.504 8.251 546.812 6.43569 546.383L6.43573 546.356ZM-41.1365 535.075C-42.9517 534.642 -44.5208 533.505 -45.499 531.914C-46.4772 530.323 -46.7843 528.408 -46.353 526.591C-45.9154 524.777 -44.7788 523.209 -43.1912 522.231C-41.6036 521.252 -39.6939 520.942 -37.8788 521.368C-34.1113 522.277 -31.7811 526.054 -32.6889 529.852C-33.0487 531.394 -33.9197 532.768 -35.1599 533.751C-36.4001 534.734 -37.9362 535.267 -39.5178 535.263C-40.0486 535.262 -40.6059 535.208 -41.1365 535.075ZM-88.7087 523.793C-90.5239 523.36 -92.093 522.223 -93.0712 520.632C-94.0494 519.041 -94.3566 517.127 -93.9252 515.309C-93.7143 514.41 -93.3284 513.562 -92.7894 512.813C-92.2504 512.063 -91.5689 511.428 -90.7842 510.943C-89.9994 510.457 -89.1267 510.132 -88.2161 509.985C-87.3055 509.838 -86.3749 509.873 -85.4776 510.087C-81.7101 510.996 -79.3533 514.772 -80.2611 518.571C-80.6209 520.113 -81.492 521.487 -82.7321 522.47C-83.9723 523.452 -85.5084 523.985 -87.09 523.981C-87.6208 523.981 -88.1781 523.927 -88.7087 523.793ZM405.468 649.628C403.49 649.338 401.707 648.279 400.507 646.679C399.306 645.08 398.785 643.071 399.057 641.089C399.342 639.11 400.401 637.325 402 636.126C403.599 634.928 405.608 634.414 407.586 634.698C409.563 634.983 411.346 636.043 412.543 637.644C413.74 639.245 414.253 641.256 413.97 643.236C413.716 645.036 412.82 646.683 411.447 647.873C410.075 649.063 408.318 649.715 406.503 649.709C406.158 649.708 405.813 649.708 405.441 649.654L405.468 649.628ZM357.066 642.729C355.089 642.444 353.306 641.384 352.109 639.783C350.912 638.182 350.399 636.17 350.682 634.191C350.819 633.211 351.148 632.268 351.65 631.416C352.152 630.564 352.817 629.82 353.607 629.226C354.397 628.632 355.296 628.2 356.253 627.956C357.211 627.711 358.207 627.658 359.185 627.799C363.298 628.363 366.159 632.193 365.569 636.311C365.315 638.111 364.419 639.758 363.046 640.948C361.673 642.138 359.917 642.79 358.101 642.784C357.756 642.784 357.411 642.783 357.04 642.729L357.066 642.729ZM308.665 635.831C306.688 635.545 304.905 634.485 303.708 632.884C302.511 631.283 301.998 629.272 302.281 627.292C302.418 626.313 302.747 625.37 303.248 624.518C303.75 623.666 304.415 622.922 305.205 622.328C305.995 621.734 306.895 621.302 307.852 621.057C308.809 620.812 309.805 620.759 310.783 620.901C314.896 621.465 317.757 625.295 317.194 629.44C316.936 631.238 316.039 632.882 314.667 634.071C313.295 635.26 311.541 635.914 309.727 635.912C309.382 635.912 309.037 635.911 308.665 635.858L308.665 635.831ZM260.264 628.933C259.282 628.795 258.337 628.465 257.483 627.961C256.629 627.457 255.883 626.79 255.287 625.996C254.691 625.203 254.258 624.3 254.012 623.338C253.766 622.377 253.712 621.376 253.853 620.394C254.143 618.415 255.201 616.63 256.799 615.428C258.396 614.226 260.402 613.704 262.382 613.976C264.359 614.262 266.142 615.322 267.339 616.923C268.536 618.524 269.049 620.535 268.766 622.515C268.627 623.496 268.296 624.44 267.792 625.293C267.288 626.146 266.621 626.891 265.828 627.484C265.036 628.078 264.134 628.51 263.174 628.754C262.215 628.998 261.217 629.049 260.237 628.906L260.264 628.933ZM211.862 622.034C207.749 621.471 204.888 617.64 205.478 613.496C205.762 611.519 206.815 609.734 208.408 608.532C210.001 607.329 212.004 606.807 213.981 607.078C215.958 607.363 217.741 608.423 218.938 610.024C220.135 611.625 220.648 613.637 220.365 615.616C220.226 616.598 219.895 617.542 219.391 618.395C218.887 619.247 218.219 619.992 217.427 620.586C216.634 621.18 215.732 621.611 214.773 621.855C213.814 622.099 212.815 622.151 211.836 622.008L211.862 622.034ZM163.461 615.136C162.483 614.999 161.541 614.67 160.69 614.168C159.839 613.665 159.095 612.999 158.502 612.208C157.909 611.417 157.478 610.517 157.233 609.559C156.989 608.6 156.935 607.603 157.077 606.624C157.213 605.643 157.541 604.699 158.042 603.845C158.543 602.991 159.208 602.245 159.998 601.649C160.788 601.052 161.687 600.618 162.645 600.37C163.603 600.123 164.6 600.067 165.579 600.206C169.692 600.796 172.553 604.627 171.99 608.745C171.705 610.724 170.646 612.509 169.047 613.707C167.448 614.906 165.439 615.42 163.461 615.136ZM115.06 608.238C114.08 608.098 113.138 607.766 112.286 607.261C111.435 606.756 110.691 606.088 110.098 605.294C109.505 604.501 109.074 603.599 108.83 602.639C108.586 601.679 108.534 600.68 108.676 599.699C109.265 595.581 113.092 592.691 117.178 593.281C121.291 593.871 124.179 597.702 123.589 601.82C123.45 602.804 123.118 603.75 122.612 604.605C122.107 605.46 121.437 606.206 120.641 606.8C119.846 607.394 118.941 607.825 117.978 608.067C117.016 608.309 116.015 608.358 115.033 608.211L115.06 608.238ZM66.6851 601.34C64.7082 601.049 62.9255 599.99 61.725 598.391C60.5245 596.792 60.0031 594.783 60.2743 592.801C60.5599 590.822 61.6185 589.037 63.2177 587.838C64.8169 586.64 66.8259 586.126 68.8033 586.409C72.9163 587 75.7773 590.804 75.1875 594.948C74.9335 596.748 74.0375 598.395 72.6648 599.585C71.2922 600.775 69.5357 601.427 67.7201 601.421C67.375 601.42 67.03 601.42 66.6585 601.366L66.6851 601.34ZM18.2838 594.441C16.3067 594.155 14.5238 593.096 13.3268 591.495C12.1297 589.894 11.6164 587.882 11.8996 585.903C12.0381 584.924 12.368 583.982 12.8704 583.131C13.3728 582.28 14.0378 581.536 14.8275 580.942C15.6171 580.349 16.5159 579.917 17.4724 579.671C18.4289 579.426 19.4244 579.371 20.402 579.511C24.515 580.075 27.376 583.905 26.8127 588.023C26.5546 589.821 25.6573 591.466 24.2856 592.655C22.9139 593.844 21.1598 594.497 19.3454 594.496C19.0003 594.495 18.6553 594.495 18.2838 594.441ZM-30.1175 587.543C-32.0946 587.257 -33.8775 586.197 -35.0745 584.596C-36.2716 582.995 -36.7849 580.984 -36.5017 579.004C-36.3632 578.025 -36.0333 577.084 -35.5309 576.232C-35.0285 575.381 -34.3635 574.638 -33.5738 574.044C-32.7842 573.45 -31.8854 573.018 -30.9289 572.773C-29.9724 572.527 -28.9769 572.473 -27.9993 572.613C-23.8863 573.177 -21.0253 577.007 -21.5886 581.151C-21.8467 582.949 -22.744 584.594 -24.1158 585.783C-25.4875 586.972 -27.2416 587.626 -29.056 587.624C-29.401 587.624 -29.7461 587.623 -30.1175 587.57L-30.1175 587.543ZM-78.5188 580.645C-82.6319 580.081 -85.4928 576.25 -84.903 572.106C-84.6163 570.13 -83.5624 568.348 -81.9703 567.146C-80.3782 565.944 -78.3766 565.42 -76.4006 565.688C-74.5214 565.966 -72.8164 566.944 -71.6266 568.426C-70.4368 569.909 -69.85 571.786 -69.9835 573.683C-70.1171 575.581 -70.9611 577.357 -72.3468 578.658C-73.7325 579.959 -75.5577 580.688 -77.4572 580.699C-77.8023 580.699 -78.1738 580.698 -78.5453 580.618L-78.5188 580.645ZM-126.894 573.746C-131.007 573.182 -133.868 569.352 -133.304 565.208C-133.015 563.228 -131.957 561.443 -130.359 560.241C-128.762 559.039 -126.755 558.517 -124.775 558.789C-122.798 559.075 -121.015 560.135 -119.818 561.736C-118.621 563.337 -118.108 565.348 -118.391 567.328C-118.53 568.309 -118.861 569.254 -119.365 570.106C-119.869 570.959 -120.537 571.704 -121.329 572.298C-122.122 572.892 -123.024 573.323 -123.983 573.567C-124.942 573.811 -125.941 573.863 -126.92 573.72L-126.894 573.746ZM423.948 662.568C421.847 662.412 419.89 661.436 418.5 659.85C417.11 658.264 416.397 656.196 416.515 654.089C416.633 651.982 417.572 650.006 419.13 648.586C420.688 647.165 422.741 646.414 424.847 646.494C426.976 646.613 428.971 647.574 430.392 649.166C431.813 650.758 432.545 652.849 432.426 654.981C432.31 657.04 431.41 658.976 429.913 660.392C428.415 661.808 426.433 662.597 424.373 662.595L423.922 662.595L423.948 662.568ZM375.143 659.814C373.014 659.695 371.02 658.733 369.598 657.142C368.177 655.55 367.445 653.459 367.564 651.327C367.683 649.193 368.642 647.194 370.232 645.766C371.821 644.339 373.91 643.601 376.042 643.713C378.171 643.833 380.165 644.794 381.587 646.386C383.008 647.977 383.739 650.069 383.62 652.2C383.504 654.259 382.605 656.196 381.107 657.612C379.61 659.028 377.628 659.816 375.568 659.815L375.116 659.814L375.143 659.814ZM326.311 657.087C324.209 656.931 322.253 655.955 320.863 654.369C319.473 652.783 318.76 650.715 318.877 648.608C318.995 646.501 319.934 644.525 321.493 643.105C323.051 641.684 325.104 640.933 327.21 641.013C329.339 641.132 331.333 642.094 332.755 643.685C334.176 645.277 334.907 647.368 334.789 649.5C334.674 651.555 333.779 653.488 332.287 654.904C330.794 656.319 328.818 657.11 326.762 657.114L326.311 657.114L326.311 657.087ZM277.506 654.36C275.404 654.204 273.448 653.228 272.057 651.642C270.667 650.056 269.954 647.988 270.072 645.881C270.19 643.774 271.129 641.798 272.687 640.378C274.246 638.957 276.299 638.206 278.405 638.285C282.863 638.531 286.255 642.336 286.01 646.773C285.889 648.83 284.989 650.764 283.492 652.179C281.995 653.594 280.015 654.384 277.957 654.387L277.506 654.387L277.506 654.36ZM228.674 651.633C226.545 651.513 224.55 650.552 223.129 648.96C221.708 647.369 220.976 645.277 221.095 643.146C221.213 641.011 222.172 639.011 223.762 637.584C225.351 636.157 227.441 635.419 229.573 635.532C231.702 635.651 233.696 636.613 235.117 638.204C236.538 639.796 237.27 641.887 237.151 644.019C237.039 646.08 236.142 648.019 234.643 649.435C233.144 650.852 231.16 651.639 229.098 651.633L228.647 651.633L228.674 651.633ZM179.868 648.879C178.28 648.79 176.754 648.232 175.483 647.275C174.211 646.318 173.252 645.005 172.727 643.502C172.201 641.999 172.132 640.373 172.529 638.831C172.926 637.289 173.771 635.899 174.957 634.838C176.143 633.777 177.616 633.091 179.191 632.868C180.766 632.646 182.372 632.895 183.805 633.586C185.238 634.277 186.435 635.378 187.243 636.749C188.051 638.121 188.435 639.702 188.346 641.292C188.231 643.347 187.336 645.28 185.844 646.696C184.352 648.111 182.375 648.902 180.319 648.906L179.868 648.906L179.868 648.879ZM131.036 646.152C128.935 645.996 126.978 645.02 125.588 643.434C124.198 641.848 123.485 639.779 123.603 637.673C123.721 635.566 124.66 633.59 126.218 632.17C127.776 630.749 129.829 629.998 131.935 630.077C134.064 630.197 136.059 631.158 137.48 632.75C138.901 634.342 139.633 636.433 139.514 638.565C139.398 640.624 138.498 642.56 137.001 643.976C135.503 645.392 133.521 646.18 131.461 646.179L131.01 646.178L131.036 646.152ZM82.2044 643.425C80.0754 643.305 78.081 642.344 76.6598 640.752C75.2386 639.161 74.507 637.069 74.6258 634.938C74.7489 632.805 75.7093 630.808 77.2974 629.382C78.8855 627.955 80.9726 627.215 83.1034 627.324C85.2324 627.443 87.2268 628.405 88.648 629.996C90.0692 631.588 90.8009 633.679 90.682 635.811C90.5717 637.867 89.678 639.803 88.1848 641.22C86.6916 642.636 84.7127 643.426 82.6557 643.425L82.2044 643.425ZM33.3991 640.671C31.2974 640.515 29.341 639.539 27.9508 637.953C26.5606 636.367 25.8477 634.299 25.9655 632.192C26.0833 630.085 27.0224 628.109 28.5807 626.689C30.139 625.268 32.192 624.517 34.298 624.596C36.427 624.716 38.4215 625.677 39.8426 627.269C41.2638 628.861 41.9955 630.952 41.8766 633.084C41.7604 635.143 40.8612 637.079 39.3636 638.495C37.866 639.911 35.8837 640.7 33.8237 640.698L33.3725 640.698L33.3991 640.671ZM-15.4329 637.944C-17.5345 637.788 -19.491 636.812 -20.8812 635.226C-22.2714 633.64 -22.9843 631.571 -22.8665 629.465C-22.7486 627.358 -21.8096 625.382 -20.2513 623.962C-18.6929 622.541 -16.6399 621.79 -14.534 621.869C-12.4049 621.989 -10.4105 622.95 -8.9893 624.542C-7.5681 626.133 -6.83648 628.225 -6.95532 630.357C-7.06562 632.413 -7.95937 634.349 -9.45254 635.765C-10.9457 637.182 -12.9246 637.971 -14.9817 637.971L-15.4329 637.97L-15.4329 637.944ZM-64.2382 635.217C-66.3673 635.097 -68.3617 634.136 -69.7829 632.544C-71.2041 630.953 -71.9357 628.861 -71.8169 626.729C-71.6938 624.597 -70.7334 622.6 -69.1453 621.174C-67.5572 619.747 -65.4701 619.007 -63.3393 619.116C-58.9073 619.388 -55.5155 623.166 -55.7607 627.603C-55.8769 629.662 -56.7761 631.598 -58.2737 633.014C-59.7713 634.43 -61.7536 635.219 -63.8136 635.217L-64.2648 635.217L-64.2382 635.217ZM-113.07 632.463C-115.172 632.307 -117.128 631.331 -118.518 629.745C-119.909 628.159 -120.622 626.09 -120.504 623.984C-120.386 621.877 -119.447 619.901 -117.889 618.481C-116.33 617.06 -114.277 616.309 -112.171 616.388C-110.042 616.508 -108.048 617.469 -106.627 619.061C-105.205 620.653 -104.474 622.744 -104.593 624.876C-104.703 626.932 -105.597 628.868 -107.09 630.285C-108.583 631.701 -110.562 632.491 -112.619 632.49L-113.07 632.49L-113.07 632.463ZM-103.875 679.481C-103.902 678.358 -103.707 677.24 -103.302 676.191C-102.897 675.143 -102.29 674.184 -101.515 673.371C-100.739 672.558 -99.8116 671.905 -98.7844 671.451C-97.7572 670.997 -96.6507 670.75 -95.5282 670.725C-94.4056 670.698 -93.2888 670.893 -92.2415 671.298C-91.1943 671.703 -90.2371 672.312 -89.4247 673.088C-88.6124 673.864 -87.9608 674.792 -87.5073 675.821C-87.0537 676.849 -86.8071 677.957 -86.7816 679.081C-86.7546 680.205 -86.9491 681.323 -87.3541 682.371C-87.7591 683.42 -88.3665 684.378 -89.1417 685.191C-89.9169 686.005 -90.8446 686.657 -91.8718 687.111C-92.899 687.565 -94.0055 687.812 -95.1281 687.837L-95.3404 687.837C-99.9585 687.831 -103.775 684.132 -103.875 679.481ZM-55.0107 678.356C-55.0376 677.232 -54.8431 676.114 -54.4381 675.065C-54.0331 674.017 -53.4257 673.059 -52.6505 672.245C-51.8753 671.432 -50.9476 670.78 -49.9204 670.326C-48.8932 669.872 -47.7867 669.625 -46.6642 669.599C-45.5416 669.572 -44.4248 669.767 -43.3775 670.172C-42.3303 670.578 -41.3731 671.186 -40.5607 671.962C-39.7484 672.738 -39.0968 673.667 -38.6433 674.695C-38.1897 675.724 -37.9431 676.831 -37.9176 677.955C-37.8906 679.079 -38.0851 680.197 -38.4901 681.246C-38.8951 682.294 -39.5025 683.252 -40.2777 684.066C-41.0529 684.879 -41.9806 685.531 -43.0078 685.985C-44.035 686.439 -45.1415 686.686 -46.264 686.712L-46.4764 686.712C-51.0945 686.705 -54.9112 683.006 -55.0107 678.356ZM-6.12012 677.23C-6.24609 672.527 -2.49816 668.6 2.22636 668.473C4.49087 668.428 6.68139 669.281 8.32 670.847C9.95859 672.412 10.9123 674.563 10.973 676.83C11.0232 679.098 10.1727 681.294 8.60805 682.935C7.04337 684.577 4.89225 685.53 2.62649 685.586L2.41417 685.586C-2.20399 685.579 -6.02064 681.88 -6.12009 677.204L-6.12012 677.23ZM42.7439 676.105C42.618 671.375 46.3659 667.474 51.0904 667.348C53.3563 667.298 55.5496 668.149 57.1893 669.715C58.8289 671.282 59.7812 673.436 59.837 675.704C59.8872 677.972 59.0367 680.168 57.4721 681.81C55.9074 683.451 53.7563 684.405 51.4905 684.46L51.2782 684.46C46.66 684.454 42.8434 680.755 42.7439 676.078L42.7439 676.105ZM91.6079 674.979C91.5577 672.71 92.4081 670.515 93.9728 668.873C95.5375 667.231 97.6886 666.278 99.9544 666.222C102.22 666.172 104.414 667.023 106.053 668.59C107.693 670.156 108.645 672.31 108.701 674.578C108.73 675.703 108.537 676.822 108.133 677.871C107.729 678.92 107.121 679.879 106.346 680.693C105.57 681.507 104.641 682.159 103.613 682.612C102.585 683.066 101.478 683.311 100.354 683.335L100.142 683.335C95.524 683.328 91.7074 679.629 91.6079 674.979ZM140.472 673.853C140.422 671.585 141.272 669.389 142.837 667.747C144.402 666.106 146.553 665.152 148.818 665.096C153.543 664.97 157.439 668.723 157.565 673.453C157.605 675.722 156.747 677.916 155.179 679.556C153.611 681.196 151.459 682.15 149.192 682.209L148.98 682.209C144.361 682.202 140.571 678.503 140.445 673.853L140.472 673.853ZM189.336 672.728C189.309 671.604 189.503 670.486 189.908 669.437C190.313 668.389 190.921 667.43 191.696 666.617C192.471 665.804 193.399 665.151 194.426 664.697C195.453 664.243 196.56 663.996 197.682 663.971C199.947 663.925 202.137 664.779 203.776 666.344C205.415 667.909 206.368 670.06 206.429 672.327C206.478 674.599 205.623 676.798 204.053 678.44C202.483 680.082 200.326 681.033 198.056 681.084L197.844 681.083C193.225 681.077 189.435 677.378 189.309 672.727L189.336 672.728ZM238.2 671.602C238.173 670.478 238.368 669.36 238.772 668.311C239.177 667.263 239.785 666.305 240.56 665.491C241.335 664.678 242.263 664.026 243.29 663.572C244.317 663.118 245.424 662.871 246.546 662.845C248.812 662.795 251.006 663.646 252.645 665.213C254.285 666.779 255.237 668.933 255.293 671.201C255.343 673.47 254.492 675.665 252.927 677.306C251.363 678.948 249.212 679.901 246.947 679.958L246.734 679.958C242.116 679.951 238.299 676.252 238.2 671.602ZM287.064 670.476C287.037 669.352 287.231 668.234 287.636 667.186C288.041 666.137 288.649 665.179 289.424 664.366C290.199 663.552 291.127 662.9 292.154 662.446C293.181 661.992 294.288 661.745 295.41 661.72C296.533 661.692 297.65 661.887 298.697 662.293C299.744 662.698 300.702 663.306 301.514 664.082C302.326 664.858 302.978 665.787 303.431 666.816C303.885 667.844 304.131 668.952 304.157 670.076C304.184 671.199 303.989 672.317 303.584 673.366C303.179 674.414 302.572 675.373 301.797 676.186C301.022 676.999 300.094 677.652 299.067 678.106C298.04 678.56 296.933 678.807 295.811 678.832L295.598 678.832C290.98 678.825 287.163 675.126 287.064 670.476ZM335.928 669.351C335.901 668.227 336.096 667.109 336.5 666.06C336.905 665.012 337.513 664.053 338.288 663.24C339.063 662.427 339.991 661.774 341.018 661.32C342.045 660.866 343.152 660.619 344.274 660.594C345.397 660.567 346.514 660.762 347.561 661.167C348.608 661.572 349.565 662.181 350.378 662.957C351.19 663.733 351.842 664.662 352.295 665.69C352.749 666.718 352.995 667.826 353.021 668.95C353.048 670.074 352.853 671.192 352.448 672.24C352.043 673.289 351.436 674.247 350.661 675.06C349.886 675.874 348.958 676.526 347.931 676.98C346.904 677.434 345.797 677.681 344.674 677.707L344.462 677.706C339.844 677.7 336.027 674.001 335.928 669.351ZM384.792 668.225C384.747 665.958 385.599 663.765 387.162 662.124C388.726 660.484 390.874 659.529 393.138 659.468C394.261 659.441 395.378 659.637 396.425 660.042C397.472 660.448 398.429 661.056 399.241 661.832C400.053 662.608 400.705 663.536 401.159 664.565C401.612 665.593 401.859 666.7 401.885 667.824C401.935 670.093 401.085 672.289 399.52 673.93C397.955 675.572 395.804 676.525 393.538 676.581L393.326 676.581C388.708 676.574 384.891 672.875 384.792 668.198L384.792 668.225ZM433.656 667.126C433.63 666 433.826 664.88 434.232 663.83C434.639 662.78 435.249 661.821 436.027 661.008C436.805 660.194 437.735 659.542 438.765 659.09C439.795 658.637 440.904 658.392 442.029 658.369C444.293 658.324 446.484 659.177 448.123 660.742C449.761 662.308 450.715 664.458 450.776 666.725C450.802 667.849 450.608 668.967 450.203 670.016C449.798 671.064 449.191 672.022 448.415 672.836C447.64 673.649 446.712 674.301 445.685 674.755C444.658 675.209 443.552 675.456 442.429 675.482L442.217 675.482C437.599 675.475 433.782 671.776 433.682 667.126L433.656 667.126ZM-132.833 735.958C-132.947 734.771 -132.826 733.573 -132.478 732.433C-132.129 731.293 -131.56 730.233 -130.802 729.314C-130.044 728.394 -129.112 727.633 -128.06 727.075C-127.008 726.516 -125.856 726.171 -124.67 726.058C-123.485 725.944 -122.288 726.064 -121.15 726.413C-120.011 726.762 -118.952 727.332 -118.034 728.091C-117.115 728.85 -116.355 729.783 -115.797 730.837C-115.239 731.89 -114.894 733.043 -114.782 734.23C-114.311 739.226 -117.98 743.632 -122.971 744.13C-123.263 744.156 -123.555 744.155 -123.847 744.155C-128.465 744.148 -132.388 740.635 -132.859 735.958L-132.833 735.958ZM-84.1758 731.324C-84.2902 730.138 -84.1697 728.94 -83.8212 727.8C-83.4728 726.66 -82.9032 725.6 -82.1451 724.68C-81.3869 723.761 -80.4551 723 -79.403 722.441C-78.3509 721.883 -77.1991 721.537 -76.0134 721.425C-71.023 720.954 -66.5959 724.627 -66.1253 729.623C-65.6547 734.593 -69.3238 739.025 -74.2877 739.523C-74.6062 739.522 -74.8982 739.548 -75.1901 739.548C-79.8083 739.541 -83.7313 736.028 -84.2024 731.351L-84.1758 731.324ZM-35.5191 726.691C-35.7451 724.295 -35.0126 721.908 -33.4824 720.052C-31.9522 718.196 -29.7493 717.023 -27.3568 716.792C-24.9637 716.565 -22.5787 717.299 -20.725 718.83C-18.8713 720.362 -17.7002 722.568 -17.4686 724.963C-17.2373 727.356 -17.9643 729.743 -19.4899 731.599C-21.0154 733.455 -23.2147 734.629 -25.6044 734.863C-25.9229 734.862 -26.2149 734.888 -26.5068 734.888C-31.125 734.881 -35.0481 731.368 -35.4926 726.691L-35.5191 726.691ZM13.1377 722.031C12.9153 719.636 13.649 717.25 15.1785 715.395C16.708 713.54 18.9089 712.367 21.3 712.132C23.693 711.905 26.078 712.639 27.9317 714.17C29.7855 715.702 30.9566 717.908 31.1882 720.303C31.4141 722.699 30.6817 725.087 29.1515 726.943C27.6213 728.798 25.4183 729.971 23.0258 730.203C22.7073 730.202 22.4153 730.228 22.1234 730.228C17.5052 730.221 13.5821 726.708 13.1111 722.004L13.1377 722.031ZM61.7943 717.398C61.3237 712.428 64.9928 707.996 69.9567 707.498C71.1421 707.384 72.3384 707.504 73.4772 707.853C74.616 708.202 75.6749 708.772 76.5934 709.531C77.5118 710.29 78.2717 711.223 78.8296 712.276C79.3875 713.33 79.7325 714.483 79.8449 715.67C80.0708 718.066 79.3384 720.453 77.8082 722.309C76.278 724.165 74.075 725.337 71.6825 725.569C71.364 725.595 71.072 725.622 70.78 725.621C66.1619 725.615 62.2388 722.101 61.7678 717.398L61.7943 717.398ZM110.451 712.764C110.225 710.368 110.958 707.981 112.488 706.125C114.018 704.269 116.221 703.097 118.613 702.865C119.799 702.75 120.995 702.871 122.134 703.22C123.273 703.568 124.332 704.139 125.25 704.898C126.168 705.657 126.928 706.59 127.486 707.643C128.044 708.696 128.389 709.849 128.502 711.036C128.728 713.432 127.995 715.82 126.465 717.676C124.935 719.532 122.732 720.704 120.339 720.936C120.021 720.962 119.729 720.988 119.463 720.988C114.845 720.981 110.896 717.468 110.451 712.764ZM159.108 708.131C158.882 705.735 159.614 703.347 161.144 701.491C162.675 699.636 164.878 698.463 167.27 698.231C168.456 698.117 169.652 698.237 170.791 698.586C171.929 698.935 172.988 699.505 173.907 700.264C174.825 701.023 175.585 701.956 176.143 703.01C176.701 704.063 177.046 705.216 177.158 706.403C177.629 711.399 173.96 715.805 168.996 716.302C168.677 716.329 168.385 716.355 168.093 716.354C163.475 716.348 159.552 712.835 159.081 708.131L159.108 708.131ZM207.764 703.497C207.539 701.102 208.271 698.714 209.801 696.858C211.331 695.002 213.534 693.83 215.927 693.598C217.112 693.483 218.309 693.604 219.447 693.953C220.586 694.302 221.645 694.872 222.563 695.631C223.482 696.39 224.242 697.323 224.8 698.376C225.358 699.429 225.703 700.583 225.815 701.77C226.041 704.165 225.308 706.553 223.778 708.409C222.248 710.265 220.045 711.437 217.653 711.669C217.334 711.695 217.042 711.695 216.75 711.694C212.132 711.688 208.209 708.175 207.738 703.497L207.764 703.497ZM256.421 698.864C256.195 696.468 256.928 694.08 258.458 692.225C259.988 690.369 262.191 689.196 264.584 688.964C266.977 688.738 269.362 689.471 271.215 691.003C273.069 692.535 274.24 694.741 274.472 697.136C274.698 699.532 273.965 701.92 272.435 703.775C270.905 705.631 268.702 706.804 266.309 707.036C265.991 707.035 265.699 707.061 265.407 707.061C260.789 707.054 256.866 703.541 256.395 698.864L256.421 698.864ZM305.078 694.23C304.853 691.831 305.589 689.44 307.125 687.583C308.661 685.727 310.87 684.557 313.267 684.331C318.231 683.86 322.658 687.533 323.155 692.503C323.269 693.689 323.149 694.887 322.8 696.027C322.452 697.167 321.882 698.227 321.124 699.147C320.366 700.066 319.434 700.827 318.382 701.386C317.33 701.944 316.178 702.29 314.993 702.402C314.701 702.402 314.409 702.428 314.09 702.427C309.472 702.421 305.549 698.908 305.078 694.23ZM353.761 689.571C353.538 687.18 354.268 684.797 355.792 682.943C357.316 681.088 359.51 679.912 361.897 679.671C363.082 679.556 364.279 679.677 365.417 680.026C366.556 680.375 367.615 680.945 368.534 681.704C369.452 682.463 370.212 683.396 370.77 684.449C371.328 685.503 371.673 686.656 371.785 687.843C371.899 689.029 371.779 690.227 371.431 691.367C371.082 692.507 370.513 693.567 369.754 694.487C368.996 695.406 368.064 696.167 367.012 696.726C365.96 697.284 364.808 697.63 363.623 697.742C363.331 697.768 363.012 697.794 362.72 697.794C358.102 697.787 354.179 694.274 353.735 689.57L353.761 689.571ZM402.418 684.937C402.197 682.538 402.935 680.149 404.47 678.294C406.005 676.439 408.211 675.268 410.607 675.038C413 674.811 415.385 675.545 417.238 677.077C419.092 678.609 420.263 680.814 420.495 683.209C420.609 684.396 420.489 685.594 420.14 686.734C419.792 687.874 419.222 688.934 418.464 689.854C417.706 690.773 416.774 691.534 415.722 692.092C414.67 692.651 413.518 692.996 412.333 693.109C412.041 693.135 411.749 693.161 411.457 693.161C406.838 693.154 402.889 689.641 402.444 684.937L402.418 684.937ZM451.101 680.304C450.87 677.911 451.597 675.524 453.122 673.668C454.648 671.812 456.847 670.638 459.237 670.404C460.422 670.29 461.619 670.41 462.757 670.759C463.896 671.108 464.955 671.678 465.874 672.437C466.792 673.196 467.552 674.129 468.11 675.182C468.668 676.236 469.013 677.389 469.125 678.576C469.239 679.763 469.119 680.96 468.771 682.1C468.422 683.24 467.852 684.301 467.094 685.22C466.336 686.14 465.404 686.9 464.352 687.459C463.3 688.018 462.148 688.363 460.963 688.475C460.671 688.502 460.379 688.528 460.087 688.527C455.469 688.521 451.546 685.008 451.075 680.304L451.101 680.304ZM-158.715 795.069C-159.104 792.567 -158.487 790.013 -157.001 787.964C-155.514 785.916 -153.278 784.539 -150.781 784.135C-148.284 783.732 -145.729 784.334 -143.674 785.81C-141.619 787.286 -140.231 789.517 -139.814 792.014C-138.972 797.25 -142.509 802.187 -147.739 803.003C-148.27 803.082 -148.774 803.135 -149.305 803.134C-153.896 803.128 -157.979 799.774 -158.742 795.069L-158.715 795.069ZM-110.452 787.247C-110.657 786.004 -110.614 784.732 -110.326 783.506C-110.038 782.28 -109.51 781.123 -108.774 780.101C-108.037 779.08 -107.106 778.214 -106.034 777.555C-104.962 776.895 -103.77 776.454 -102.527 776.257C-100.021 775.852 -97.456 776.461 -95.3975 777.949C-93.339 779.437 -91.9551 781.682 -91.5504 784.192C-90.682 789.401 -94.2456 794.338 -99.4755 795.181C-100.006 795.26 -100.511 795.286 -101.015 795.285C-105.633 795.278 -109.689 791.951 -110.452 787.247ZM-62.2155 779.398C-62.6201 776.888 -62.0125 774.321 -60.5263 772.26C-59.0401 770.199 -56.797 768.813 -54.2905 768.408C-53.0489 768.203 -51.7791 768.246 -50.5541 768.535C-49.3292 768.823 -48.1733 769.351 -47.1531 770.089C-46.1328 770.826 -45.2684 771.758 -44.6095 772.832C-43.9506 773.905 -43.5102 775.098 -43.3138 776.342C-42.9092 778.852 -43.5168 781.419 -45.003 783.48C-46.4892 785.541 -48.7323 786.926 -51.2388 787.332C-51.7698 787.437 -52.2741 787.463 -52.8049 787.462C-57.3966 787.456 -61.4526 784.102 -62.2421 779.398L-62.2155 779.398ZM-13.9523 771.575C-14.3408 769.073 -13.7244 766.518 -12.2379 764.47C-10.7513 762.421 -8.51532 761.045 -6.01837 760.641C-3.52142 760.237 -0.966407 760.84 1.08859 762.316C3.14359 763.792 4.53158 766.022 4.94938 768.52C5.79119 773.756 2.25412 778.693 -2.97566 779.509C-3.5066 779.588 -4.01096 779.64 -4.54178 779.64C-9.15994 779.633 -13.2159 776.279 -13.9789 771.575L-13.9523 771.575ZM34.3108 763.752C34.1043 762.509 34.1459 761.237 34.4332 760.01C34.7205 758.783 35.2479 757.625 35.9848 756.603C36.7217 755.582 37.6535 754.716 38.7264 754.057C39.7994 753.398 40.9921 752.958 42.2358 752.763C44.7424 752.358 47.307 752.966 49.3655 754.454C51.424 755.942 52.8078 758.188 53.2125 760.697C54.0809 765.906 50.5173 770.844 45.2875 771.686C44.7566 771.765 44.2522 771.791 43.7479 771.791C39.1298 771.784 35.0738 768.457 34.3108 763.752ZM82.5475 755.903C82.1428 753.394 82.7505 750.826 84.2367 748.765C85.7229 746.704 87.966 745.319 90.4725 744.914C95.6758 744.044 100.607 747.612 101.449 752.848C101.854 755.357 101.246 757.925 99.76 759.986C98.2737 762.047 96.0306 763.432 93.5241 763.837C92.9932 763.943 92.4888 763.969 91.9846 763.968C87.3664 763.961 83.3104 760.607 82.5475 755.903ZM130.811 748.081C130.5 746.143 130.791 744.157 131.644 742.39C132.497 740.623 133.871 739.161 135.581 738.201C137.291 737.241 139.253 736.83 141.204 737.023C143.155 737.216 144.999 738.004 146.488 739.28C147.978 740.556 149.04 742.259 149.531 744.159C150.022 746.059 149.919 748.064 149.236 749.903C148.552 751.742 147.321 753.327 145.709 754.443C144.097 755.56 142.181 756.154 140.221 756.145C135.63 756.139 131.547 752.785 130.784 748.081L130.811 748.081ZM179.074 740.258C178.232 735.022 181.769 730.085 186.999 729.269C189.498 728.88 192.05 729.497 194.096 730.985C196.142 732.473 197.517 734.712 197.92 737.212C198.323 739.712 197.722 742.269 196.247 744.327C194.773 746.384 192.545 747.774 190.05 748.192C187.548 748.6 184.985 747.996 182.927 746.513C180.869 745.03 179.483 742.79 179.074 740.285L179.074 740.258ZM227.31 732.409C226.906 729.899 227.513 727.332 229 725.271C230.486 723.21 232.729 721.825 235.235 721.419C240.439 720.55 245.37 724.118 246.212 729.354C246.617 731.863 246.009 734.431 244.523 736.491C243.037 738.552 240.794 739.938 238.287 740.343C237.756 740.422 237.252 740.474 236.721 740.474C232.129 740.467 228.047 737.113 227.284 732.409L227.31 732.409ZM275.574 724.586C275.263 722.649 275.554 720.662 276.407 718.895C277.26 717.129 278.634 715.666 280.344 714.707C282.054 713.747 284.016 713.336 285.967 713.529C287.918 713.722 289.762 714.509 291.251 715.785C292.741 717.062 293.802 718.765 294.294 720.664C294.785 722.564 294.682 724.569 293.998 726.409C293.315 728.248 292.084 729.833 290.472 730.949C288.86 732.065 286.944 732.659 284.984 732.651C280.366 732.644 276.31 729.29 275.547 724.586L275.574 724.586ZM323.81 716.737C323.406 714.228 324.013 711.66 325.499 709.599C326.986 707.538 329.229 706.153 331.735 705.748C332.977 705.541 334.247 705.583 335.473 705.87C336.699 706.158 337.855 706.686 338.876 707.424C339.897 708.161 340.761 709.094 341.42 710.168C342.078 711.243 342.517 712.437 342.712 713.682C343.117 716.191 342.509 718.759 341.023 720.82C339.537 722.88 337.293 724.266 334.787 724.671C334.256 724.777 333.752 724.802 333.247 724.802C328.629 724.795 324.573 721.468 323.81 716.737ZM372.073 708.914C371.685 706.412 372.301 703.858 373.788 701.809C375.274 699.761 377.51 698.384 380.007 697.981C382.504 697.577 385.059 698.179 387.114 699.655C389.169 701.131 390.557 703.362 390.975 705.859C391.817 711.095 388.28 716.032 383.05 716.849C382.519 716.927 382.015 716.98 381.484 716.979C376.892 716.972 372.81 713.619 372.073 708.914ZM420.337 701.092C420.13 699.849 420.172 698.577 420.459 697.35C420.746 696.123 421.274 694.965 422.011 693.943C422.747 692.921 423.679 692.056 424.752 691.396C425.825 690.737 427.018 690.298 428.262 690.103C430.768 689.697 433.333 690.306 435.391 691.794C437.45 693.282 438.834 695.527 439.238 698.037C440.107 703.246 436.543 708.183 431.313 709.026C430.782 709.105 430.278 709.131 429.774 709.13C425.156 709.123 421.099 705.796 420.337 701.092ZM468.573 693.243C468.169 690.733 468.776 688.166 470.262 686.105C471.749 684.044 473.992 682.658 476.498 682.253C477.74 682.048 479.01 682.091 480.235 682.38C481.46 682.668 482.615 683.196 483.636 683.934C484.656 684.671 485.52 685.603 486.179 686.677C486.838 687.75 487.279 688.943 487.475 690.187C487.88 692.697 487.272 695.264 485.786 697.325C484.3 699.386 482.056 700.771 479.55 701.177C479.019 701.256 478.515 701.308 477.984 701.307C473.392 701.301 469.336 697.947 468.547 693.243L468.573 693.243ZM-134.077 845.272C-135.291 839.85 -131.859 834.434 -126.443 833.219C-121 832.005 -115.617 835.414 -114.404 840.863C-113.191 846.285 -116.623 851.701 -122.039 852.915C-122.782 853.074 -123.525 853.152 -124.268 853.151C-128.887 853.145 -133.049 849.95 -134.104 845.245L-134.077 845.272ZM-86.3675 834.579C-87.5806 829.157 -84.1756 823.741 -78.7329 822.526C-73.3168 821.312 -67.9073 824.747 -66.6941 830.17C-65.4545 835.592 -68.8861 841.008 -74.3288 842.222C-75.0721 842.381 -75.8154 842.459 -76.5586 842.458C-81.1767 842.452 -85.3126 839.257 -86.3675 834.552L-86.3675 834.579ZM-38.6576 823.886C-39.8972 818.437 -36.4657 813.048 -31.023 811.833C-25.5803 810.619 -20.1973 814.028 -18.9842 819.476C-17.7712 824.925 -21.1762 830.315 -26.6189 831.529C-27.3623 831.714 -28.1055 831.793 -28.8487 831.792C-33.4669 831.785 -37.6293 828.59 -38.6576 823.886ZM9.05231 813.193C7.83918 807.77 11.2708 802.355 16.6869 801.14C22.1031 799.926 27.5125 803.361 28.7257 808.783C29.9388 814.206 26.5072 819.621 21.091 820.836C20.3582 820.993 19.6108 821.072 18.8613 821.072C14.2431 821.065 10.1072 817.871 9.05234 813.166L9.05231 813.193ZM56.7622 802.5C55.5491 797.051 58.9541 791.661 64.3968 790.447C66.9987 789.881 69.7187 790.368 71.9629 791.803C74.207 793.237 75.7931 795.503 76.3748 798.104C76.9565 800.705 76.4865 803.431 75.0675 805.687C73.6484 807.942 71.3956 809.544 68.801 810.143C68.0576 810.301 67.3143 810.38 66.5712 810.379C61.953 810.372 57.8171 807.178 56.7622 802.5ZM104.472 791.806C103.259 786.384 106.691 780.968 112.107 779.754C117.523 778.539 122.932 781.975 124.146 787.397C125.359 792.819 121.954 798.235 116.511 799.45C115.767 799.608 115.024 799.687 114.281 799.686C109.663 799.679 105.5 796.484 104.446 791.78L104.472 791.806ZM152.182 781.113C151.616 778.508 152.103 775.785 153.536 773.539C154.969 771.292 157.232 769.704 159.83 769.121C162.429 768.539 165.152 769.01 167.405 770.43C169.658 771.851 171.258 774.106 171.855 776.704C173.069 782.126 169.637 787.542 164.221 788.757C163.477 788.942 162.708 788.994 161.991 788.993C157.373 788.986 153.237 785.791 152.182 781.113ZM199.892 770.42C198.679 764.998 202.084 759.582 207.527 758.368C212.969 757.126 218.352 760.562 219.565 766.011C220.778 771.433 217.373 776.849 211.931 778.063C211.198 778.221 210.45 778.3 209.701 778.299C205.083 778.293 200.947 775.098 199.892 770.394L199.892 770.42ZM247.602 759.727C247.166 757.779 247.317 755.746 248.036 753.884C248.755 752.022 250.009 750.416 251.64 749.267C253.27 748.119 255.205 747.481 257.198 747.433C259.191 747.385 261.154 747.931 262.837 748.999C264.521 750.068 265.85 751.613 266.657 753.439C267.464 755.264 267.712 757.288 267.369 759.254C267.027 761.221 266.11 763.041 264.735 764.486C263.359 765.931 261.586 766.934 259.641 767.37C258.897 767.555 258.154 767.634 257.437 767.633C252.819 767.626 248.657 764.432 247.602 759.727ZM295.312 749.034C294.099 743.612 297.504 738.196 302.946 736.981C308.363 735.74 313.772 739.176 314.985 744.625C315.316 746.103 315.311 747.636 314.969 749.112C314.626 750.587 313.957 751.966 313.009 753.147C312.061 754.328 310.86 755.28 309.494 755.931C308.129 756.583 306.634 756.919 305.121 756.913C300.503 756.907 296.367 753.712 295.312 749.007L295.312 749.034ZM343.022 738.341C341.782 732.892 345.214 727.503 350.656 726.288C353.258 725.722 355.978 726.209 358.222 727.644C360.466 729.079 362.053 731.344 362.634 733.945C363.216 736.546 362.746 739.272 361.327 741.528C359.908 743.784 357.655 745.386 355.06 745.984C354.317 746.169 353.574 746.248 352.831 746.247C348.212 746.24 344.077 743.045 343.022 738.341ZM390.732 727.648C389.518 722.225 392.923 716.81 398.366 715.595C403.782 714.354 409.192 717.789 410.405 723.238C411.645 728.661 408.213 734.076 402.77 735.291C402.027 735.449 401.284 735.528 400.541 735.527C395.922 735.52 391.787 732.326 390.732 727.621L390.732 727.648ZM438.441 716.955C438.006 715.007 438.157 712.973 438.876 711.112C439.594 709.25 440.849 707.643 442.479 706.495C444.11 705.347 446.044 704.708 448.038 704.661C450.031 704.613 451.993 705.158 453.677 706.227C455.361 707.296 456.69 708.841 457.497 710.666C458.303 712.491 458.551 714.515 458.209 716.482C457.867 718.448 456.95 720.269 455.574 721.713C454.199 723.158 452.426 724.162 450.48 724.598C449.737 724.783 448.994 724.861 448.25 724.86C443.632 724.854 439.496 721.659 438.441 716.955ZM486.151 706.261C484.912 700.839 488.343 695.423 493.786 694.209C496.388 693.643 499.108 694.13 501.352 695.565C503.596 696.999 505.182 699.264 505.764 701.866C506.346 704.467 505.876 707.193 504.457 709.449C503.038 711.704 500.785 713.306 498.19 713.905C497.447 714.063 496.703 714.142 495.96 714.141C491.342 714.134 487.206 710.94 486.151 706.235L486.151 706.261ZM-155.236 904.736C-156.821 899.1 -153.548 893.232 -147.892 891.673C-142.263 890.087 -136.402 893.363 -134.845 899.025C-134.467 900.366 -134.357 901.768 -134.522 903.151C-134.687 904.534 -135.123 905.871 -135.806 907.084C-136.488 908.298 -137.403 909.365 -138.499 910.224C-139.594 911.082 -140.848 911.716 -142.189 912.088C-144.893 912.845 -147.786 912.499 -150.236 911.126C-152.686 909.753 -154.493 907.465 -155.263 904.762L-155.236 904.736ZM-108.16 891.491C-109.744 885.855 -106.445 880.014 -100.816 878.428C-95.1867 876.842 -89.3258 880.118 -87.768 885.78C-87.3902 887.121 -87.2807 888.523 -87.4456 889.906C-87.6105 891.289 -88.0467 892.626 -88.7291 893.839C-89.4115 895.053 -90.3267 896.12 -91.4221 896.979C-92.5174 897.838 -93.7715 898.471 -95.1121 898.843C-97.8162 899.6 -100.71 899.25 -103.156 897.871C-105.603 896.493 -107.403 894.198 -108.16 891.491ZM-61.0833 878.246C-61.461 876.905 -61.5706 875.503 -61.4057 874.12C-61.2407 872.737 -60.8045 871.401 -60.1221 870.187C-59.4397 868.973 -58.5246 867.906 -57.4292 867.048C-56.3338 866.189 -55.0798 865.555 -53.7392 865.183C-48.1101 863.597 -42.2758 866.874 -40.6914 872.536C-39.107 878.171 -42.38 884.039 -48.0355 885.598C-50.7431 886.355 -53.6401 886.007 -56.0911 884.628C-58.5421 883.25 -60.3469 880.955 -61.1098 878.246L-61.0833 878.246ZM-14.0067 865.028C-14.412 863.678 -14.5446 862.262 -14.3969 860.861C-14.2493 859.46 -13.8242 858.102 -13.1466 856.867C-12.469 855.633 -11.5524 854.545 -10.4505 853.669C-9.34847 852.793 -8.08315 852.145 -6.72839 851.764C-5.37364 851.383 -3.9566 851.276 -2.56005 851.449C-1.1635 851.623 0.184554 852.073 1.4054 852.773C2.62624 853.474 3.6954 854.411 4.5504 855.53C5.40541 856.649 6.02915 857.928 6.38516 859.291C7.96955 864.926 4.69658 870.794 -0.932401 872.353C-3.63637 873.11 -6.5296 872.764 -8.97958 871.391C-11.4296 870.019 -13.237 867.731 -14.0067 865.028ZM33.0698 851.783C31.4855 846.147 34.7584 840.279 40.414 838.72C46.043 837.134 51.8773 840.41 53.4617 846.046C53.907 847.626 53.9796 849.288 53.6739 850.902C53.3682 852.515 52.6924 854.035 51.6998 855.342C50.7073 856.65 49.4251 857.708 47.9543 858.435C46.4835 859.161 44.8642 859.536 43.224 859.529C38.6059 859.523 34.3637 856.461 33.0433 851.809L33.0698 851.783ZM80.1464 838.538C78.562 832.902 81.835 827.035 87.4905 825.475C93.1196 823.889 98.9805 827.165 100.538 832.827C100.916 834.168 101.026 835.57 100.861 836.953C100.696 838.336 100.26 839.673 99.5771 840.886C98.8947 842.1 97.9796 843.167 96.8842 844.026C95.7888 844.884 94.5348 845.518 93.1942 845.89C90.4902 846.647 87.597 846.301 85.147 844.928C82.697 843.555 80.8896 841.267 80.1199 838.564L80.1464 838.538ZM127.223 825.293C126.845 823.952 126.736 822.55 126.901 821.167C127.066 819.784 127.502 818.448 128.184 817.234C128.867 816.02 129.782 814.953 130.877 814.094C131.972 813.236 133.226 812.602 134.567 812.23C140.196 810.644 146.031 813.92 147.615 819.583C147.993 820.923 148.102 822.325 147.937 823.708C147.772 825.091 147.336 826.428 146.654 827.642C145.971 828.855 145.056 829.922 143.961 830.781C142.865 831.639 141.611 832.273 140.271 832.645C137.563 833.402 134.666 833.054 132.215 831.675C129.764 830.297 127.959 828.002 127.196 825.293L127.223 825.293ZM174.3 812.048C173.922 810.707 173.812 809.305 173.977 807.922C174.142 806.539 174.578 805.203 175.261 803.989C175.943 802.775 176.858 801.708 177.954 800.85C179.049 799.991 180.303 799.357 181.644 798.985C187.273 797.399 193.107 800.702 194.691 806.338C196.276 811.973 193.003 817.841 187.347 819.4C184.64 820.158 181.743 819.809 179.292 818.43C176.841 817.052 175.036 814.757 174.273 812.048L174.3 812.048ZM221.376 798.829C220.971 797.48 220.838 796.064 220.986 794.663C221.134 793.262 221.559 791.904 222.236 790.669C222.914 789.435 223.83 788.347 224.932 787.471C226.034 786.595 227.3 785.947 228.654 785.566C230.009 785.185 231.426 785.078 232.823 785.251C234.219 785.425 235.567 785.875 236.788 786.575C238.009 787.276 239.078 788.213 239.933 789.332C240.788 790.451 241.412 791.73 241.768 793.093C243.352 798.728 240.079 804.596 234.424 806.155C231.72 806.912 228.827 806.566 226.377 805.193C223.927 803.821 222.119 801.533 221.35 798.829L221.376 798.829ZM268.453 785.585C266.868 779.949 270.141 774.081 275.797 772.522C281.426 770.936 287.26 774.212 288.845 779.848C289.29 781.428 289.363 783.09 289.057 784.704C288.751 786.317 288.075 787.837 287.083 789.144C286.09 790.452 284.808 791.51 283.337 792.237C281.866 792.963 280.247 793.338 278.607 793.331C273.989 793.325 269.746 790.263 268.426 785.611L268.453 785.585ZM315.529 772.34C313.945 766.704 317.218 760.837 322.873 759.277C328.502 757.691 334.337 760.967 335.921 766.629C336.299 767.97 336.408 769.372 336.244 770.755C336.079 772.138 335.642 773.475 334.96 774.688C334.278 775.902 333.362 776.969 332.267 777.828C331.172 778.686 329.918 779.32 328.577 779.692C325.869 780.449 322.972 780.1 320.521 778.722C318.07 777.344 316.266 775.048 315.503 772.34L315.529 772.34ZM362.606 759.095C362.228 757.754 362.119 756.352 362.283 754.969C362.448 753.586 362.885 752.25 363.567 751.036C364.249 749.822 365.165 748.755 366.26 747.896C367.355 747.038 368.609 746.404 369.95 746.032C375.579 744.446 381.413 747.722 382.998 753.384C383.439 754.963 383.509 756.623 383.201 758.233C382.894 759.843 382.217 761.36 381.225 762.665C380.233 763.969 378.952 765.025 377.483 765.75C376.014 766.474 374.398 766.848 372.76 766.842C370.453 766.833 368.211 766.073 366.374 764.675C364.537 763.277 363.205 761.318 362.579 759.095L362.606 759.095ZM409.682 745.876C409.277 744.527 409.145 743.111 409.292 741.71C409.44 740.309 409.865 738.951 410.543 737.716C411.22 736.482 412.137 735.394 413.239 734.518C414.341 733.642 415.606 732.994 416.961 732.613C418.316 732.232 419.733 732.125 421.129 732.298C422.526 732.472 423.874 732.922 425.094 733.622C426.315 734.323 427.385 735.26 428.24 736.379C429.095 737.498 429.718 738.777 430.074 740.14C431.659 745.775 428.386 751.643 422.73 753.202C420.026 753.959 417.133 753.613 414.683 752.24C412.233 750.868 410.426 748.58 409.656 745.876L409.682 745.876ZM456.759 732.631C455.175 726.996 458.448 721.128 464.077 719.542C466.784 718.785 469.681 719.134 472.132 720.512C474.583 721.891 476.388 724.186 477.151 726.895C477.595 728.474 477.667 730.134 477.361 731.746C477.054 733.357 476.378 734.875 475.385 736.18C474.392 737.485 473.11 738.541 471.64 739.265C470.17 739.989 468.552 740.361 466.913 740.352C462.295 740.345 458.053 737.283 456.732 732.631L456.759 732.631ZM503.836 719.387C502.251 713.751 505.524 707.883 511.18 706.324C516.809 704.738 522.643 708.014 524.227 713.65C524.668 715.23 524.736 716.89 524.429 718.502C524.121 720.113 523.445 721.631 522.453 722.937C521.462 724.243 520.181 725.301 518.713 726.029C517.245 726.757 515.628 727.135 513.99 727.133C509.372 727.127 505.129 724.065 503.809 719.413L503.836 719.387Z" fill="#1C70EB" fill-opacity="0.4"/>
</svg>
