<svg width="663" height="711" viewBox="0 0 663 711" fill="none" xmlns="http://www.w3.org/2000/svg">
<path d="M286.434 191.604C286.591 191.886 286.69 192.196 286.726 192.517C286.761 192.838 286.732 193.162 286.641 193.472C286.549 193.781 286.397 194.069 286.193 194.319C285.989 194.568 285.737 194.775 285.452 194.926C284.284 195.59 282.798 195.165 282.135 193.969C281.471 192.773 281.922 191.285 283.09 190.648C283.661 190.34 284.33 190.27 284.951 190.455C285.573 190.639 286.096 191.062 286.408 191.631L286.434 191.604ZM309.897 234.544C310.054 234.826 310.153 235.136 310.188 235.457C310.224 235.777 310.195 236.102 310.103 236.411C310.012 236.721 309.86 237.009 309.655 237.258C309.451 237.508 309.2 237.714 308.915 237.865C308.633 238.02 308.323 238.116 308.003 238.15C307.683 238.184 307.36 238.155 307.052 238.064C306.744 237.972 306.456 237.821 306.207 237.618C305.957 237.415 305.75 237.165 305.597 236.882C305.386 236.513 305.276 236.094 305.279 235.669C305.282 235.243 305.397 234.826 305.612 234.459C305.828 234.092 306.136 233.789 306.506 233.58C306.877 233.371 307.295 233.263 307.72 233.268C308.596 233.268 309.419 233.72 309.87 234.544H309.897ZM333.359 277.484C333.517 277.764 333.618 278.073 333.656 278.392C333.693 278.712 333.667 279.036 333.578 279.345C333.489 279.655 333.339 279.943 333.138 280.194C332.936 280.444 332.686 280.652 332.404 280.805C332.121 280.959 331.812 281.055 331.492 281.089C331.173 281.122 330.849 281.093 330.541 281.001C330.233 280.91 329.946 280.759 329.697 280.557C329.447 280.354 329.239 280.105 329.086 279.822C328.933 279.539 328.836 279.229 328.803 278.909C328.769 278.59 328.799 278.266 328.89 277.958C328.981 277.649 329.132 277.362 329.334 277.112C329.536 276.862 329.786 276.654 330.068 276.501C330.44 276.315 330.838 276.208 331.236 276.208C332.112 276.208 332.934 276.66 333.359 277.484ZM356.822 320.423C356.978 320.704 357.077 321.013 357.113 321.332C357.15 321.651 357.123 321.975 357.034 322.283C356.945 322.592 356.796 322.88 356.596 323.131C356.395 323.382 356.147 323.59 355.866 323.745C355.541 323.925 355.178 324.027 354.807 324.045C354.436 324.063 354.066 323.995 353.725 323.848C353.384 323.7 353.081 323.476 352.84 323.193C352.598 322.91 352.425 322.576 352.333 322.215C352.241 321.855 352.232 321.478 352.308 321.114C352.384 320.75 352.542 320.408 352.771 320.114C352.999 319.82 353.291 319.583 353.626 319.42C353.96 319.258 354.327 319.173 354.698 319.175C355.574 319.175 356.397 319.626 356.822 320.45V320.423ZM380.284 363.363C380.44 363.645 380.538 363.956 380.573 364.276C380.608 364.597 380.579 364.921 380.487 365.23C380.396 365.539 380.244 365.827 380.041 366.076C379.837 366.326 379.586 366.533 379.302 366.685C378.736 366.983 378.077 367.047 377.465 366.864C376.852 366.681 376.336 366.264 376.027 365.704C375.718 365.145 375.641 364.486 375.811 363.869C375.982 363.253 376.387 362.728 376.94 362.407C377.311 362.221 377.709 362.114 378.108 362.114C378.983 362.114 379.806 362.566 380.257 363.39L380.284 363.363ZM403.746 406.303C404.383 407.472 403.959 408.96 402.764 409.625C402.484 409.781 402.176 409.88 401.857 409.917C401.538 409.953 401.215 409.926 400.907 409.837C400.598 409.748 400.311 409.599 400.06 409.398C399.81 409.198 399.601 408.95 399.447 408.668C399.236 408.299 399.126 407.88 399.129 407.454C399.131 407.029 399.246 406.612 399.462 406.245C399.677 405.878 399.986 405.575 400.356 405.366C400.726 405.157 401.145 405.049 401.57 405.054C402.446 405.054 403.269 405.506 403.72 406.33L403.746 406.303ZM427.209 449.243C427.846 450.412 427.421 451.9 426.227 452.564C425.901 452.744 425.539 452.847 425.168 452.864C424.797 452.882 424.426 452.815 424.085 452.667C423.744 452.519 423.442 452.295 423.2 452.012C422.959 451.729 422.786 451.395 422.694 451.034C422.602 450.674 422.593 450.297 422.669 449.933C422.745 449.569 422.903 449.227 423.131 448.933C423.36 448.64 423.652 448.403 423.986 448.24C424.32 448.077 424.687 447.993 425.059 447.994C425.935 447.994 426.758 448.446 427.209 449.269V449.243ZM450.671 492.183C451.335 493.352 450.884 494.84 449.716 495.504C449.434 495.661 449.124 495.76 448.804 495.796C448.484 495.831 448.159 495.803 447.85 495.711C447.541 495.619 447.254 495.467 447.004 495.263C446.755 495.058 446.549 494.806 446.398 494.521C445.735 493.352 446.186 491.864 447.38 491.2C447.752 490.987 448.15 490.881 448.548 490.881C449.397 490.881 450.247 491.359 450.671 492.183ZM474.134 535.096C474.29 535.378 474.39 535.688 474.425 536.009C474.461 536.329 474.432 536.654 474.34 536.963C474.249 537.273 474.096 537.561 473.892 537.81C473.688 538.06 473.436 538.266 473.152 538.417C471.984 539.082 470.497 538.63 469.834 537.461C469.17 536.265 469.622 534.777 470.789 534.139C471.161 533.927 471.559 533.82 471.957 533.82C472.833 533.82 473.656 534.299 474.107 535.096H474.134ZM497.596 578.036C497.75 578.318 497.847 578.628 497.881 578.948C497.915 579.268 497.885 579.592 497.794 579.901C497.703 580.209 497.552 580.497 497.349 580.747C497.147 580.997 496.897 581.204 496.614 581.357C496.332 581.513 496.022 581.611 495.702 581.646C495.382 581.681 495.058 581.652 494.75 581.561C494.441 581.469 494.153 581.317 493.904 581.113C493.654 580.91 493.448 580.658 493.296 580.374C492.633 579.205 493.084 577.717 494.252 577.053C494.623 576.84 495.048 576.734 495.42 576.734C496.269 576.734 497.118 577.212 497.569 578.009L497.596 578.036ZM521.058 620.975C521.212 621.258 521.309 621.568 521.343 621.888C521.377 622.208 521.348 622.532 521.256 622.84C521.165 623.149 521.014 623.437 520.812 623.686C520.609 623.936 520.359 624.144 520.076 624.297C519.795 624.454 519.485 624.553 519.165 624.589C518.844 624.624 518.52 624.595 518.211 624.504C517.902 624.412 517.614 624.26 517.365 624.055C517.116 623.851 516.91 623.599 516.759 623.314C516.095 622.145 516.52 620.63 517.714 619.992C518.086 619.78 518.484 619.673 518.882 619.673C519.758 619.673 520.581 620.125 521.032 620.949L521.058 620.975ZM544.521 663.915C544.674 664.196 544.771 664.505 544.805 664.823C544.839 665.141 544.811 665.463 544.721 665.77C544.631 666.077 544.481 666.364 544.281 666.613C544.08 666.863 543.833 667.07 543.552 667.223C543.272 667.377 542.963 667.474 542.646 667.508C542.328 667.542 542.006 667.514 541.699 667.424C541.392 667.334 541.106 667.184 540.857 666.983C540.608 666.782 540.401 666.534 540.248 666.254C539.584 665.084 540.035 663.596 541.23 662.932C541.507 662.773 541.814 662.672 542.131 662.634C542.449 662.596 542.771 662.622 543.078 662.712C543.385 662.801 543.671 662.951 543.919 663.153C544.167 663.356 544.372 663.606 544.521 663.889V663.915ZM567.983 706.855C568.137 707.136 568.233 707.444 568.268 707.763C568.302 708.081 568.273 708.403 568.183 708.71C568.093 709.017 567.944 709.304 567.743 709.553C567.543 709.802 567.295 710.01 567.015 710.163C566.734 710.317 566.426 710.413 566.108 710.448C565.79 710.482 565.469 710.454 565.162 710.363C564.855 710.273 564.569 710.124 564.32 709.923C564.071 709.722 563.864 709.474 563.71 709.193C563.397 708.626 563.322 707.957 563.501 707.335C563.68 706.712 564.099 706.186 564.666 705.872C565.037 705.686 565.435 705.58 565.833 705.58C566.709 705.58 567.532 706.031 567.983 706.855ZM268.864 178.797C269.766 180.178 269.368 181.985 268.015 182.889C267.629 183.14 267.19 183.297 266.732 183.348C266.275 183.4 265.812 183.344 265.38 183.185C264.948 183.025 264.559 182.768 264.245 182.432C263.93 182.096 263.697 181.691 263.566 181.249C263.435 180.808 263.408 180.341 263.488 179.888C263.569 179.434 263.753 179.005 264.028 178.636C264.303 178.266 264.66 177.966 265.071 177.758C265.482 177.551 265.935 177.443 266.396 177.441C267.378 177.441 268.307 177.92 268.864 178.77V178.797ZM295.538 219.823C296.414 221.205 296.042 223.012 294.662 223.915C293.282 224.819 291.477 224.42 290.575 223.038C289.672 221.657 290.07 219.85 291.451 218.946C292.107 218.522 292.904 218.373 293.668 218.532C294.433 218.691 295.105 219.146 295.538 219.797V219.823ZM322.185 260.85C322.399 261.174 322.546 261.537 322.619 261.919C322.692 262.3 322.688 262.692 322.61 263.072C322.531 263.453 322.377 263.814 322.159 264.134C321.94 264.455 321.661 264.73 321.336 264.942C319.956 265.845 318.151 265.447 317.275 264.065C316.986 263.621 316.821 263.108 316.798 262.578C316.775 262.049 316.894 261.523 317.144 261.056C317.393 260.588 317.764 260.197 318.217 259.922C318.669 259.648 319.188 259.5 319.717 259.495C320.672 259.495 321.628 259.973 322.185 260.823V260.85ZM348.859 301.876C349.735 303.258 349.363 305.092 347.983 305.969C346.603 306.872 344.772 306.473 343.896 305.092C342.994 303.71 343.392 301.903 344.772 301C345.428 300.575 346.225 300.426 346.99 300.586C347.755 300.745 348.426 301.199 348.859 301.85V301.876ZM375.507 342.903C376.409 344.285 376.011 346.092 374.657 346.995C374.27 347.247 373.83 347.404 373.372 347.455C372.913 347.506 372.449 347.449 372.016 347.289C371.584 347.128 371.195 346.869 370.88 346.531C370.566 346.193 370.334 345.786 370.205 345.343C370.075 344.9 370.051 344.432 370.134 343.978C370.217 343.524 370.405 343.095 370.683 342.726C370.961 342.358 371.321 342.059 371.734 341.854C372.148 341.65 372.603 341.545 373.065 341.548C374.047 341.548 374.976 342.026 375.533 342.877L375.507 342.903ZM402.18 383.93C403.056 385.311 402.658 387.145 401.305 388.022C399.924 388.925 398.093 388.527 397.217 387.145C396.315 385.763 396.713 383.956 398.093 383.053C398.749 382.628 399.546 382.48 400.311 382.639C401.076 382.798 401.747 383.252 402.18 383.903V383.93ZM428.828 424.956C429.053 425.281 429.211 425.647 429.292 426.034C429.373 426.42 429.376 426.819 429.3 427.207C429.225 427.594 429.072 427.963 428.851 428.29C428.63 428.618 428.346 428.897 428.016 429.113C427.685 429.328 427.314 429.475 426.926 429.544C426.537 429.613 426.139 429.604 425.754 429.516C425.37 429.428 425.007 429.264 424.687 429.033C424.366 428.802 424.096 428.509 423.891 428.172C423.015 426.79 423.387 424.983 424.74 424.079C425.397 423.655 426.193 423.506 426.958 423.665C427.723 423.825 428.395 424.279 428.828 424.93V424.956ZM455.502 465.983C456.378 467.365 455.979 469.198 454.626 470.075C453.246 470.978 451.441 470.58 450.565 469.198C449.663 467.816 450.061 466.01 451.441 465.106C452.097 464.682 452.894 464.533 453.659 464.692C454.424 464.851 455.095 465.305 455.528 465.956L455.502 465.983ZM482.149 507.036C483.051 508.391 482.653 510.225 481.273 511.102C479.893 512.005 478.088 511.607 477.186 510.225C476.31 508.843 476.682 507.036 478.035 506.133C478.36 505.919 478.724 505.771 479.107 505.699C479.489 505.628 479.882 505.633 480.262 505.714C480.643 505.796 481.003 505.952 481.322 506.175C481.642 506.397 481.914 506.681 482.123 507.01L482.149 507.036ZM508.796 548.063C509.699 549.445 509.301 551.278 507.921 552.155C506.54 553.058 504.736 552.66 503.86 551.278C502.957 549.896 503.355 548.089 504.736 547.186C505.387 546.76 506.18 546.611 506.942 546.77C507.703 546.929 508.37 547.385 508.796 548.036V548.063ZM535.47 589.09C536.346 590.471 535.975 592.305 534.594 593.182C533.214 594.085 531.41 593.686 530.507 592.305C529.631 590.923 530.003 589.116 531.356 588.213C532.013 587.788 532.809 587.639 533.574 587.799C534.339 587.958 535.011 588.412 535.444 589.063L535.47 589.09ZM562.118 630.116C563.02 631.498 562.622 633.331 561.242 634.208C559.862 635.112 558.057 634.713 557.154 633.331C556.279 631.95 556.677 630.143 558.03 629.239C558.682 628.813 559.475 628.664 560.236 628.823C560.998 628.983 561.665 629.438 562.091 630.09L562.118 630.116ZM251.214 165.909C252.382 167.424 252.117 169.603 250.604 170.772C249.091 171.941 246.914 171.675 245.72 170.161C244.552 168.646 244.818 166.467 246.331 165.298C246.968 164.82 247.711 164.581 248.454 164.581C249.489 164.581 250.498 165.032 251.188 165.909H251.214ZM281.179 204.598C282.347 206.112 282.082 208.291 280.569 209.487C280.21 209.766 279.799 209.972 279.361 210.092C278.923 210.212 278.465 210.245 278.014 210.188C277.563 210.132 277.127 209.986 276.732 209.761C276.337 209.536 275.99 209.235 275.712 208.876C275.433 208.516 275.227 208.105 275.107 207.667C274.987 207.228 274.954 206.769 275.011 206.318C275.068 205.866 275.213 205.43 275.438 205.035C275.663 204.639 275.963 204.292 276.322 204.013C276.679 203.732 277.088 203.524 277.526 203.401C277.963 203.278 278.421 203.243 278.872 203.297C279.323 203.351 279.759 203.494 280.155 203.717C280.551 203.94 280.899 204.24 281.179 204.598ZM311.118 243.286C312.285 244.801 312.02 246.979 310.507 248.149C308.994 249.318 306.818 249.052 305.624 247.537C304.456 246.023 304.721 243.844 306.234 242.675C306.871 242.197 307.614 241.931 308.357 241.931C309.392 241.931 310.401 242.409 311.091 243.286H311.118ZM341.083 281.974C341.502 282.516 341.752 283.169 341.801 283.853C341.85 284.536 341.695 285.219 341.356 285.814C341.017 286.41 340.51 286.891 339.898 287.198C339.286 287.505 338.596 287.623 337.917 287.537C337.238 287.452 336.6 287.167 336.082 286.718C335.565 286.269 335.192 285.677 335.011 285.016C334.83 284.355 334.849 283.655 335.065 283.005C335.281 282.355 335.685 281.784 336.226 281.363C336.583 281.082 336.992 280.874 337.429 280.751C337.867 280.628 338.324 280.593 338.775 280.647C339.226 280.701 339.662 280.844 340.058 281.067C340.454 281.29 340.802 281.59 341.083 281.948V281.974ZM371.021 320.663C372.189 322.151 371.923 324.356 370.411 325.525C368.898 326.694 366.721 326.429 365.527 324.914C364.359 323.4 364.625 321.221 366.137 320.051C366.774 319.573 367.518 319.307 368.261 319.307C369.296 319.307 370.304 319.786 370.995 320.663H371.021ZM400.986 359.351C401.406 359.892 401.656 360.546 401.705 361.229C401.753 361.913 401.598 362.596 401.26 363.191C400.921 363.786 400.413 364.268 399.801 364.575C399.189 364.881 398.5 364.999 397.821 364.914C397.142 364.828 396.503 364.543 395.986 364.095C395.469 363.646 395.096 363.054 394.915 362.393C394.734 361.732 394.752 361.032 394.969 360.382C395.185 359.732 395.589 359.16 396.129 358.74C396.739 358.262 397.509 358.022 398.252 358.022C399.287 358.022 400.296 358.474 400.986 359.351ZM430.925 398.039C432.092 399.527 431.827 401.733 430.314 402.902C429.589 403.466 428.67 403.718 427.759 403.603C426.848 403.489 426.02 403.017 425.457 402.291C424.894 401.565 424.642 400.645 424.756 399.733C424.871 398.821 425.342 397.992 426.068 397.428C426.704 396.95 427.448 396.684 428.191 396.684C429.226 396.684 430.234 397.162 430.925 398.039ZM460.89 436.728C461.309 437.269 461.559 437.923 461.608 438.606C461.657 439.29 461.502 439.972 461.163 440.568C460.824 441.163 460.317 441.645 459.705 441.951C459.093 442.258 458.403 442.376 457.724 442.291C457.045 442.205 456.407 441.92 455.889 441.471C455.372 441.022 454.999 440.43 454.818 439.769C454.637 439.108 454.656 438.409 454.872 437.759C455.088 437.108 455.492 436.537 456.033 436.116C456.643 435.638 457.413 435.399 458.156 435.399C459.191 435.399 460.199 435.851 460.89 436.728ZM490.828 475.416C491.996 476.931 491.73 479.109 490.218 480.305C488.705 481.474 486.528 481.209 485.334 479.694C484.166 478.179 484.432 476.001 485.944 474.805C486.581 474.327 487.325 474.087 488.068 474.087C489.103 474.087 490.111 474.539 490.801 475.416H490.828ZM520.793 514.104C521.213 514.646 521.463 515.299 521.512 515.983C521.56 516.666 521.405 517.349 521.067 517.944C520.728 518.54 520.22 519.021 519.608 519.328C518.996 519.635 518.307 519.753 517.628 519.667C516.949 519.582 516.31 519.297 515.793 518.848C515.276 518.399 514.903 517.807 514.722 517.146C514.541 516.485 514.559 515.785 514.775 515.135C514.992 514.485 515.395 513.914 515.936 513.493C516.546 513.015 517.316 512.776 518.059 512.776C519.094 512.776 520.103 513.227 520.793 514.104ZM550.732 552.793C551.899 554.307 551.634 556.486 550.121 557.682C548.635 558.851 546.432 558.559 545.264 557.071C544.096 555.556 544.362 553.377 545.874 552.181C546.511 551.703 547.255 551.464 547.998 551.464C549.033 551.464 550.041 551.916 550.732 552.793ZM580.697 591.481C581.116 592.022 581.366 592.676 581.415 593.359C581.464 594.043 581.309 594.726 580.97 595.321C580.631 595.916 580.124 596.398 579.512 596.705C578.9 597.011 578.21 597.129 577.531 597.044C576.852 596.958 576.214 596.673 575.696 596.225C575.179 595.776 574.806 595.184 574.625 594.523C574.444 593.862 574.463 593.162 574.679 592.512C574.895 591.862 575.299 591.29 575.839 590.87C576.45 590.392 577.22 590.126 577.963 590.126C578.998 590.126 580.006 590.604 580.697 591.481ZM233.485 152.969C234.971 154.59 234.891 157.088 233.272 158.602C231.653 160.09 229.158 160.01 227.672 158.39C226.186 156.769 226.265 154.271 227.884 152.783C228.654 152.065 229.61 151.72 230.565 151.72C231.653 151.72 232.688 152.145 233.485 152.969ZM266.741 188.841C268.227 190.462 268.147 192.959 266.528 194.474C264.909 195.962 262.415 195.882 260.928 194.261C259.442 192.64 259.522 190.143 261.114 188.655C261.884 187.937 262.866 187.565 263.821 187.565C264.909 187.565 265.944 188.017 266.741 188.841ZM299.997 224.712C300.673 225.494 301.02 226.509 300.963 227.541C300.907 228.574 300.452 229.545 299.694 230.248C298.936 230.951 297.936 231.332 296.903 231.311C295.87 231.289 294.886 230.867 294.158 230.133C292.671 228.512 292.778 226.014 294.37 224.5C295.14 223.809 296.122 223.437 297.077 223.437C298.139 223.437 299.201 223.889 299.997 224.712ZM333.253 260.584C333.968 261.359 334.349 262.385 334.314 263.439C334.28 264.493 333.832 265.491 333.067 266.217C332.286 266.894 331.273 267.241 330.241 267.185C329.21 267.128 328.24 266.673 327.538 265.914C326.836 265.156 326.455 264.154 326.476 263.12C326.498 262.086 326.92 261.1 327.653 260.372C328.422 259.681 329.404 259.309 330.36 259.309C331.422 259.309 332.483 259.734 333.253 260.584ZM366.509 296.456C367.23 297.228 367.616 298.255 367.581 299.311C367.547 300.367 367.094 301.367 366.323 302.089C365.546 302.801 364.519 303.178 363.466 303.139C362.413 303.099 361.418 302.645 360.697 301.876C359.21 300.256 359.29 297.758 360.909 296.243C361.679 295.552 362.634 295.18 363.616 295.18C364.678 295.18 365.739 295.606 366.509 296.456ZM399.765 332.328C401.251 333.948 401.172 336.446 399.553 337.934C397.96 339.422 395.439 339.343 393.953 337.748C392.466 336.127 392.546 333.63 394.165 332.115C394.545 331.759 394.993 331.481 395.481 331.299C395.969 331.116 396.489 331.033 397.009 331.052C397.53 331.072 398.042 331.195 398.515 331.414C398.988 331.633 399.413 331.943 399.765 332.328ZM433.021 368.199C434.508 369.794 434.428 372.318 432.809 373.806C431.19 375.294 428.695 375.214 427.209 373.593C425.722 371.999 425.802 369.475 427.395 367.987C428.164 367.269 429.146 366.924 430.102 366.924C431.19 366.924 432.225 367.349 433.021 368.199ZM466.277 404.071C467.764 405.665 467.684 408.19 466.065 409.678C464.446 411.166 461.951 411.086 460.438 409.465C459.915 408.897 459.569 408.189 459.442 407.427C459.314 406.665 459.411 405.883 459.721 405.175C460.031 404.468 460.54 403.866 461.186 403.443C461.831 403.021 462.586 402.796 463.358 402.796C464.42 402.796 465.481 403.221 466.277 404.071ZM499.534 439.943C501.02 441.537 500.914 444.061 499.321 445.549C497.702 447.037 495.207 446.958 493.694 445.337C492.208 443.743 492.288 441.218 493.907 439.73C494.682 439.013 495.709 438.632 496.764 438.672C497.819 438.712 498.815 439.169 499.534 439.943ZM532.763 475.815C534.249 477.409 534.17 479.933 532.577 481.421C530.958 482.909 528.463 482.829 526.951 481.209C525.464 479.614 525.544 477.09 527.163 475.602C527.933 474.885 528.888 474.539 529.87 474.539C530.932 474.539 531.993 474.964 532.763 475.815ZM566.019 511.686C567.506 513.307 567.426 515.805 565.807 517.319C564.214 518.807 561.693 518.728 560.207 517.107C558.694 515.486 558.8 512.988 560.419 511.5C561.189 510.783 562.144 510.437 563.126 510.437C564.188 510.437 565.25 510.863 566.019 511.686Z" fill="#1C70EB" fill-opacity="0.4"/>
<path d="M215.645 139.976C216.498 140.781 217.003 141.888 217.052 143.061C217.101 144.233 216.691 145.379 215.908 146.253C215.125 147.127 214.032 147.66 212.862 147.738C211.692 147.816 210.538 147.434 209.646 146.672C207.815 144.998 207.629 142.181 209.275 140.321C210.151 139.338 211.398 138.806 212.619 138.806C213.68 138.806 214.742 139.178 215.618 139.949L215.645 139.976ZM252.112 172.552C253.97 174.2 254.129 177.043 252.484 178.876C250.838 180.736 247.998 180.896 246.14 179.248C244.309 177.574 244.15 174.758 245.795 172.898C246.671 171.915 247.919 171.41 249.14 171.41C250.228 171.41 251.263 171.782 252.112 172.552ZM288.606 205.129C290.464 206.777 290.623 209.62 288.978 211.453C287.332 213.287 284.492 213.473 282.635 211.825C280.803 210.178 280.644 207.335 282.289 205.501C283.165 204.518 284.413 203.987 285.634 203.987C286.695 203.987 287.757 204.359 288.606 205.129ZM325.1 237.706C326.958 239.354 327.118 242.17 325.445 244.03C325.054 244.47 324.58 244.828 324.051 245.083C323.521 245.338 322.946 245.486 322.359 245.519C321.772 245.551 321.184 245.466 320.63 245.27C320.075 245.074 319.565 244.77 319.129 244.376C317.297 242.728 317.112 239.885 318.757 238.052C319.633 237.068 320.88 236.564 322.101 236.564C323.189 236.564 324.225 236.936 325.074 237.706H325.1ZM361.595 270.283C363.452 271.93 363.612 274.774 361.94 276.634C361.15 277.519 360.042 278.055 358.858 278.125C357.674 278.194 356.511 277.792 355.623 277.006C353.791 275.358 353.632 272.515 355.278 270.682C356.07 269.801 357.178 269.268 358.36 269.198C359.542 269.128 360.704 269.528 361.595 270.309V270.283ZM398.089 302.86C399.947 304.507 400.106 307.35 398.46 309.184C396.815 311.044 393.975 311.203 392.144 309.556C390.312 307.882 390.153 305.065 391.798 303.205C392.674 302.222 393.922 301.717 395.143 301.717C396.204 301.717 397.266 302.089 398.115 302.86H398.089ZM434.583 335.437C435.463 336.231 435.994 337.342 436.059 338.527C436.123 339.712 435.717 340.875 434.928 341.761C433.282 343.621 430.442 343.78 428.611 342.133C426.78 340.485 426.594 337.642 428.266 335.809C429.142 334.825 430.389 334.321 431.61 334.321C432.672 334.321 433.734 334.693 434.583 335.463V335.437ZM471.077 368.013C471.516 368.405 471.874 368.88 472.129 369.41C472.384 369.94 472.532 370.516 472.564 371.104C472.596 371.691 472.511 372.28 472.316 372.835C472.12 373.39 471.816 373.9 471.422 374.338C471.031 374.777 470.557 375.135 470.027 375.39C469.497 375.646 468.923 375.794 468.335 375.826C467.748 375.858 467.161 375.774 466.606 375.577C466.052 375.381 465.542 375.077 465.105 374.683C463.274 373.036 463.115 370.192 464.76 368.359C465.636 367.376 466.857 366.871 468.104 366.871C469.166 366.871 470.228 367.243 471.077 368.013ZM507.571 400.59C509.402 402.264 509.588 405.081 507.943 406.941C507.153 407.826 506.045 408.362 504.861 408.432C503.677 408.502 502.514 408.099 501.626 407.313C499.768 405.666 499.609 402.822 501.254 400.989C502.04 400.099 503.146 399.556 504.33 399.482C505.515 399.407 506.68 399.806 507.571 400.59ZM544.065 433.167C545.897 434.815 546.056 437.658 544.41 439.518C544.019 439.957 543.545 440.315 543.016 440.571C542.486 440.826 541.911 440.974 541.324 441.006C540.737 441.038 540.149 440.954 539.595 440.758C539.04 440.562 538.53 440.258 538.094 439.863C537.203 439.07 536.664 437.956 536.594 436.765C536.524 435.574 536.93 434.404 537.722 433.513C538.514 432.621 539.627 432.081 540.817 432.011C542.006 431.942 543.175 432.348 544.065 433.141V433.167ZM580.559 465.744C580.999 466.136 581.356 466.61 581.611 467.14C581.866 467.671 582.014 468.246 582.046 468.834C582.078 469.422 581.994 470.01 581.798 470.565C581.602 471.12 581.298 471.631 580.904 472.068C579.259 473.928 576.419 474.088 574.588 472.44C572.73 470.766 572.597 467.949 574.243 466.089C575.118 465.106 576.339 464.601 577.587 464.601C578.648 464.601 579.71 464.973 580.559 465.744ZM197.676 126.902C198.208 127.288 198.658 127.775 199.001 128.336C199.344 128.897 199.573 129.52 199.674 130.17C199.775 130.819 199.747 131.482 199.591 132.121C199.434 132.76 199.154 133.361 198.764 133.891C197.145 136.123 194.013 136.628 191.784 134.98C189.555 133.359 189.05 130.224 190.696 127.992C191.678 126.663 193.191 125.946 194.73 125.946C195.739 125.946 196.774 126.265 197.676 126.902ZM237.169 155.733C238.241 156.512 238.961 157.686 239.169 158.996C239.378 160.306 239.06 161.646 238.284 162.721C236.665 164.953 233.533 165.458 231.304 163.81C229.074 162.189 228.57 159.054 230.216 156.822C231.171 155.493 232.711 154.776 234.25 154.776C235.285 154.776 236.294 155.095 237.196 155.733H237.169ZM276.689 184.563C277.22 184.946 277.67 185.431 278.013 185.989C278.355 186.548 278.584 187.169 278.685 187.816C278.786 188.464 278.758 189.125 278.602 189.761C278.446 190.398 278.166 190.997 277.777 191.525C276.158 193.757 273.027 194.261 270.797 192.641C268.594 191.02 268.063 187.884 269.709 185.652C270.691 184.324 272.204 183.606 273.743 183.606C274.752 183.606 275.787 183.925 276.689 184.563ZM316.183 213.366C316.714 213.752 317.165 214.239 317.508 214.8C317.85 215.361 318.079 215.984 318.18 216.634C318.281 217.283 318.253 217.947 318.097 218.585C317.941 219.224 317.66 219.825 317.271 220.355C315.652 222.587 312.52 223.092 310.317 221.444C308.088 219.823 307.583 216.688 309.229 214.482C310.211 213.127 311.724 212.436 313.263 212.436C314.298 212.436 315.307 212.755 316.209 213.393L316.183 213.366ZM355.702 242.197C356.234 242.582 356.685 243.07 357.027 243.63C357.37 244.191 357.599 244.814 357.7 245.464C357.801 246.114 357.773 246.777 357.617 247.416C357.461 248.054 357.18 248.656 356.791 249.185C355.172 251.417 352.04 251.922 349.81 250.274C347.607 248.654 347.103 245.518 348.722 243.286C349.704 241.958 351.217 241.24 352.756 241.24C353.765 241.24 354.8 241.559 355.702 242.197ZM395.196 271.027C396.268 271.807 396.987 272.98 397.196 274.29C397.405 275.6 397.086 276.94 396.31 278.015C394.691 280.247 391.56 280.752 389.33 279.105C387.101 277.484 386.596 274.348 388.242 272.116C389.224 270.788 390.737 270.07 392.276 270.07C393.311 270.07 394.32 270.389 395.222 271.027H395.196ZM434.716 299.857C435.247 300.243 435.698 300.73 436.041 301.291C436.383 301.852 436.612 302.475 436.713 303.124C436.814 303.774 436.786 304.437 436.63 305.076C436.474 305.715 436.193 306.316 435.804 306.846C434.185 309.078 431.053 309.582 428.823 307.935C426.594 306.314 426.116 303.179 427.735 300.947C428.717 299.618 430.257 298.901 431.77 298.901C432.805 298.901 433.813 299.219 434.716 299.857ZM474.209 328.687C475.281 329.467 476 330.641 476.209 331.951C476.418 333.261 476.1 334.6 475.324 335.676C473.705 337.881 470.573 338.386 468.343 336.765C466.114 335.144 465.61 332.009 467.255 329.777C468.237 328.448 469.75 327.731 471.289 327.731C472.324 327.731 473.333 328.05 474.235 328.687H474.209ZM513.729 357.518C514.26 357.901 514.709 358.386 515.052 358.944C515.394 359.503 515.623 360.124 515.724 360.771C515.825 361.419 515.797 362.08 515.642 362.716C515.486 363.353 515.206 363.952 514.817 364.479C513.198 366.711 510.066 367.216 507.837 365.595C505.607 363.975 505.129 360.839 506.748 358.607C507.73 357.279 509.27 356.561 510.783 356.561C511.818 356.561 512.826 356.88 513.729 357.518ZM553.249 386.321C554.317 387.104 555.032 388.28 555.236 389.59C555.44 390.9 555.117 392.238 554.337 393.31C552.718 395.542 549.586 396.047 547.356 394.399C545.127 392.778 544.623 389.643 546.268 387.437C547.25 386.082 548.763 385.391 550.302 385.391C551.311 385.391 552.346 385.71 553.249 386.348V386.321ZM592.742 415.152C593.274 415.537 593.724 416.025 594.067 416.585C594.41 417.146 594.638 417.769 594.739 418.419C594.841 419.069 594.812 419.732 594.656 420.37C594.5 421.009 594.219 421.61 593.83 422.14C592.211 424.372 589.079 424.877 586.85 423.229C584.647 421.608 584.142 418.473 585.762 416.241C586.744 414.912 588.256 414.195 589.796 414.195C590.804 414.195 591.839 414.514 592.742 415.152Z" fill="#1C70EB" fill-opacity="0.4"/>
<path d="M212.445 133.313C213.133 133.717 213.735 134.253 214.217 134.889C214.698 135.526 215.05 136.252 215.251 137.025C215.452 137.798 215.499 138.603 215.389 139.394C215.28 140.185 215.015 140.947 214.611 141.636C212.913 144.537 209.196 145.504 206.298 143.804C205.151 143.125 204.259 142.088 203.758 140.852C203.257 139.616 203.174 138.25 203.523 136.963C203.872 135.675 204.633 134.538 205.689 133.725C206.746 132.913 208.039 132.469 209.371 132.463C210.425 132.463 211.45 132.727 212.416 133.284L212.445 133.313ZM258.986 160.567C259.674 160.967 260.276 161.5 260.758 162.134C261.239 162.768 261.591 163.491 261.792 164.262C261.993 165.033 262.04 165.836 261.931 166.625C261.821 167.414 261.556 168.173 261.152 168.86C259.454 171.761 255.766 172.728 252.868 171.058C251.717 170.384 250.819 169.35 250.313 168.115C249.806 166.88 249.72 165.513 250.066 164.224C250.412 162.934 251.171 161.795 252.228 160.98C253.284 160.166 254.579 159.722 255.912 159.717C256.966 159.717 258.02 159.98 258.957 160.567H258.986ZM305.556 187.791C306.942 188.61 307.947 189.946 308.353 191.505C308.759 193.064 308.532 194.721 307.722 196.113C306.025 199.014 302.307 199.981 299.409 198.282C298.263 197.602 297.37 196.565 296.869 195.329C296.368 194.094 296.285 192.727 296.634 191.44C296.983 190.153 297.744 189.015 298.8 188.203C299.857 187.39 301.15 186.947 302.483 186.941C303.507 186.941 304.561 187.204 305.527 187.761L305.556 187.791ZM352.097 215.015C352.786 215.418 353.388 215.954 353.869 216.591C354.351 217.228 354.702 217.953 354.903 218.726C355.105 219.499 355.152 220.304 355.042 221.096C354.932 221.887 354.667 222.648 354.263 223.337C352.566 226.238 348.848 227.205 345.95 225.506C343.052 223.806 342.086 220.084 343.784 217.212C344.319 216.296 345.084 215.536 346.003 215.006C346.922 214.477 347.964 214.197 349.024 214.194C350.078 214.194 351.102 214.458 352.068 215.015H352.097ZM398.638 242.268C399.327 242.672 399.929 243.207 400.41 243.844C400.892 244.481 401.243 245.207 401.444 245.98C401.646 246.753 401.693 247.558 401.583 248.349C401.473 249.14 401.208 249.902 400.804 250.59C399.987 251.979 398.653 252.986 397.095 253.393C395.537 253.799 393.882 253.571 392.491 252.759C391.345 252.08 390.452 251.043 389.951 249.807C389.45 248.571 389.367 247.205 389.716 245.917C390.065 244.63 390.826 243.493 391.882 242.68C392.939 241.867 394.232 241.424 395.565 241.418C396.618 241.418 397.672 241.682 398.609 242.239L398.638 242.268ZM445.179 269.492C445.869 269.894 446.473 270.428 446.957 271.064C447.441 271.7 447.795 272.425 447.999 273.198C448.202 273.971 448.252 274.776 448.145 275.568C448.038 276.36 447.776 277.124 447.375 277.814C445.677 280.716 441.959 281.683 439.062 279.983C436.164 278.283 435.198 274.562 436.896 271.661C438.008 269.726 440.028 268.642 442.135 268.642C443.16 268.642 444.213 268.906 445.179 269.463V269.492ZM491.75 296.716C493.135 297.536 494.141 298.871 494.546 300.43C494.952 301.989 494.725 303.646 493.916 305.039C492.218 307.94 488.5 308.907 485.603 307.207C482.705 305.507 481.739 301.815 483.437 298.914C483.972 297.998 484.737 297.237 485.656 296.708C486.575 296.178 487.616 295.898 488.676 295.895C489.73 295.895 490.754 296.159 491.72 296.716H491.75ZM538.291 323.969C538.979 324.373 539.581 324.909 540.063 325.546C540.544 326.183 540.896 326.908 541.097 327.681C541.298 328.454 541.345 329.259 541.235 330.05C541.125 330.841 540.861 331.603 540.457 332.292C538.759 335.193 535.041 336.16 532.144 334.46C530.997 333.781 530.105 332.744 529.603 331.508C529.102 330.272 529.02 328.906 529.368 327.619C529.717 326.331 530.478 325.194 531.535 324.382C532.591 323.569 533.885 323.126 535.217 323.12C536.271 323.12 537.295 323.383 538.261 323.94L538.291 323.969ZM584.832 351.193C585.52 351.597 586.122 352.133 586.604 352.77C587.085 353.407 587.437 354.132 587.638 354.905C587.839 355.678 587.886 356.483 587.776 357.274C587.666 358.066 587.402 358.827 586.998 359.516C585.3 362.417 581.612 363.384 578.714 361.684C575.816 359.985 574.85 356.263 576.519 353.391C577.054 352.475 577.819 351.714 578.738 351.185C579.657 350.656 580.698 350.376 581.758 350.373C582.812 350.373 583.866 350.637 584.802 351.193H584.832ZM631.373 378.447C632.062 378.846 632.666 379.377 633.15 380.01C633.634 380.643 633.988 381.366 634.192 382.137C634.396 382.907 634.446 383.711 634.339 384.501C634.232 385.291 633.97 386.052 633.568 386.74C631.87 389.641 628.153 390.637 625.255 388.938C624.108 388.258 623.216 387.221 622.715 385.986C622.213 384.75 622.131 383.383 622.48 382.096C622.829 380.809 623.59 379.672 624.646 378.859C625.703 378.046 626.996 377.603 628.328 377.597C629.353 377.597 630.407 377.861 631.373 378.417V378.447ZM677.943 405.671C678.631 406.075 679.233 406.61 679.715 407.247C680.196 407.884 680.548 408.61 680.749 409.383C680.95 410.156 680.997 410.961 680.887 411.752C680.778 412.543 680.513 413.305 680.109 413.993C678.411 416.894 674.694 417.862 671.796 416.162C670.649 415.483 669.757 414.445 669.256 413.21C668.754 411.974 668.672 410.607 669.021 409.32C669.37 408.033 670.131 406.896 671.187 406.083C672.244 405.27 673.537 404.827 674.869 404.821C675.923 404.821 676.948 405.085 677.914 405.641L677.943 405.671ZM192.365 118.895C193.16 119.254 193.876 119.766 194.471 120.403C195.067 121.04 195.531 121.789 195.836 122.606C196.141 123.424 196.281 124.294 196.248 125.166C196.214 126.038 196.009 126.895 195.643 127.687C195.283 128.48 194.77 129.195 194.133 129.79C193.496 130.384 192.749 130.847 191.933 131.152C191.117 131.457 190.249 131.598 189.379 131.566C188.509 131.535 187.654 131.332 186.862 130.969C183.525 129.445 182.062 125.518 183.584 122.177C184.696 119.745 187.096 118.28 189.613 118.28C190.521 118.28 191.458 118.485 192.336 118.866L192.365 118.895ZM241.453 141.284C242.245 141.645 242.959 142.159 243.553 142.796C244.147 143.433 244.61 144.182 244.914 144.999C245.219 145.815 245.359 146.684 245.328 147.555C245.296 148.426 245.094 149.283 244.731 150.075C244.371 150.869 243.857 151.584 243.221 152.178C242.584 152.773 241.836 153.236 241.021 153.541C240.205 153.846 239.337 153.987 238.467 153.955C237.597 153.924 236.741 153.721 235.95 153.358C232.613 151.834 231.149 147.907 232.671 144.566C233.784 142.134 236.184 140.669 238.701 140.669C239.608 140.669 240.545 140.874 241.453 141.284ZM290.511 163.644C291.703 164.188 292.707 165.075 293.396 166.191C294.085 167.307 294.428 168.603 294.382 169.914C294.335 171.226 293.901 172.494 293.135 173.558C292.369 174.623 291.305 175.436 290.077 175.895C288.849 176.353 287.513 176.438 286.237 176.136C284.962 175.835 283.804 175.162 282.91 174.202C282.017 173.242 281.428 172.038 281.218 170.743C281.008 169.448 281.186 168.119 281.73 166.926C282.842 164.464 285.242 163.028 287.759 163.028C288.667 163.028 289.603 163.204 290.511 163.614V163.644ZM339.569 186.003C340.362 186.364 341.076 186.878 341.67 187.515C342.264 188.152 342.726 188.901 343.031 189.718C343.335 190.534 343.476 191.403 343.444 192.274C343.413 193.145 343.21 194.002 342.848 194.794C342.49 195.59 341.978 196.307 341.342 196.903C340.705 197.5 339.957 197.964 339.141 198.269C338.324 198.574 337.455 198.715 336.584 198.681C335.713 198.648 334.857 198.443 334.066 198.077C330.729 196.553 329.236 192.626 330.788 189.285C331.51 187.684 332.838 186.437 334.479 185.816C336.12 185.195 337.941 185.252 339.54 185.974L339.569 186.003ZM388.628 208.392C389.42 208.753 390.134 209.266 390.728 209.904C391.322 210.541 391.785 211.29 392.089 212.106C392.394 212.923 392.534 213.792 392.503 214.663C392.471 215.534 392.269 216.391 391.906 217.183C391.546 217.977 391.032 218.691 390.396 219.286C389.759 219.881 389.011 220.344 388.196 220.649C387.38 220.954 386.512 221.094 385.642 221.063C384.772 221.031 383.916 220.828 383.125 220.465C379.788 218.941 378.295 214.985 379.846 211.674C380.958 209.242 383.359 207.776 385.876 207.776C386.783 207.776 387.72 207.982 388.598 208.392H388.628ZM437.715 230.751C438.508 231.112 439.222 231.626 439.816 232.263C440.41 232.901 440.872 233.649 441.177 234.466C441.481 235.282 441.622 236.151 441.59 237.022C441.559 237.894 441.356 238.75 440.993 239.543C440.633 240.336 440.12 241.051 439.483 241.646C438.847 242.24 438.099 242.703 437.283 243.008C436.467 243.313 435.6 243.454 434.729 243.422C433.859 243.391 433.004 243.188 432.212 242.825C428.875 241.301 427.412 237.374 428.934 234.033C429.663 232.431 430.996 231.183 432.642 230.563C434.287 229.942 436.111 229.999 437.715 230.722V230.751ZM486.773 253.111C487.566 253.471 488.28 253.985 488.874 254.623C489.468 255.26 489.931 256.008 490.235 256.825C490.54 257.642 490.68 258.511 490.649 259.382C490.617 260.253 490.414 261.11 490.052 261.902C489.691 262.696 489.178 263.41 488.542 264.005C487.905 264.6 487.157 265.063 486.342 265.368C485.526 265.673 484.658 265.813 483.788 265.782C482.918 265.75 482.062 265.547 481.27 265.184C477.934 263.66 476.47 259.734 477.992 256.393C479.104 253.931 481.505 252.495 484.022 252.495C484.929 252.495 485.866 252.7 486.773 253.081V253.111ZM535.832 275.47C537.024 276.015 538.028 276.902 538.717 278.018C539.406 279.134 539.749 280.43 539.703 281.741C539.656 283.052 539.222 284.32 538.456 285.385C537.69 286.449 536.625 287.262 535.398 287.721C534.17 288.18 532.834 288.264 531.558 287.963C530.282 287.662 529.125 286.988 528.231 286.028C527.338 285.068 526.749 283.865 526.539 282.57C526.328 281.274 526.507 279.946 527.05 278.752C528.133 276.32 530.563 274.855 533.08 274.855C534.017 274.855 534.924 275.06 535.832 275.441V275.47ZM584.89 297.859C585.683 298.22 586.397 298.733 586.991 299.371C587.585 300.008 588.047 300.757 588.352 301.573C588.656 302.39 588.797 303.259 588.765 304.13C588.734 305.001 588.531 305.858 588.168 306.65C587.811 307.446 587.299 308.163 586.663 308.759C586.026 309.356 585.278 309.82 584.462 310.125C583.645 310.43 582.776 310.57 581.905 310.537C581.034 310.504 580.178 310.299 579.387 309.932C576.05 308.409 574.587 304.482 576.109 301.141C577.192 298.709 579.621 297.244 582.139 297.244C583.075 297.244 584.012 297.419 584.89 297.83V297.859ZM633.948 320.218C634.743 320.577 635.459 321.089 636.055 321.726C636.651 322.363 637.114 323.112 637.419 323.929C637.724 324.747 637.864 325.617 637.831 326.489C637.798 327.361 637.593 328.218 637.227 329.01C636.866 329.803 636.353 330.518 635.717 331.113C635.08 331.707 634.332 332.17 633.517 332.475C632.701 332.78 631.833 332.921 630.963 332.89C630.093 332.858 629.237 332.655 628.445 332.292C625.109 330.768 623.645 326.841 625.167 323.501C626.279 321.068 628.68 319.603 631.197 319.603C632.104 319.603 633.041 319.808 633.919 320.189L633.948 320.218ZM683.036 342.607C683.829 342.968 684.543 343.482 685.137 344.119C685.731 344.757 686.193 345.505 686.498 346.322C686.802 347.138 686.943 348.007 686.911 348.878C686.88 349.75 686.677 350.606 686.314 351.399C685.954 352.192 685.441 352.907 684.804 353.501C684.168 354.096 683.42 354.559 682.604 354.864C681.788 355.169 680.92 355.31 680.05 355.278C679.18 355.247 678.325 355.044 677.533 354.681C674.196 353.157 672.733 349.23 674.255 345.889C675.367 343.457 677.767 341.992 680.285 341.992C681.192 341.992 682.129 342.197 683.036 342.607ZM172.168 104.477C173.972 105.096 175.458 106.406 176.298 108.121C177.137 109.835 177.263 111.813 176.646 113.62C176.343 114.513 175.867 115.338 175.245 116.047C174.623 116.755 173.868 117.334 173.023 117.751C172.177 118.167 171.258 118.413 170.318 118.473C169.378 118.534 168.435 118.408 167.543 118.104C163.796 116.815 161.777 112.712 163.065 108.961C163.548 107.536 164.467 106.3 165.691 105.427C166.915 104.554 168.382 104.088 169.885 104.096C170.646 104.096 171.436 104.214 172.197 104.477H172.168ZM223.217 121.826C225.019 122.447 226.503 123.758 227.342 125.471C228.181 127.185 228.308 129.162 227.695 130.969C227.392 131.862 226.916 132.686 226.294 133.395C225.672 134.104 224.917 134.683 224.071 135.099C223.226 135.515 222.307 135.761 221.367 135.822C220.427 135.882 219.484 135.757 218.592 135.452C214.816 134.163 212.796 130.06 214.084 126.309C214.707 124.507 216.017 123.023 217.728 122.184C219.438 121.344 221.411 121.215 223.217 121.826ZM274.265 139.174C276.071 139.793 277.559 141.101 278.403 142.815C279.248 144.528 279.381 146.506 278.773 148.317C278.12 150.078 276.806 151.513 275.112 152.318C273.417 153.122 271.475 153.233 269.701 152.625C267.926 152.018 266.458 150.74 265.61 149.065C264.763 147.39 264.602 145.45 265.162 143.658C265.649 142.235 266.568 141.001 267.792 140.129C269.015 139.256 270.48 138.789 271.982 138.793C272.743 138.793 273.534 138.91 274.295 139.174H274.265ZM325.314 156.552C327.115 157.166 328.599 158.471 329.439 160.18C330.279 161.889 330.406 163.862 329.793 165.666C329.179 167.469 327.876 168.954 326.168 169.795C324.461 170.636 322.49 170.763 320.689 170.149C316.913 168.86 314.923 164.786 316.211 161.035C316.685 159.608 317.596 158.367 318.816 157.489C320.035 156.61 321.5 156.139 323.002 156.142C323.763 156.142 324.553 156.259 325.314 156.552ZM376.363 173.9C377.259 174.204 378.086 174.681 378.798 175.305C379.509 175.929 380.091 176.687 380.51 177.536C380.928 178.385 381.176 179.309 381.238 180.254C381.3 181.199 381.175 182.147 380.871 183.043C380.25 184.848 378.941 186.333 377.229 187.173C375.518 188.014 373.543 188.141 371.738 187.527C370.846 187.223 370.023 186.746 369.315 186.124C368.607 185.501 368.029 184.745 367.613 183.899C367.197 183.053 366.951 182.132 366.891 181.191C366.83 180.25 366.956 179.306 367.26 178.413C367.74 176.984 368.657 175.743 369.881 174.864C371.105 173.986 372.574 173.515 374.08 173.519C374.841 173.519 375.631 173.636 376.392 173.9H376.363ZM427.412 191.278C428.754 191.736 429.931 192.582 430.793 193.71C431.654 194.837 432.163 196.195 432.254 197.612C432.346 199.029 432.015 200.441 431.305 201.67C430.594 202.899 429.536 203.889 428.263 204.516C426.991 205.142 425.561 205.377 424.156 205.191C422.75 205.004 421.431 204.405 420.365 203.468C419.3 202.531 418.535 201.299 418.169 199.927C417.803 198.555 417.852 197.106 418.308 195.761C418.782 194.334 419.694 193.093 420.913 192.215C422.132 191.336 423.597 190.865 425.099 190.868C425.86 190.868 426.651 190.985 427.412 191.278ZM478.46 208.626C482.236 209.916 484.256 213.989 482.939 217.74C482.326 219.543 481.022 221.028 479.315 221.869C477.608 222.71 475.637 222.838 473.836 222.224C472.035 221.61 470.551 220.304 469.711 218.595C468.871 216.886 468.744 214.913 469.357 213.11C469.837 211.681 470.754 210.439 471.978 209.561C473.202 208.683 474.671 208.212 476.177 208.216C476.938 208.216 477.729 208.333 478.49 208.597L478.46 208.626ZM529.509 225.975C530.401 226.278 531.225 226.755 531.933 227.378C532.64 228 533.219 228.756 533.635 229.602C534.051 230.449 534.296 231.369 534.356 232.31C534.417 233.251 534.292 234.195 533.988 235.088C533.687 235.983 533.212 236.809 532.591 237.519C531.969 238.229 531.214 238.809 530.368 239.226C529.522 239.643 528.602 239.888 527.661 239.947C526.719 240.007 525.776 239.879 524.884 239.572C521.108 238.283 519.118 234.209 520.406 230.458C520.881 229.034 521.794 227.797 523.013 226.923C524.233 226.05 525.697 225.584 527.197 225.594C527.958 225.594 528.748 225.711 529.509 225.975ZM580.558 243.352C581.45 243.656 582.273 244.133 582.981 244.755C583.689 245.378 584.268 246.134 584.683 246.98C585.099 247.826 585.345 248.747 585.405 249.688C585.466 250.629 585.34 251.573 585.036 252.466C584.416 254.271 583.107 255.756 581.395 256.596C579.683 257.436 577.709 257.564 575.904 256.95C575.012 256.646 574.188 256.169 573.481 255.547C572.773 254.924 572.194 254.168 571.778 253.322C571.362 252.475 571.117 251.555 571.057 250.614C570.996 249.673 571.121 248.729 571.425 247.836C571.902 246.407 572.819 245.166 574.045 244.292C575.27 243.418 576.741 242.956 578.246 242.971C579.007 242.971 579.797 243.088 580.558 243.352ZM631.607 260.701C632.499 261.004 633.322 261.481 634.03 262.104C634.738 262.726 635.316 263.482 635.732 264.328C636.148 265.175 636.393 266.095 636.454 267.036C636.514 267.978 636.389 268.922 636.085 269.814C635.784 270.709 635.309 271.535 634.688 272.245C634.067 272.955 633.311 273.535 632.465 273.952C631.619 274.369 630.699 274.614 629.758 274.673C628.817 274.733 627.874 274.605 626.982 274.298C626.09 273.994 625.266 273.517 624.559 272.895C623.851 272.273 623.272 271.516 622.856 270.67C622.441 269.824 622.195 268.904 622.135 267.962C622.074 267.021 622.199 266.077 622.503 265.184C622.987 263.76 623.905 262.523 625.129 261.65C626.353 260.777 627.821 260.312 629.324 260.32C630.085 260.32 630.875 260.437 631.636 260.701H631.607ZM682.655 278.049C683.547 278.353 684.371 278.829 685.079 279.452C685.787 280.074 686.365 280.83 686.781 281.677C687.197 282.523 687.442 283.443 687.503 284.385C687.563 285.326 687.438 286.27 687.134 287.163C686.831 288.06 686.354 288.888 685.731 289.6C685.107 290.313 684.35 290.895 683.502 291.314C682.654 291.733 681.731 291.981 680.788 292.043C679.844 292.105 678.897 291.98 678.001 291.676C674.255 290.386 672.235 286.284 673.523 282.533C674.01 281.11 674.929 279.876 676.152 279.003C677.376 278.131 678.841 277.664 680.343 277.668C681.104 277.668 681.894 277.785 682.655 278.049ZM151.883 90.0888C153.886 90.559 155.62 91.8065 156.704 93.5569C157.789 95.3073 158.134 97.4171 157.664 99.4223C157.194 101.428 155.948 103.164 154.2 104.249C152.452 105.335 150.344 105.68 148.341 105.21C146.499 104.765 144.884 103.662 143.798 102.107C142.713 100.552 142.233 98.6537 142.449 96.7692C142.665 94.8848 143.562 93.1445 144.971 91.8762C146.379 90.6079 148.203 89.8992 150.097 89.8837C150.683 89.8837 151.298 89.9423 151.883 90.0888ZM204.366 102.455C206.364 102.928 208.092 104.175 209.173 105.922C210.254 107.669 210.599 109.773 210.133 111.774C209.658 113.779 208.408 115.513 206.657 116.596C204.906 117.678 202.798 118.021 200.795 117.547C196.639 116.58 194.033 112.39 195.029 108.228C195.504 106.23 196.749 104.502 198.493 103.42C200.237 102.338 202.338 101.992 204.337 102.455H204.366ZM256.849 114.822C258.848 115.302 260.577 116.555 261.657 118.306C262.737 120.057 263.082 122.165 262.616 124.17C262.136 126.172 260.885 127.902 259.135 128.984C257.386 130.065 255.28 130.41 253.278 129.943C251.279 129.463 249.55 128.21 248.47 126.459C247.39 124.708 247.045 122.6 247.512 120.595C247.988 118.591 249.238 116.859 250.989 115.776C252.739 114.694 254.846 114.351 256.849 114.822ZM309.332 127.189C311.331 127.669 313.06 128.921 314.14 130.673C315.22 132.424 315.565 134.532 315.099 136.537C314.624 138.542 313.374 140.276 311.624 141.358C309.873 142.441 307.764 142.783 305.761 142.31C301.605 141.313 299.029 137.152 299.995 132.991C300.395 131.288 301.36 129.77 302.731 128.685C304.102 127.6 305.799 127.01 307.547 127.013C308.132 127.013 308.747 127.071 309.332 127.218V127.189ZM361.815 139.555C362.806 139.786 363.741 140.211 364.567 140.805C365.394 141.399 366.095 142.151 366.63 143.016C367.166 143.882 367.526 144.845 367.689 145.85C367.852 146.855 367.816 147.883 367.582 148.874C367.35 149.866 366.926 150.802 366.333 151.629C365.74 152.457 364.989 153.158 364.124 153.695C363.26 154.231 362.298 154.591 361.294 154.755C360.29 154.918 359.263 154.881 358.273 154.647C354.117 153.68 351.512 149.489 352.507 145.328C352.901 143.627 353.86 142.11 355.226 141.024C356.592 139.939 358.285 139.348 360.03 139.35C360.615 139.35 361.23 139.409 361.815 139.555ZM414.298 151.922C416.301 152.392 418.035 153.639 419.12 155.39C420.204 157.14 420.549 159.25 420.079 161.255C419.61 163.26 418.364 164.997 416.615 166.082C414.867 167.167 412.759 167.513 410.756 167.043C408.915 166.598 407.299 165.494 406.214 163.94C405.128 162.385 404.648 160.487 404.864 158.602C405.08 156.718 405.977 154.977 407.386 153.709C408.795 152.441 410.618 151.732 412.513 151.717C413.098 151.717 413.713 151.775 414.298 151.922ZM466.781 164.288C467.77 164.521 468.704 164.947 469.528 165.541C470.352 166.136 471.051 166.888 471.584 167.754C472.117 168.62 472.474 169.583 472.635 170.587C472.795 171.592 472.755 172.618 472.518 173.607C472.287 174.599 471.863 175.535 471.27 176.362C470.676 177.19 469.926 177.892 469.061 178.428C468.197 178.964 467.235 179.324 466.23 179.488C465.226 179.651 464.2 179.615 463.21 179.38C459.054 178.413 456.449 174.223 457.444 170.061C457.919 168.063 459.165 166.335 460.909 165.253C462.653 164.171 464.753 163.824 466.752 164.288H466.781ZM519.264 176.655C521.264 177.135 522.992 178.388 524.072 180.139C525.153 181.89 525.497 183.998 525.031 186.003C524.551 188.005 523.3 189.735 521.551 190.816C519.801 191.898 517.696 192.243 515.693 191.776C513.851 191.331 512.236 190.228 511.15 188.673C510.065 187.118 509.585 185.22 509.801 183.335C510.017 181.451 510.914 179.71 512.323 178.442C513.731 177.174 515.555 176.465 517.45 176.45C518.035 176.45 518.65 176.508 519.235 176.655H519.264ZM571.747 189.021C572.738 189.253 573.673 189.678 574.5 190.272C575.326 190.865 576.027 191.617 576.563 192.483C577.098 193.348 577.458 194.311 577.621 195.316C577.785 196.322 577.748 197.349 577.514 198.34C577.04 200.345 575.79 202.079 574.039 203.162C572.288 204.244 570.179 204.587 568.176 204.113C564.02 203.146 561.444 198.956 562.41 194.765C562.886 192.761 564.137 191.029 565.887 189.947C567.637 188.864 569.745 188.521 571.747 188.992V189.021ZM624.23 201.388C626.233 201.863 627.965 203.114 629.047 204.867C630.128 206.62 630.47 208.731 629.997 210.736C629.517 212.738 628.266 214.468 626.517 215.55C624.767 216.631 622.662 216.976 620.659 216.509C616.503 215.513 613.927 211.352 614.922 207.161C615.317 205.46 616.275 203.943 617.641 202.857C619.007 201.772 620.701 201.181 622.445 201.183C623.03 201.183 623.645 201.241 624.23 201.388ZM676.713 213.754C678.716 214.229 680.448 215.481 681.53 217.234C682.611 218.986 682.953 221.098 682.48 223.103C682.249 224.094 681.824 225.031 681.231 225.858C680.638 226.685 679.887 227.387 679.023 227.923C678.158 228.46 677.196 228.82 676.192 228.983C675.188 229.147 674.162 229.11 673.172 228.876C669.015 227.879 666.41 223.718 667.405 219.528C667.8 217.826 668.758 216.309 670.124 215.224C671.49 214.138 673.184 213.548 674.928 213.549C675.513 213.549 676.128 213.608 676.713 213.754ZM131.51 75.7588C133.691 76.0749 135.66 77.2407 136.986 79.0025C138.313 80.7643 138.891 82.9794 138.594 85.1656C138.282 87.349 137.117 89.3192 135.356 90.6434C133.594 91.9676 131.379 92.5376 129.198 92.228C127.017 91.9159 125.049 90.7499 123.726 88.9861C122.404 87.2223 121.834 85.005 122.144 82.8213C122.421 80.8358 123.406 79.018 124.918 77.7036C126.43 76.3893 128.366 75.6672 130.369 75.6709C130.749 75.6709 131.13 75.6709 131.54 75.7295L131.51 75.7588ZM184.901 83.2901C187.082 83.6022 189.05 84.7682 190.372 86.532C191.695 88.2958 192.264 90.5132 191.955 92.6969C191.806 93.7774 191.445 94.8178 190.892 95.7582C190.34 96.6986 189.608 97.5205 188.738 98.1768C187.867 98.833 186.876 99.3106 185.821 99.5822C184.765 99.8538 183.667 99.914 182.588 99.7593C178.051 99.144 174.89 94.9241 175.534 90.3819C175.811 88.3965 176.797 86.5786 178.309 85.2642C179.821 83.9498 181.757 83.2278 183.759 83.2315C184.14 83.2315 184.52 83.2315 184.93 83.2901H184.901ZM238.291 90.8214C240.472 91.1335 242.44 92.2996 243.763 94.0634C245.086 95.8271 245.655 98.0445 245.346 100.228C245.196 101.309 244.835 102.349 244.283 103.289C243.731 104.23 242.998 105.052 242.128 105.708C241.258 106.364 240.266 106.842 239.211 107.114C238.156 107.385 237.057 107.445 235.979 107.291C231.442 106.675 228.281 102.455 228.895 97.8839C229.177 95.9005 230.164 94.0854 231.675 92.7719C233.186 91.4585 235.119 90.7347 237.12 90.7335C237.501 90.7335 237.881 90.7335 238.291 90.7921V90.8214ZM291.682 98.3527C292.765 98.5027 293.807 98.8653 294.75 99.4196C295.693 99.974 296.517 100.709 297.175 101.583C297.833 102.457 298.312 103.453 298.585 104.513C298.858 105.573 298.919 106.676 298.765 107.759C298.449 109.943 297.284 111.913 295.525 113.241C293.765 114.569 291.553 115.148 289.369 114.851C287.188 114.539 285.22 113.373 283.898 111.609C282.575 109.846 282.006 107.628 282.315 105.444C282.466 104.362 282.83 103.32 283.385 102.379C283.939 101.437 284.674 100.615 285.547 99.9589C286.42 99.3026 287.414 98.8255 288.472 98.5549C289.53 98.2843 290.63 98.2256 291.711 98.382L291.682 98.3527ZM345.072 105.884C349.609 106.499 352.77 110.719 352.126 115.291C351.817 117.472 350.658 119.441 348.904 120.77C347.149 122.099 344.94 122.678 342.76 122.383C340.579 122.07 338.611 120.904 337.288 119.141C335.966 117.377 335.396 115.159 335.705 112.976C335.857 111.893 336.22 110.852 336.775 109.91C337.33 108.969 338.065 108.146 338.938 107.49C339.811 106.834 340.805 106.357 341.862 106.086C342.92 105.816 344.021 105.757 345.101 105.913L345.072 105.884ZM398.463 113.415C399.542 113.565 400.581 113.926 401.52 114.479C402.46 115.032 403.281 115.765 403.936 116.637C404.592 117.508 405.069 118.5 405.34 119.557C405.611 120.613 405.671 121.713 405.517 122.793C405.368 123.875 405.008 124.917 404.457 125.859C403.905 126.802 403.174 127.626 402.303 128.285C401.433 128.943 400.442 129.424 399.386 129.698C398.33 129.973 397.231 130.036 396.15 129.885C391.613 129.24 388.452 125.02 389.067 120.478C389.378 118.294 390.543 116.324 392.305 115C394.067 113.676 396.281 113.106 398.463 113.415ZM451.853 120.947C452.934 121.099 453.974 121.464 454.913 122.02C455.853 122.575 456.674 123.311 457.329 124.185C457.985 125.059 458.461 126.053 458.732 127.112C459.003 128.17 459.062 129.272 458.907 130.353C458.263 134.896 454.048 138.09 449.541 137.445C445.004 136.8 441.813 132.581 442.457 128.038C442.608 126.953 442.973 125.909 443.529 124.965C444.086 124.022 444.824 123.198 445.7 122.541C446.576 121.885 447.574 121.408 448.635 121.139C449.696 120.871 450.8 120.815 451.882 120.976L451.853 120.947ZM505.214 128.478C507.395 128.795 509.363 129.961 510.689 131.722C512.016 133.484 512.594 135.699 512.298 137.885C511.986 140.068 510.821 142.038 509.06 143.363C507.298 144.687 505.083 145.257 502.902 144.947C498.365 144.302 495.204 140.112 495.847 135.54C496.125 133.555 497.11 131.737 498.622 130.423C500.134 129.108 502.07 128.386 504.073 128.39C504.453 128.39 504.834 128.39 505.243 128.449L505.214 128.478ZM558.605 136.009C560.786 136.321 562.753 137.487 564.076 139.251C565.399 141.015 565.968 143.232 565.659 145.416C565.508 146.496 565.145 147.535 564.593 148.474C564.04 149.414 563.308 150.235 562.438 150.891C561.568 151.547 560.577 152.025 559.523 152.297C558.468 152.569 557.371 152.631 556.292 152.478C551.755 151.863 548.594 147.643 549.209 143.101C549.49 141.118 550.477 139.303 551.988 137.989C553.499 136.676 555.433 135.952 557.434 135.951C557.814 135.951 558.195 135.951 558.605 136.009ZM611.995 143.541C614.176 143.853 616.144 145.019 617.467 146.782C618.789 148.546 619.359 150.764 619.049 152.947C618.898 154.027 618.536 155.066 617.983 156.006C617.43 156.945 616.698 157.766 615.828 158.422C614.958 159.078 613.968 159.556 612.913 159.828C611.859 160.101 610.761 160.162 609.683 160.01C605.146 159.394 601.984 155.174 602.599 150.603C602.881 148.62 603.868 146.805 605.379 145.491C606.89 144.178 608.823 143.454 610.824 143.453C611.205 143.453 611.585 143.453 611.995 143.511V143.541ZM665.386 151.072C669.923 151.687 673.084 155.907 672.44 160.479C672.127 162.658 670.967 164.625 669.213 165.953C667.459 167.281 665.253 167.862 663.073 167.57C661 167.267 659.118 166.191 657.804 164.558C656.489 162.925 655.839 160.855 655.983 158.762C656.128 156.67 657.056 154.709 658.582 153.273C660.108 151.836 662.12 151.029 664.215 151.013C664.595 151.013 665.005 151.013 665.415 151.101L665.386 151.072ZM718.747 158.603C723.284 159.219 726.445 163.438 725.83 168.01C725.515 170.193 724.35 172.164 722.59 173.492C720.831 174.82 718.618 175.399 716.434 175.102C714.253 174.79 712.285 173.624 710.963 171.86C709.64 170.096 709.071 167.879 709.38 165.695C709.531 164.612 709.895 163.571 710.45 162.629C711.004 161.688 711.739 160.865 712.612 160.209C713.485 159.553 714.479 159.076 715.537 158.805C716.595 158.535 717.696 158.476 718.776 158.632L718.747 158.603ZM111.108 61.5168C113.427 61.6858 115.586 62.7591 117.121 64.5057C118.657 66.2524 119.447 68.5328 119.32 70.8562C119.193 73.1797 118.161 75.3605 116.445 76.9295C114.728 78.4986 112.465 79.3304 110.142 79.2461C107.794 79.1175 105.593 78.0604 104.023 76.3074C102.453 74.5544 101.643 72.2488 101.771 69.8979C101.896 67.6269 102.885 65.49 104.534 63.9259C106.183 62.3618 108.368 61.4893 110.64 61.4875H111.138L111.108 61.5168ZM164.938 64.4765C167.286 64.6052 169.487 65.6622 171.057 67.4152C172.627 69.1683 173.437 71.4737 173.309 73.8247C173.182 76.1783 172.127 78.3852 170.377 79.9617C168.626 81.5382 166.323 82.3558 163.972 82.2352C161.624 82.1065 159.423 81.0495 157.853 79.2964C156.283 77.5434 155.473 75.2379 155.6 72.887C155.725 70.616 156.714 68.479 158.363 66.9149C160.013 65.3508 162.198 64.4783 164.47 64.4765H164.967H164.938ZM218.797 67.407C221.115 67.5761 223.274 68.6494 224.81 70.396C226.345 72.1426 227.135 74.423 227.008 76.7464C226.882 79.0699 225.849 81.2508 224.133 82.8198C222.417 84.3889 220.154 85.2207 217.831 85.1363C215.483 85.0077 213.281 83.9507 211.712 82.1976C210.142 80.4446 209.332 78.1391 209.459 75.7881C209.582 73.5217 210.567 71.3882 212.21 69.8246C213.854 68.2609 216.032 67.3855 218.299 67.3777H218.797V67.407ZM272.626 70.3375C274.944 70.5065 277.104 71.5798 278.639 73.3265C280.175 75.0731 280.964 77.3535 280.838 79.6769C280.711 82.0004 279.679 84.1812 277.962 85.7503C276.246 87.3193 273.983 88.1511 271.66 88.0668C266.743 87.803 262.996 83.6125 263.259 78.7186C263.389 76.4493 264.379 74.3152 266.028 72.7521C267.676 71.1891 269.858 70.3149 272.129 70.3081H272.626V70.3375ZM326.485 73.2679C328.833 73.3966 331.034 74.4536 332.604 76.2066C334.174 77.9597 334.984 80.2651 334.857 82.6161C334.729 84.97 333.675 87.1773 331.925 88.754C330.174 90.3307 327.871 91.1479 325.519 91.0266C323.171 90.8979 320.97 89.8409 319.4 88.0878C317.83 86.3348 317.02 84.0293 317.148 81.6784C317.268 79.4056 318.255 77.2658 319.905 75.7007C321.556 74.1356 323.743 73.2648 326.017 73.2679H326.514H326.485ZM380.315 76.2277C382.066 76.3231 383.75 76.9364 385.154 77.99C386.557 79.0437 387.617 80.4903 388.199 82.1471C388.782 83.8038 388.86 85.5962 388.425 87.2976C387.989 88.9989 387.06 90.5328 385.754 91.7052C384.447 92.8776 382.823 93.6359 381.087 93.8841C379.35 94.1323 377.579 93.8593 375.997 93.0998C374.415 92.3401 373.094 91.128 372.201 89.6166C371.307 88.1052 370.881 86.3625 370.977 84.6088C371.1 82.3424 372.084 80.2089 373.728 78.6452C375.371 77.0816 377.55 76.2063 379.817 76.1984H380.315V76.2277ZM434.173 79.1582C436.491 79.3272 438.651 80.4005 440.186 82.1472C441.722 83.8938 442.511 86.1741 442.385 88.4976C442.258 90.821 441.226 93.0019 439.509 94.571C437.793 96.14 435.53 96.9719 433.207 96.8875C430.859 96.7589 428.658 95.7018 427.088 93.9488C425.518 92.1957 424.708 89.8903 424.836 87.5393C424.961 85.2683 425.949 83.1313 427.599 81.5673C429.248 80.0032 431.433 79.1307 433.705 79.1289H434.203L434.173 79.1582ZM488.032 82.0886C490.38 82.2173 492.581 83.2743 494.151 85.0273C495.721 86.7804 496.531 89.0859 496.404 91.4368C496.271 93.7888 495.215 95.9929 493.466 97.5684C491.717 99.144 489.416 99.9632 487.066 99.8473C484.718 99.7186 482.517 98.6616 480.947 96.9086C479.377 95.1555 478.567 92.85 478.695 90.4991C478.813 88.2309 479.796 86.0945 481.44 84.5299C483.085 82.9652 485.266 82.0916 487.534 82.0886H488.032ZM541.862 85.0484C544.18 85.2174 546.339 86.2907 547.875 88.0374C549.41 89.784 550.2 92.0644 550.073 94.3879C549.947 96.7113 548.914 98.8922 547.198 100.461C545.481 102.03 543.218 102.862 540.896 102.778C538.547 102.649 536.346 101.592 534.776 99.839C533.207 98.086 532.396 95.7805 532.524 93.4295C532.649 91.1585 533.638 89.0216 535.287 87.4575C536.936 85.8934 539.121 85.0209 541.393 85.0191H541.891L541.862 85.0484ZM595.72 87.9789C598.038 88.1479 600.198 89.2212 601.733 90.9679C603.269 92.7145 604.059 94.9949 603.932 97.3183C603.805 99.6418 602.773 101.823 601.056 103.392C599.34 104.961 597.077 105.793 594.754 105.708C592.406 105.58 590.205 104.523 588.635 102.77C587.065 101.016 586.255 98.7109 586.383 96.36C586.501 94.0918 587.484 91.9554 589.128 90.3908C590.773 88.8262 592.954 87.9525 595.223 87.9496H595.72V87.9789ZM649.55 90.9093C651.898 91.0379 654.099 92.095 655.669 93.8481C657.239 95.6011 658.049 97.9066 657.921 100.258C657.789 102.609 656.733 104.814 654.984 106.389C653.235 107.965 650.934 108.784 648.584 108.668C643.696 108.375 639.949 104.214 640.212 99.3198C640.337 97.0488 641.326 94.9118 642.975 93.3477C644.625 91.7837 646.81 90.9111 649.082 90.9093H649.579H649.55ZM703.409 93.8691C705.727 94.0382 707.886 95.1115 709.422 96.8581C710.957 98.6047 711.747 100.885 711.62 103.209C711.494 105.532 710.461 107.713 708.745 109.282C707.028 110.851 704.765 111.683 702.443 111.598C700.095 111.47 697.893 110.413 696.324 108.66C694.754 106.907 693.944 104.601 694.071 102.25C694.19 99.9821 695.172 97.8457 696.817 96.2811C698.461 94.7165 700.642 93.8427 702.911 93.8398H703.409V93.8691ZM693.193 42.0291C693.225 43.2685 693.012 44.5019 692.567 45.6589C692.122 46.8159 691.453 47.8737 690.6 48.7718C689.746 49.67 688.724 50.3908 687.592 50.8932C686.46 51.3956 685.24 51.6697 684.002 51.6997C682.764 51.7313 681.532 51.5182 680.376 51.0727C679.221 50.6272 678.164 49.958 677.267 49.1035C676.37 48.2488 675.65 47.2256 675.148 46.0922C674.646 44.9588 674.372 43.7374 674.342 42.498C674.311 41.2587 674.524 40.0253 674.969 38.8683C675.414 37.7113 676.082 36.6535 676.936 35.7554C677.789 34.8572 678.811 34.1364 679.944 33.634C681.076 33.1316 682.296 32.8575 683.534 32.8275H683.768C688.861 32.8275 693.076 36.9008 693.193 42.0291ZM639.305 43.3479C639.337 44.5872 639.124 45.8207 638.679 46.9776C638.234 48.1346 637.565 49.1924 636.712 50.0905C635.858 50.9887 634.836 51.7096 633.704 52.212C632.572 52.7144 631.352 52.9884 630.114 53.0184C628.876 53.05 627.644 52.8369 626.488 52.3914C625.333 51.9459 624.276 51.2767 623.379 50.4221C622.482 49.5675 621.762 48.5443 621.26 47.4109C620.758 46.2775 620.484 45.0562 620.454 43.8167C620.423 42.5774 620.636 41.344 621.081 40.187C621.526 39.0301 622.194 37.9722 623.048 37.074C623.901 36.1759 624.923 35.455 626.056 34.9527C627.188 34.4503 628.408 34.1762 629.646 34.1462H629.88C634.973 34.1462 639.188 38.2195 639.305 43.3479ZM585.388 44.6666C585.534 49.8535 581.407 54.1906 576.197 54.3371C573.699 54.3907 571.282 53.4533 569.472 51.7295C567.663 50.0056 566.608 47.6352 566.537 45.1354C566.478 42.6337 567.413 40.2107 569.136 38.3978C570.859 36.5849 573.23 35.5302 575.728 35.4649H575.962C581.056 35.4649 585.271 39.5383 585.388 44.6959V44.6666ZM531.5 45.9853C531.646 51.2015 527.519 55.5093 522.309 55.6558C519.81 55.7148 517.389 54.7793 515.579 53.0543C513.768 51.3293 512.714 48.9557 512.649 46.4541C512.59 43.9524 513.525 41.5294 515.248 39.7166C516.971 37.9037 519.341 36.8489 521.84 36.7837H522.074C527.168 36.7837 531.383 40.857 531.5 46.0146V45.9853ZM477.612 47.304C477.671 49.8057 476.736 52.2287 475.013 54.0416C473.29 55.8545 470.919 56.9092 468.42 56.9745C465.922 57.0336 463.501 56.098 461.691 54.373C459.88 52.648 458.826 50.2744 458.761 47.7729C458.727 46.5329 458.938 45.2985 459.382 44.1405C459.827 42.9825 460.495 41.9238 461.349 41.0252C462.203 40.1266 463.226 39.4057 464.359 38.9041C465.492 38.4026 466.713 38.13 467.952 38.1023H468.186C473.279 38.1023 477.495 42.1757 477.612 47.304ZM423.724 48.6227C423.783 51.1245 422.848 53.5474 421.125 55.3603C419.402 57.1732 417.031 58.228 414.532 58.2932C409.322 58.4398 405.019 54.3078 404.873 49.0916C404.826 46.5882 405.768 44.1674 407.495 42.3563C409.222 40.5451 411.593 39.4902 414.093 39.4211H414.328C419.421 39.4211 423.606 43.4944 423.753 48.6227H423.724ZM369.835 49.9414C369.867 51.1808 369.654 52.4142 369.209 53.5712C368.764 54.7281 368.096 55.7859 367.242 56.6841C366.389 57.5822 365.367 58.3031 364.234 58.8055C363.102 59.3079 361.882 59.5819 360.644 59.612C358.147 59.6656 355.73 58.7282 353.92 57.0043C352.111 55.2805 351.055 52.9101 350.985 50.4103C350.928 47.9041 351.867 45.4776 353.596 43.6642C355.324 41.8508 357.702 40.7989 360.205 40.7397H360.439C365.533 40.7397 369.718 44.8131 369.865 49.9414H369.835ZM315.947 51.2601C315.979 52.4995 315.766 53.7329 315.321 54.8899C314.876 56.0468 314.208 57.1046 313.354 58.0028C312.501 58.9009 311.478 59.6218 310.346 60.1242C309.214 60.6266 307.994 60.9006 306.756 60.9307C304.257 60.9897 301.837 60.0541 300.026 58.3292C298.216 56.6042 297.162 54.2306 297.097 51.729C297.039 49.2275 297.973 46.8049 299.696 44.9922C301.419 43.1794 303.79 42.1245 306.288 42.0584H306.522C311.615 42.0584 315.83 46.1318 315.947 51.2601ZM262.059 52.5788C262.091 53.8182 261.878 55.0516 261.433 56.2086C260.988 57.3655 260.32 58.4233 259.466 59.3215C258.612 60.2196 257.59 60.9405 256.458 61.4429C255.326 61.9453 254.106 62.2193 252.868 62.2494C251.63 62.2809 250.398 62.0679 249.243 61.6224C248.087 61.1769 247.03 60.5078 246.133 59.6531C245.236 58.7985 244.516 57.7752 244.014 56.6418C243.513 55.5084 243.239 54.2871 243.209 53.0477C243.177 51.8083 243.39 50.5749 243.835 49.418C244.28 48.261 244.948 47.2032 245.802 46.305C246.656 45.4069 247.678 44.686 248.81 44.1836C249.942 43.6812 251.162 43.4072 252.4 43.3771H252.634C257.727 43.3771 261.942 47.4505 262.059 52.5788ZM208.171 53.8976C208.203 55.1369 207.99 56.3703 207.545 57.5273C207.1 58.6842 206.432 59.742 205.578 60.6402C204.724 61.5383 203.702 62.2592 202.57 62.7616C201.438 63.264 200.218 63.538 198.98 63.5681C197.742 63.5996 196.51 63.3866 195.355 62.9411C194.199 62.4956 193.142 61.8264 192.245 60.9718C191.348 60.1172 190.628 59.094 190.126 57.9606C189.624 56.8271 189.351 55.6058 189.321 54.3664C189.289 53.127 189.502 51.8936 189.947 50.7367C190.392 49.5797 191.06 48.5219 191.914 47.6237C192.768 46.7256 193.79 46.0047 194.922 45.5023C196.054 44.9999 197.274 44.7259 198.512 44.6959H198.746C203.839 44.6959 208.054 48.7692 208.171 53.8976ZM154.283 55.2162C154.337 57.7165 153.401 60.1364 151.679 61.9481C149.957 63.7598 147.589 64.8162 145.092 64.8868C143.854 64.918 142.622 64.7046 141.467 64.259C140.312 63.8134 139.255 63.1442 138.358 62.2896C137.461 61.4351 136.741 60.412 136.239 59.2788C135.737 58.1455 135.463 56.9244 135.433 55.6852C135.374 53.1834 136.308 50.7604 138.031 48.9475C139.754 47.1346 142.125 46.0799 144.624 46.0146H144.858C149.951 46.0146 154.166 50.0879 154.283 55.2455V55.2162ZM100.395 56.5057C100.426 57.7473 100.212 58.9827 99.7645 60.1412C99.3174 61.2997 98.6464 62.3584 97.7898 63.2568C96.9333 64.1552 95.9081 64.8755 94.7729 65.3765C93.6378 65.8774 92.415 66.1492 91.1748 66.1762C88.6774 66.2298 86.2603 65.2924 84.4507 63.5685C82.6411 61.8447 81.5859 59.4743 81.5154 56.9745C81.4838 55.7351 81.6967 54.5017 82.1416 53.3448C82.5866 52.1878 83.255 51.13 84.1086 50.2319C84.9622 49.3337 85.9844 48.6128 87.1165 48.1104C88.2486 47.6081 89.4685 47.334 90.7065 47.304H90.9407C96.0338 47.304 100.249 51.3773 100.366 56.5057H100.395ZM725.04 -20.3019C725.168 -18.9932 725.037 -17.6721 724.655 -16.4142C724.272 -15.1563 723.646 -13.9862 722.811 -12.9709C721.976 -11.9557 720.95 -11.1153 719.79 -10.4976C718.631 -9.87988 717.361 -9.49707 716.054 -9.37119C714.747 -9.24301 713.427 -9.37415 712.171 -9.75708C710.914 -10.14 709.745 -10.7672 708.731 -11.6028C707.717 -12.4384 706.878 -13.4661 706.261 -14.6269C705.644 -15.7877 705.261 -17.0589 705.136 -18.3677C704.609 -23.877 708.648 -28.7416 714.151 -29.2984C714.473 -29.3277 714.795 -29.3277 715.117 -29.3277C720.21 -29.3277 724.542 -25.4595 725.069 -20.3019H725.04ZM671.386 -15.115C671.514 -13.8063 671.383 -12.4852 671.001 -11.2273C670.618 -9.96942 669.992 -8.79932 669.157 -7.78406C668.322 -6.7688 667.296 -5.92828 666.136 -5.31058C664.977 -4.6929 663.707 -4.31018 662.4 -4.1843C656.897 -3.65683 652.009 -7.70081 651.482 -13.2101C650.955 -18.6901 654.994 -23.584 660.468 -24.1408C660.819 -24.1408 661.141 -24.1701 661.463 -24.1701C666.556 -24.1701 670.889 -20.3018 671.415 -15.1442L671.386 -15.115ZM617.732 -9.92798C617.985 -7.28613 617.181 -4.6517 615.497 -2.60254C613.812 -0.553375 611.384 0.743103 608.746 1.00259C606.107 1.25589 603.476 0.450989 601.429 -1.2356C599.382 -2.92215 598.087 -5.35263 597.828 -7.99387C597.569 -10.6323 598.367 -13.2656 600.047 -15.3152C601.726 -17.3648 604.15 -18.6631 606.785 -18.9245C607.136 -18.9245 607.458 -18.9539 607.78 -18.9539C612.873 -18.9539 617.205 -15.0856 617.703 -9.92798H617.732ZM564.078 -4.71176C564.327 -2.07071 563.522 0.561615 561.838 2.60983C560.154 4.65808 557.729 5.9556 555.092 6.21881C552.453 6.47211 549.822 5.66721 547.775 3.98065C545.728 2.29407 544.433 -0.136383 544.174 -2.77765C543.921 -5.41949 544.725 -8.05392 546.41 -10.1031C548.094 -12.1523 550.522 -13.4488 553.16 -13.7083C553.512 -13.7083 553.833 -13.7376 554.155 -13.7376C559.249 -13.7376 563.581 -9.86945 564.108 -4.68253L564.078 -4.71176ZM510.424 0.475128C510.951 5.95511 506.912 10.849 501.438 11.4058C500.131 11.534 498.812 11.4028 497.555 11.0199C496.299 10.637 495.13 10.0098 494.116 9.17416C493.102 8.33853 492.262 7.31094 491.645 6.15015C491.028 4.98935 490.646 3.71811 490.52 2.40924C490.267 -0.232605 491.071 -2.86703 492.756 -4.9162C494.44 -6.96536 496.868 -8.26193 499.506 -8.52142C499.858 -8.55072 500.18 -8.57999 500.502 -8.57999C505.595 -8.57999 509.927 -4.71179 510.454 0.475128H510.424ZM456.771 5.66211C457.024 8.30399 456.22 10.9384 454.535 12.9876C452.85 15.0367 450.423 16.3332 447.784 16.5927C446.477 16.7209 445.158 16.5898 443.901 16.2068C442.645 15.8239 441.476 15.1967 440.462 14.3611C439.448 13.5254 438.608 12.4978 437.991 11.337C437.374 10.1762 436.992 8.90503 436.866 7.59616C436.613 4.95428 437.417 2.31985 439.102 0.270691C440.787 -1.77847 443.214 -3.07495 445.852 -3.33444C446.204 -3.36374 446.526 -3.3931 446.818 -3.3931C451.912 -3.3931 456.273 0.475189 456.771 5.66211ZM403.117 10.849C403.37 13.4909 402.566 16.1253 400.881 18.1745C399.196 20.2236 396.769 21.5202 394.13 21.7797C392.823 21.9079 391.504 21.7766 390.247 21.3937C388.991 21.0108 387.822 20.3835 386.808 19.5479C385.794 18.7123 384.954 17.6847 384.337 16.5239C383.72 15.3631 383.338 14.092 383.212 12.7831C382.685 7.27386 386.725 2.40924 392.199 1.85245C392.55 1.82315 392.872 1.79388 393.194 1.79388C398.287 1.79388 402.619 5.66208 403.146 10.849H403.117ZM349.463 16.0359C349.716 18.6778 348.912 21.3122 347.227 23.3614C345.543 25.4105 343.115 26.7071 340.477 26.9666C339.169 27.0948 337.85 26.9636 336.593 26.5807C335.337 26.1978 334.168 25.5705 333.154 24.7349C332.14 23.8993 331.3 22.8717 330.684 21.7109C330.067 20.5501 329.684 19.2789 329.558 17.97C329.305 15.3282 330.109 12.6937 331.794 10.6446C333.479 8.59543 335.906 7.29883 338.545 7.03934C338.896 7.01004 339.218 7.0101 339.54 7.0101C344.633 7.0101 348.965 10.8783 349.492 16.0359H349.463ZM295.809 21.2229C296.062 23.8647 295.258 26.4992 293.573 28.5483C291.889 30.5975 289.461 31.894 286.823 32.1535C284.184 32.4068 281.552 31.6019 279.506 29.9153C277.459 28.2287 276.164 25.7982 275.905 23.1569C275.652 20.5151 276.456 17.8806 278.14 15.8315C279.825 13.7823 282.253 12.4858 284.891 12.2263C285.242 12.2263 285.564 12.197 285.886 12.197C290.979 12.197 295.311 16.0653 295.838 21.2229H295.809ZM242.155 26.4098C242.407 29.0561 241.599 31.6942 239.908 33.744C238.217 35.7938 235.783 37.0875 233.14 37.3405C227.666 37.868 222.778 33.8239 222.221 28.3439C222.093 27.0352 222.224 25.7142 222.607 24.4563C222.989 23.1983 223.616 22.0283 224.451 21.013C225.285 19.9977 226.312 19.1572 227.471 18.5395C228.631 17.9218 229.9 17.5391 231.208 17.4132C231.53 17.4132 231.852 17.384 232.203 17.384C237.296 17.384 241.628 21.2522 242.155 26.4098ZM188.472 31.626C188.722 34.2626 187.921 36.8913 186.243 38.9389C184.565 40.9865 182.147 42.2869 179.515 42.5566C178.208 42.6848 176.888 42.5536 175.632 42.1707C174.375 41.7878 173.207 41.1606 172.192 40.325C171.178 39.4894 170.339 38.4618 169.722 37.301C169.105 36.1402 168.723 34.869 168.597 33.5601C168.469 32.2515 168.6 30.9304 168.982 29.6725C169.365 28.4146 169.991 27.2445 170.826 26.2292C171.661 25.214 172.687 24.3734 173.846 23.7557C175.006 23.1381 176.276 22.7553 177.583 22.6295C177.905 22.6002 178.256 22.5709 178.578 22.5709C183.671 22.5709 188.004 26.4391 188.501 31.626H188.472ZM134.818 36.8129C135.065 39.4582 134.255 42.0938 132.565 44.1425C130.876 46.1912 128.444 47.4861 125.802 47.7436C123.164 47.9968 120.532 47.1919 118.485 45.5053C116.439 43.8188 115.144 41.3883 114.884 38.747C114.756 37.4384 114.887 36.1173 115.27 34.8594C115.652 33.6015 116.279 32.4315 117.113 31.4162C117.948 30.4009 118.975 29.5604 120.134 28.9427C121.294 28.325 122.563 27.9423 123.871 27.8164C124.193 27.7871 124.515 27.7578 124.837 27.7578C129.93 27.7578 134.291 31.626 134.789 36.8129H134.818ZM81.1348 41.9998C81.3937 44.6382 80.5956 47.2715 78.9161 49.3212C77.2366 51.3708 74.813 52.669 72.1779 52.9305C70.8707 53.0587 69.5511 52.9275 68.2947 52.5446C67.0382 52.1617 65.8695 51.5345 64.8554 50.6989C63.8414 49.8632 63.0018 48.8356 62.3848 47.6748C61.7678 46.514 61.3856 45.2428 61.2598 43.9339C61.1318 42.6253 61.2628 41.3043 61.6453 40.0464C62.0277 38.7885 62.6542 37.6183 63.4889 36.6031C64.3235 35.5879 65.35 34.7473 66.5095 34.1296C67.6689 33.5119 68.9386 33.1292 70.246 33.0033C70.568 32.974 70.89 32.9448 71.2119 32.9448C76.3051 32.9448 80.6372 36.8129 81.1641 41.9998H81.1348ZM753.491 -85.5341C753.924 -82.7752 753.248 -79.9571 751.612 -77.6954C749.976 -75.4337 747.512 -73.912 744.759 -73.463C742.006 -73.0139 739.187 -73.674 736.918 -75.2987C734.649 -76.9235 733.115 -79.3811 732.65 -82.1347C731.714 -87.9077 735.607 -93.3584 741.373 -94.2668C741.959 -94.3547 742.515 -94.4134 743.1 -94.4134C748.164 -94.4134 752.672 -90.721 753.521 -85.5341H753.491ZM700.277 -76.8306C700.504 -75.4601 700.459 -74.0579 700.143 -72.705C699.828 -71.3521 699.248 -70.075 698.437 -68.9474C697.626 -67.8197 696.601 -66.8638 695.419 -66.1346C694.238 -65.4054 692.924 -64.9173 691.554 -64.6984C688.79 -64.2477 685.961 -64.9145 683.688 -66.5522C681.416 -68.1899 679.886 -70.6644 679.436 -73.4312C678.47 -79.175 682.392 -84.6256 688.158 -85.5633C688.744 -85.6512 689.3 -85.6806 689.856 -85.6806C694.949 -85.6806 699.428 -82.0175 700.277 -76.8306ZM647.091 -68.0978C647.541 -65.3309 646.875 -62.4983 645.239 -60.2231C643.604 -57.9479 641.132 -56.4165 638.368 -55.9657C636.999 -55.7377 635.599 -55.7831 634.247 -56.0992C632.896 -56.4153 631.621 -56.9959 630.494 -57.8076C629.368 -58.6193 628.413 -59.6459 627.685 -60.8286C626.956 -62.0112 626.469 -63.3264 626.25 -64.6984C625.8 -67.4653 626.466 -70.2979 628.102 -72.5731C629.738 -74.8483 632.209 -76.3798 634.973 -76.8306C635.558 -76.9478 636.114 -76.9771 636.7 -76.9771C641.764 -76.9771 646.242 -73.2847 647.12 -68.0978H647.091ZM593.876 -59.3943C594.309 -56.6354 593.633 -53.8173 591.997 -51.5556C590.36 -49.2939 587.897 -47.7723 585.144 -47.3233C582.39 -46.8742 579.572 -47.5341 577.303 -49.1589C575.034 -50.7837 573.5 -53.2413 573.035 -55.9949C572.099 -61.7679 575.992 -67.2187 581.758 -68.1271C582.344 -68.215 582.9 -68.2736 583.485 -68.2736C588.578 -68.2736 593.057 -64.5812 593.906 -59.3943H593.876ZM540.661 -50.6908C540.891 -49.32 540.847 -47.9173 540.532 -46.5636C540.217 -45.2099 539.638 -43.9321 538.827 -42.804C538.016 -41.6759 536.989 -40.72 535.807 -39.9913C534.625 -39.2626 533.31 -38.7757 531.939 -38.5587C529.175 -38.108 526.346 -38.7748 524.073 -40.4125C521.801 -42.0502 520.271 -44.5246 519.82 -47.2914C518.855 -53.0352 522.777 -58.4859 528.543 -59.4236C529.129 -59.5115 529.685 -59.5408 530.241 -59.5408C535.334 -59.5408 539.813 -55.8777 540.661 -50.6908ZM487.476 -41.958C487.926 -39.1911 487.26 -36.3586 485.624 -34.0834C483.988 -31.8082 481.517 -30.2767 478.753 -29.8259C473.016 -28.8588 467.572 -32.7857 466.635 -38.5587C466.185 -41.3256 466.851 -44.1581 468.487 -46.4333C470.122 -48.7086 472.594 -50.24 475.358 -50.6908C475.943 -50.808 476.499 -50.8374 477.055 -50.8374C482.149 -50.8374 486.627 -47.1449 487.476 -41.958ZM434.261 -33.2546C434.607 -31.1182 434.289 -28.927 433.351 -26.9771C432.413 -25.0272 430.9 -23.4125 429.016 -22.3513C427.132 -21.2902 424.968 -20.8336 422.816 -21.0432C420.664 -21.2529 418.629 -22.1187 416.985 -23.5238C415.34 -24.9288 414.167 -26.8054 413.622 -28.8998C413.077 -30.9942 413.187 -33.2056 413.938 -35.2351C414.689 -37.2646 416.044 -39.0145 417.82 -40.2482C419.596 -41.482 421.708 -42.1402 423.87 -42.1339C428.934 -42.1339 433.442 -38.4415 434.29 -33.2546H434.261ZM381.046 -24.5511C381.983 -18.778 378.09 -13.3274 372.324 -12.4189C369.568 -11.9861 366.753 -12.6626 364.494 -14.3007C362.235 -15.9388 360.715 -18.4054 360.266 -21.1617C359.818 -23.9179 360.477 -26.74 362.1 -29.0113C363.723 -31.2826 366.178 -32.8186 368.928 -33.2838C371.688 -33.7375 374.514 -33.0757 376.787 -31.4436C379.059 -29.8116 380.591 -27.3429 381.046 -24.5803V-24.5511ZM327.861 -15.8183C328.311 -13.0514 327.645 -10.2188 326.009 -7.9436C324.373 -5.6684 321.902 -4.1369 319.138 -3.68607C313.401 -2.71902 307.956 -6.64587 307.02 -12.4189C306.57 -15.1858 307.236 -18.0183 308.871 -20.2935C310.507 -22.5688 312.979 -24.1003 315.743 -24.5511C316.328 -24.639 316.884 -24.6976 317.47 -24.6976C322.533 -24.6976 327.041 -21.0052 327.89 -15.8183H327.861ZM274.646 -7.11478C274.992 -4.97836 274.674 -2.78717 273.736 -0.83725C272.798 1.11264 271.285 2.72726 269.401 3.78845C267.517 4.84964 265.353 5.30624 263.201 5.09656C261.049 4.88687 259.014 4.02097 257.37 2.61594C255.725 1.21088 254.551 -0.665619 254.007 -2.76001C253.462 -4.85443 253.572 -7.06586 254.323 -9.0954C255.074 -11.1249 256.429 -12.8748 258.205 -14.1085C259.981 -15.3423 262.093 -16.0004 264.255 -15.9941C269.348 -15.9941 273.826 -12.3017 274.675 -7.11478H274.646ZM221.46 1.61807C221.911 4.38492 221.245 7.2175 219.609 9.49271C217.973 11.7679 215.501 13.2993 212.738 13.7502C211.368 13.9801 209.967 13.9362 208.615 13.6209C207.263 13.3056 205.987 12.7252 204.86 11.9132C203.733 11.1012 202.778 10.0737 202.05 8.89011C201.323 7.70651 200.836 6.39029 200.619 5.0174C200.169 2.25055 200.835 -0.582031 202.471 -2.85724C204.107 -5.13245 206.578 -6.66394 209.342 -7.11478C209.928 -7.23199 210.484 -7.26126 211.04 -7.26126C216.133 -7.26126 220.612 -3.59818 221.46 1.61807ZM168.246 10.3215C168.678 13.0804 168.002 15.8984 166.366 18.1602C164.73 20.4219 162.266 21.9435 159.513 22.3925C156.76 22.8416 153.941 22.1817 151.672 20.5569C149.404 18.9321 147.869 16.4745 147.405 13.7209C146.468 7.94788 150.361 2.49716 156.127 1.58871C156.713 1.50082 157.269 1.44223 157.854 1.44223C162.918 1.44223 167.426 5.13461 168.246 10.3215ZM115.031 19.025C115.26 20.3958 115.217 21.7986 114.902 23.1523C114.587 24.506 114.007 25.7837 113.196 26.9117C112.385 28.0398 111.359 28.9958 110.176 29.7245C108.994 30.4532 107.679 30.9401 106.308 31.1571C103.544 31.6078 100.715 30.941 98.4424 29.3033C96.1697 27.6656 94.6401 25.1911 94.1898 22.4243C93.2238 16.6806 97.1461 11.2299 102.913 10.2922C103.498 10.2043 104.054 10.175 104.61 10.175C109.703 10.175 114.182 13.8381 115.031 19.025ZM61.8452 27.7578C62.2954 30.5246 61.6293 33.3572 59.9935 35.6324C58.3577 37.9076 55.886 39.4391 53.1224 39.89C51.7534 40.1179 50.3529 40.0725 49.0015 39.7564C47.6501 39.4403 46.3746 38.8597 45.2482 38.048C44.1219 37.2364 43.1671 36.2096 42.4387 35.027C41.7103 33.8443 41.2228 32.5291 41.0042 31.1571C40.554 28.3903 41.22 25.5577 42.8558 23.2825C44.4917 21.0073 46.9633 19.4759 49.727 19.025C50.3124 18.9371 50.8685 18.8784 51.454 18.8784C56.5179 18.8784 60.9963 22.5708 61.8745 27.7578H61.8452ZM726.24 -140.861C727.587 -134.883 723.811 -128.905 717.839 -127.557C711.839 -126.209 705.897 -129.96 704.55 -135.967C703.204 -141.946 706.98 -147.924 712.951 -149.272C713.771 -149.448 714.59 -149.535 715.41 -149.535C720.503 -149.535 725.099 -146.019 726.269 -140.832L726.24 -140.861ZM673.64 -128.993C674.986 -123.015 671.24 -117.037 665.239 -115.689C659.268 -114.341 653.297 -118.121 651.95 -124.099C650.574 -130.077 654.35 -136.055 660.351 -137.403C661.171 -137.579 661.99 -137.667 662.81 -137.667C667.903 -137.667 672.469 -134.15 673.64 -128.964V-128.993ZM621.04 -117.125C622.416 -111.117 618.64 -105.168 612.639 -103.82C606.639 -102.472 600.696 -106.223 599.35 -112.231C598.004 -118.238 601.75 -124.187 607.751 -125.535C608.57 -125.74 609.39 -125.828 610.21 -125.828C615.303 -125.828 619.898 -122.311 621.04 -117.125ZM568.44 -105.256C569.786 -99.2779 566.01 -93.2998 560.039 -91.9518C554.068 -90.6038 548.096 -94.3841 546.75 -100.362C545.403 -106.34 549.179 -112.318 555.151 -113.667C555.959 -113.841 556.783 -113.93 557.609 -113.93C562.703 -113.93 567.269 -110.414 568.44 -105.227V-105.256ZM515.84 -93.3877C517.186 -87.3802 513.439 -81.4314 507.439 -80.0834C504.57 -79.4548 501.57 -79.9881 499.092 -81.5667C496.615 -83.1453 494.862 -85.641 494.217 -88.5089C493.571 -91.3769 494.085 -94.3841 495.647 -96.8739C497.208 -99.3638 499.69 -101.134 502.551 -101.798C503.37 -101.974 504.19 -102.062 505.009 -102.062C510.102 -102.062 514.669 -98.5453 515.84 -93.3877ZM463.24 -81.5193C464.586 -75.5411 460.81 -69.563 454.839 -68.215C448.867 -66.867 442.896 -70.6473 441.55 -76.6255C440.203 -82.6036 443.95 -88.5818 449.95 -89.9298C450.77 -90.1056 451.59 -90.1935 452.409 -90.1935C457.502 -90.1935 462.098 -86.6769 463.269 -81.49L463.24 -81.5193ZM410.639 -69.6509C411.267 -66.779 410.735 -63.7751 409.158 -61.295C407.581 -58.8148 405.088 -57.06 402.223 -56.4136C399.359 -55.7673 396.355 -56.282 393.868 -57.8452C391.381 -59.4084 389.613 -61.8932 388.949 -64.7571C387.603 -70.7352 391.379 -76.7133 397.35 -78.0613C398.17 -78.2665 399.019 -78.3251 399.809 -78.3251C404.902 -78.3251 409.469 -74.8085 410.639 -69.6509ZM358.039 -57.7826C359.386 -51.8044 355.639 -45.8262 349.638 -44.4782C343.638 -43.1009 337.696 -46.8812 336.349 -52.8886C335.003 -58.8668 338.75 -64.845 344.75 -66.193C345.558 -66.3676 346.382 -66.4559 347.209 -66.4567C352.302 -66.4567 356.868 -62.9402 358.039 -57.7532V-57.7826ZM305.439 -45.9141C305.923 -43.7667 305.759 -41.524 304.969 -39.4696C304.18 -37.4151 302.799 -35.6413 301.003 -34.3724C299.206 -33.1034 297.074 -32.3963 294.876 -32.3406C292.677 -32.2849 290.512 -32.8829 288.654 -34.0592C286.795 -35.2354 285.327 -36.937 284.434 -38.9488C283.542 -40.9606 283.265 -43.1922 283.639 -45.3614C284.013 -47.5305 285.022 -49.5399 286.537 -51.1353C288.052 -52.7308 290.005 -53.8406 292.15 -54.3246C292.97 -54.5297 293.789 -54.6176 294.58 -54.6176C299.673 -54.6176 304.268 -51.101 305.439 -45.9141ZM252.839 -34.0458C254.185 -28.0676 250.439 -22.0894 244.438 -20.7414C238.467 -19.3641 232.496 -23.1444 231.149 -29.1519C230.781 -30.7813 230.785 -32.4727 231.16 -34.1005C231.535 -35.7282 232.272 -37.2505 233.315 -38.5541C234.359 -39.8578 235.682 -40.9092 237.187 -41.6304C238.692 -42.3516 240.34 -42.724 242.009 -42.7199C247.102 -42.7199 251.668 -39.2034 252.839 -34.0164V-34.0458ZM200.239 -22.1773C201.615 -16.1699 197.839 -10.2211 191.838 -8.87308C188.969 -8.24451 185.969 -8.77768 183.492 -10.3563C181.014 -11.9349 179.262 -14.4306 178.616 -17.2986C177.97 -20.1666 178.484 -23.1737 180.046 -25.6636C181.607 -28.1534 184.089 -29.9237 186.95 -30.5878C187.769 -30.793 188.589 -30.8808 189.409 -30.8808C194.502 -30.8808 199.068 -27.3643 200.239 -22.1773ZM147.639 -10.309C148.985 -4.33081 145.239 1.64737 139.238 2.99539C133.267 4.37271 127.295 0.592316 125.949 -5.41513C124.573 -11.3933 128.349 -17.3714 134.35 -18.7194C135.169 -18.8952 135.989 -18.9831 136.808 -18.9831C141.902 -18.9831 146.468 -15.4666 147.639 -10.2796V-10.309ZM95.0386 1.55939C95.522 3.70682 95.3586 5.94962 94.5688 8.00403C93.7792 10.0585 92.3987 11.8323 90.602 13.1012C88.8053 14.3702 86.6731 15.0772 84.475 15.1329C82.2769 15.1887 80.1117 14.5906 78.2531 13.4143C76.3945 12.2381 74.9261 10.5365 74.0336 8.52472C73.141 6.51294 72.8643 4.28143 73.2386 2.11224C73.6129 -0.0569458 74.6212 -2.06631 76.1361 -3.66174C77.6511 -5.2572 79.6046 -6.3671 81.7496 -6.85104C82.5692 -7.05615 83.3887 -7.1441 84.2083 -7.1441C89.3015 -7.1441 93.8677 -3.62753 95.0386 1.55939ZM42.4385 13.4278C43.8142 19.406 40.0383 25.3841 34.0377 26.7321C31.1691 27.3607 28.1686 26.8275 25.6913 25.2489C23.2141 23.6703 21.4612 21.1745 20.8156 18.3065C20.17 15.4386 20.684 12.4314 22.2454 9.94156C23.8068 7.45172 26.2888 5.68152 29.1494 5.0174C29.969 4.84158 30.7886 4.7536 31.6082 4.7536C36.7014 4.7536 41.2676 8.27014 42.4385 13.4571V13.4278ZM749.481 -206.474C751.238 -200.262 747.637 -193.785 741.403 -192.057C735.197 -190.298 728.728 -193.903 727.001 -200.145C726.582 -201.622 726.459 -203.168 726.639 -204.694C726.819 -206.219 727.298 -207.694 728.048 -209.034C728.799 -210.374 729.807 -211.552 731.013 -212.5C732.22 -213.449 733.602 -214.15 735.08 -214.563C738.061 -215.401 741.252 -215.024 743.956 -213.514C746.661 -212.004 748.657 -209.484 749.511 -206.504L749.481 -206.474ZM697.584 -191.793C699.34 -185.58 695.71 -179.133 689.505 -177.375C683.299 -175.617 676.831 -179.221 675.104 -185.463C674.685 -186.941 674.562 -188.487 674.741 -190.012C674.921 -191.538 675.4 -193.013 676.151 -194.352C676.901 -195.692 677.909 -196.87 679.116 -197.819C680.322 -198.768 681.704 -199.468 683.182 -199.881C686.163 -200.719 689.355 -200.339 692.056 -198.822C694.756 -197.305 696.745 -194.777 697.584 -191.793ZM645.686 -177.111C646.105 -175.633 646.228 -174.087 646.048 -172.562C645.868 -171.036 645.39 -169.561 644.639 -168.222C643.888 -166.882 642.881 -165.704 641.674 -164.755C640.467 -163.807 639.085 -163.106 637.607 -162.693C631.402 -160.935 624.962 -164.539 623.206 -170.781C621.45 -176.994 625.05 -183.47 631.285 -185.199C634.27 -186.039 637.465 -185.658 640.17 -184.142C642.876 -182.626 644.87 -180.097 645.715 -177.111H645.686ZM593.788 -162.459C594.238 -160.972 594.386 -159.41 594.225 -157.864C594.065 -156.319 593.598 -154.821 592.853 -153.458C592.107 -152.095 591.098 -150.895 589.884 -149.927C588.67 -148.959 587.276 -148.242 585.783 -147.82C584.289 -147.397 582.726 -147.277 581.186 -147.466C579.646 -147.655 578.158 -148.149 576.811 -148.92C575.463 -149.691 574.282 -150.723 573.338 -151.955C572.393 -153.188 571.703 -154.597 571.308 -156.1C569.552 -162.312 573.152 -168.789 579.358 -170.518C582.339 -171.356 585.53 -170.98 588.234 -169.469C590.938 -167.959 592.935 -165.439 593.788 -162.459ZM541.891 -147.777C543.647 -141.565 540.047 -135.088 533.812 -133.359C527.607 -131.601 521.167 -135.205 519.411 -141.418C518.917 -143.16 518.834 -144.993 519.169 -146.773C519.504 -148.553 520.247 -150.23 521.339 -151.674C522.432 -153.117 523.844 -154.286 525.465 -155.09C527.086 -155.894 528.871 -156.31 530.68 -156.305C535.773 -156.305 540.457 -152.935 541.92 -147.807L541.891 -147.777ZM489.993 -133.096C491.75 -126.883 488.149 -120.407 481.914 -118.678C475.709 -116.919 469.24 -120.524 467.513 -126.766C467.094 -128.243 466.971 -129.79 467.151 -131.315C467.331 -132.841 467.81 -134.315 468.56 -135.655C469.311 -136.995 470.319 -138.173 471.525 -139.122C472.732 -140.07 474.114 -140.771 475.592 -141.184C478.573 -142.022 481.764 -141.646 484.468 -140.135C487.172 -138.625 489.169 -136.105 490.023 -133.125L489.993 -133.096ZM438.096 -118.414C438.514 -116.936 438.637 -115.39 438.458 -113.865C438.278 -112.339 437.799 -110.864 437.048 -109.525C436.298 -108.185 435.29 -107.007 434.083 -106.058C432.877 -105.109 431.495 -104.409 430.017 -103.996C423.811 -102.238 417.372 -105.842 415.615 -112.084C415.197 -113.562 415.074 -115.108 415.253 -116.633C415.433 -118.159 415.912 -119.634 416.663 -120.974C417.413 -122.313 418.421 -123.491 419.628 -124.44C420.834 -125.389 422.216 -126.089 423.694 -126.502C426.679 -127.341 429.875 -126.961 432.58 -125.445C435.285 -123.929 437.279 -121.4 438.125 -118.414H438.096ZM386.198 -103.732C386.617 -102.255 386.74 -100.708 386.56 -99.183C386.38 -97.6575 385.901 -96.1825 385.151 -94.8428C384.4 -93.5032 383.392 -92.3252 382.186 -91.3764C380.979 -90.4277 379.597 -89.7269 378.119 -89.3143C371.914 -87.5561 365.474 -91.1898 363.718 -97.4025C361.962 -103.615 365.562 -110.091 371.797 -111.82C374.781 -112.66 377.977 -112.28 380.682 -110.763C383.388 -109.247 385.382 -106.719 386.227 -103.732H386.198ZM334.3 -89.0799C334.749 -87.5926 334.898 -86.0306 334.737 -84.4852C334.577 -82.9398 334.11 -81.442 333.365 -80.0792C332.619 -78.7163 331.61 -77.5158 330.396 -76.5477C329.182 -75.5797 327.788 -74.8636 326.294 -74.4411C324.801 -74.0186 323.238 -73.8983 321.698 -74.0871C320.157 -74.276 318.67 -74.7704 317.322 -75.5412C315.975 -76.312 314.794 -77.3439 313.85 -78.5766C312.905 -79.8094 312.215 -81.2181 311.82 -82.7208C310.064 -88.9334 313.664 -95.4097 319.899 -97.1387C322.88 -97.9775 326.071 -97.6007 328.775 -96.0906C331.48 -94.5804 333.477 -92.0599 334.33 -89.0799H334.3ZM282.403 -74.3983C284.159 -68.1857 280.559 -61.7094 274.324 -59.9804C268.118 -58.2221 261.679 -61.8266 259.923 -68.0392C259.429 -69.7814 259.346 -71.6146 259.681 -73.3942C260.016 -75.1739 260.758 -76.8514 261.851 -78.2947C262.944 -79.7379 264.356 -80.9075 265.977 -81.7112C267.598 -82.5149 269.383 -82.9307 271.192 -82.9259C276.285 -82.9259 280.969 -79.5559 282.432 -74.4276L282.403 -74.3983ZM230.505 -59.7167C232.261 -53.5041 228.661 -47.0277 222.426 -45.2987C216.221 -43.5405 209.781 -47.145 208.025 -53.3869C207.606 -54.8646 207.483 -56.4106 207.663 -57.9361C207.843 -59.4616 208.322 -60.9366 209.072 -62.2763C209.823 -63.616 210.83 -64.794 212.037 -65.7427C213.244 -66.6914 214.626 -67.3922 216.104 -67.8047C219.089 -68.644 222.284 -68.2639 224.989 -66.7477C227.695 -65.2314 229.689 -62.7029 230.534 -59.7167H230.505ZM178.608 -45.035C179.026 -43.5573 179.149 -42.0113 178.97 -40.4857C178.79 -38.9603 178.311 -37.4853 177.56 -36.1456C176.81 -34.8059 175.802 -33.6279 174.595 -32.6792C173.389 -31.7304 172.007 -31.0296 170.529 -30.6171C164.323 -28.8588 157.884 -32.4633 156.127 -38.7052C155.638 -40.4456 155.558 -42.2759 155.895 -44.0522C156.232 -45.8286 156.975 -47.5026 158.068 -48.9425C159.16 -50.3824 160.571 -51.5491 162.19 -52.3508C163.808 -53.1525 165.591 -53.5674 167.397 -53.5627C169.941 -53.5572 172.415 -52.7219 174.443 -51.1832C176.471 -49.6445 177.943 -47.4862 178.637 -45.035H178.608ZM126.71 -30.3827C127.159 -28.8954 127.307 -27.3334 127.147 -25.788C126.986 -24.2426 126.52 -22.7448 125.774 -21.3819C125.029 -20.0191 124.02 -18.8185 122.806 -17.8505C121.592 -16.8824 120.197 -16.1663 118.704 -15.7438C117.21 -15.3214 115.648 -15.201 114.107 -15.3899C112.567 -15.5788 111.079 -16.0731 109.732 -16.8439C108.384 -17.6148 107.204 -18.6467 106.259 -19.8794C105.314 -21.1121 104.625 -22.5209 104.23 -24.0235C102.473 -30.2361 106.074 -36.7125 112.309 -38.4415C115.289 -39.2803 118.481 -38.9035 121.185 -37.3933C123.889 -35.8832 125.886 -33.3626 126.739 -30.3827H126.71ZM74.8123 -15.701C76.5685 -9.48843 72.9682 -3.01212 66.7627 -1.25385C63.7779 -0.41449 60.5824 -0.794647 57.8771 -2.31091C55.1718 -3.82715 53.1777 -6.35571 52.3321 -9.34195C51.8395 -11.0825 51.7577 -12.9138 52.0931 -14.6914C52.4285 -16.4691 53.1719 -18.1443 54.2646 -19.5851C55.3575 -21.0258 56.7698 -22.1927 58.3901 -22.9935C60.0104 -23.7943 61.7945 -24.207 63.6014 -24.1993C68.6946 -24.1993 73.378 -20.8293 74.8416 -15.701H74.8123ZM22.9147 -1.01944C24.6709 5.19315 21.0706 11.6695 14.8359 13.3985C8.63037 15.1568 2.19067 11.5523 0.434387 5.33972C-0.0534668 3.59781 -0.132019 1.76645 0.204895 -0.0109253C0.54187 -1.7883 1.28522 -3.46347 2.37665 -4.9053C3.46814 -6.34711 4.87817 -7.51645 6.49634 -8.32172C8.11444 -9.12701 9.89679 -9.54636 11.7039 -9.54703C16.797 -9.54703 21.4803 -6.177 22.9439 -1.04868L22.9147 -1.01944Z" fill="#1C70EB" fill-opacity="0.4"/>
</svg>
