<svg width="175" height="40" viewBox="0 0 175 40" fill="none" xmlns="http://www.w3.org/2000/svg">
<path fill-rule="evenodd" clip-rule="evenodd" d="M23.6035 30.668C25.4576 30.2523 28.6202 29.5435 29.1021 29.2558L29.2437 29.2017L29.3562 29.1793C28.2756 28.0224 24.9049 24.9255 22.5483 22.759C21.4571 21.7573 20.5803 20.9509 20.2342 20.6157L20.0609 20.4401C19.8181 20.1933 19.7084 20.0818 19.1586 20.188L6.37088 23.4572L6.75303 23.8255L6.78771 23.8631C7.26893 24.4557 9.4521 26.5238 11.7881 28.6757C14.0874 30.7947 16.5083 32.9817 17.572 33.9009C17.6102 33.0351 17.6788 32.5692 18.2273 32.1667C18.741 31.7892 19.6306 31.5833 21.3955 31.1748L22.5243 30.9115C22.6658 30.8785 23.0933 30.7829 23.6035 30.668ZM32.1536 26.5581C32.223 26.3542 32.2598 26.116 32.2881 25.8553L32.3015 25.7913L36.2539 12.2672C35.9354 12.3642 35.7069 12.4672 35.5229 12.5497C35.0664 12.7542 34.8024 12.8723 34.3255 12.6796V12.6783C33.8386 12.4823 33.2236 11.9095 31.7686 10.5534L30.8352 9.685C30.4106 9.29038 29.9386 8.87134 29.4567 8.4424C28.3477 7.45518 27.1829 6.41911 26.2332 5.37052L25.9749 5.14879C25.614 6.18484 24.8193 8.78881 24.0592 11.3928C23.256 14.1433 22.5016 16.87 22.3396 17.7418L32.0963 26.6987C32.1175 26.6525 32.1359 26.6063 32.1522 26.5581H32.1536ZM6.56267 15.2942C6.13452 16.7018 5.69505 18.1463 5.48841 19.3427L5.47497 19.3975L5.29734 19.938C6.64688 19.6654 9.61487 18.9507 12.4229 18.2367C15.4107 17.4778 18.1876 16.7341 18.5606 16.5546C18.7403 16.1936 19.6575 13.1878 20.5449 10.1463C21.2498 7.72638 21.9228 5.30586 22.1803 4.18072L21.5187 4.30941L6.73321 8.03983L6.741 8.04579C8.40191 9.18545 8.34742 9.36033 7.69707 11.4463C7.55765 11.893 7.38569 12.4454 7.17905 13.2016C7.00354 13.8457 6.78417 14.5657 6.56267 15.2942ZM3.1821 13.7216C3.5692 12.2923 3.86501 11.0899 3.91808 10.5851C3.51117 10.3581 3.09364 10.1469 2.69947 9.94761C1.10012 9.13856 -0.170865 8.49582 0.0187916 7.16677C0.18368 6.01655 1.2275 5.77704 2.2324 5.54673C2.38243 5.51242 2.53033 5.47808 2.62941 5.453L2.63082 5.45103L17.1169 1.83274C19.0645 1.37873 20.4876 0.970261 21.5824 0.656803C23.2815 0.169792 24.2241 -0.100105 25.0924 0.0345154C26.1929 0.204773 26.9678 0.970284 28.7051 2.68538C29.0646 3.03975 29.4659 3.43632 29.9067 3.86394C30.3342 4.27836 31.0489 4.93103 31.8189 5.63449C33.0877 6.79329 34.508 8.09065 35.0961 8.73868C35.5271 8.60472 36.0472 8.30776 36.583 8.00156C37.8447 7.28226 39.1851 6.51679 40.3421 7.22751C41.6372 8.02336 40.8007 10.4353 40.2798 11.9359C40.1975 12.1664 40.1199 12.3983 40.047 12.6315C39.6039 14.146 39.171 15.6632 38.7484 17.1829C38.1851 19.1896 37.6239 21.1891 37.0465 23.0771C36.6471 24.4016 36.2643 25.7303 35.8979 27.063L35.5342 28.363C35.4267 28.7474 35.3262 29.1335 35.2327 29.5211C34.7635 31.4302 34.748 31.4929 31.9993 32.1871V32.1858L21.3439 34.9211C21.3418 35.1409 21.3481 35.3975 21.3559 35.6754C21.3842 36.7708 21.4196 38.1665 20.9922 39.0508C20.5845 39.8942 19.8479 40.3013 18.5252 39.7437C18.0341 39.5378 9.96021 31.9126 5.75875 27.9446C5.00715 27.2335 4.25418 26.5237 3.49985 25.8151C2.9974 25.3452 2.56572 24.9704 2.20975 24.6609C0.647208 23.3041 0.373337 23.0659 0.961416 21.2406C1.30605 20.1696 2.41993 16.5355 3.1821 13.7216Z" fill="#153E90"/>
<path d="M53.0588 23.5108H63.0101V26.7707H50.2012V7.62024H54.1712V22.3394L53.0588 23.5108ZM69.0515 20.0212C69.0515 21.7917 69.2829 22.9551 69.7422 23.5147C70.2022 24.0743 71.1038 24.3561 72.4441 24.3561C73.8651 24.3561 74.9436 24.0136 75.6902 23.3293C76.3059 22.7585 76.6633 21.9369 76.7645 20.8744V12.4989H80.7105V26.7707H76.9421C77.1468 25.8431 77.3957 24.9245 77.688 24.0176C77.4461 24.3485 77.1798 24.6634 76.8911 24.9599C75.6647 26.2639 73.73 26.9159 71.0868 26.9159C68.7897 26.9159 67.2222 26.3405 66.3878 25.1889C65.5485 24.0341 65.131 22.3876 65.131 20.2462V12.4989H69.0515V20.0212ZM96.1718 7.62024H100.117V26.7707H96.1718L96.9806 24.4043C96.6608 24.7989 96.2135 25.1975 95.6403 25.5994C94.4019 26.4447 92.707 26.8677 90.5571 26.8677H90.3165C88.0066 26.8347 86.3252 26.2355 85.2672 25.0728C84.2092 23.9093 83.6778 22.086 83.6778 19.6021C83.6778 17.1315 84.2092 15.32 85.2672 14.1645C86.3252 13.0137 88.0066 12.4184 90.3172 12.3781H90.6073C92.7402 12.3781 94.4181 12.8005 95.6403 13.6452C96.2135 14.0477 96.6608 14.4469 96.9806 14.8409L96.1718 7.62024ZM91.7545 24.3317C93.1833 24.3317 94.2787 24.0545 95.0338 23.4982C95.733 22.9835 96.1123 22.2345 96.1718 21.2526V18.0045C96.1123 17.0061 95.733 16.2492 95.0338 15.7344C94.2787 15.1867 93.1833 14.9135 91.7545 14.9135C90.2542 14.9135 89.1997 15.1907 88.5883 15.7509C87.9776 16.3105 87.674 17.5987 87.674 19.6107C87.674 21.6551 87.9776 22.9512 88.5883 23.5029C89.1997 24.0539 90.2535 24.3317 91.7545 24.3317ZM110.9 26.8921C108.185 26.8921 106.086 26.3319 104.602 25.2133C103.119 24.0941 102.377 22.2147 102.377 19.5744C102.377 16.9342 103.118 15.0706 104.602 13.9837C106.086 12.8969 108.185 12.3537 110.9 12.3537C113.605 12.3537 115.701 12.8969 117.181 13.9837C118.66 15.0706 119.397 16.9335 119.397 19.5744C119.397 22.2147 118.66 24.0948 117.181 25.2133C115.701 26.3319 113.605 26.8921 110.9 26.8921ZM110.908 24.3799C112.447 24.3799 113.593 24.0981 114.347 23.5306C115.102 22.9631 115.477 21.6511 115.477 19.5909C115.477 17.5419 115.102 16.2379 114.348 15.6777C113.593 15.1187 112.447 14.8409 110.908 14.8409C109.366 14.8409 108.214 15.1188 107.46 15.6784C106.701 16.238 106.322 17.5419 106.322 19.5903C106.322 21.6512 106.701 22.9631 107.46 23.5306C108.214 24.0981 109.366 24.3799 110.908 24.3799ZM126.146 31.1175H122.201V12.4019H126.146L125.336 14.7564C125.649 14.3618 126.095 13.9712 126.677 13.5772C127.916 12.7279 129.632 12.3056 131.824 12.3056H132.001C134.311 12.3452 135.997 12.9774 137.055 14.2055C138.113 15.4329 138.64 17.2239 138.64 19.5744C138.64 21.925 138.109 23.7041 137.051 24.9111C135.993 26.1187 134.311 26.747 132.001 26.7951H131.76C129.611 26.7951 127.912 26.3642 126.673 25.507C126.092 25.1124 125.644 24.7184 125.332 24.3192L126.146 31.1175ZM127.284 23.4144C128.038 23.9615 129.135 24.2353 130.563 24.2353C132.055 24.2353 133.11 23.9292 133.72 23.3135C134.336 22.6978 134.644 21.442 134.644 19.5421C134.644 17.6383 134.336 16.3785 133.72 15.7628C133.11 15.1471 132.055 14.8409 130.564 14.8409C129.135 14.8409 128.038 15.1187 127.284 15.6744C126.576 16.1891 126.196 16.9421 126.146 17.9405V21.1364C126.196 22.1421 126.576 22.8984 127.284 23.4144ZM154.253 24.1865C153.806 24.8068 153.414 25.2655 153.081 25.5631C152.748 25.8614 152.331 26.1148 151.833 26.3286C151.336 26.5417 150.751 26.6981 150.071 26.7951C149.325 26.8966 148.571 26.9451 147.817 26.9403C147.218 26.9403 146.602 26.8994 145.966 26.8229C145.334 26.747 144.735 26.6183 144.166 26.4368C143.621 26.266 143.11 26.0133 142.653 25.6885C142.205 25.3655 141.847 24.9473 141.607 24.469C141.355 23.974 141.228 23.3253 141.228 22.5209C141.228 21.8042 141.355 21.2123 141.607 20.7457C141.86 20.2785 142.202 19.876 142.632 19.5421C143.062 19.2082 143.58 18.9462 144.183 18.7568C144.805 18.5639 145.446 18.4267 146.097 18.347C146.767 18.2626 147.424 18.2216 148.065 18.2216H153.595V17.4733C153.595 16.6524 153.43 16.0446 153.102 15.65C152.774 15.256 152.327 15.0059 151.766 14.9016C151.206 14.7961 150.37 14.7446 149.267 14.7446C148.289 14.7446 147.5 14.8007 146.906 14.9135C146.311 15.0257 145.839 15.2593 145.49 15.6137C145.136 15.968 144.959 16.5237 144.95 17.28H141.304C141.346 16.0723 141.641 15.1471 142.185 14.5031C142.729 13.859 143.374 13.4004 144.12 13.1265C144.866 12.8526 145.629 12.6593 146.408 12.5471C147.192 12.4349 148.196 12.3781 149.431 12.3781C151.622 12.3781 153.195 12.5352 154.143 12.8487C155.091 13.1628 155.897 13.698 156.554 14.4549C157.212 15.2111 157.541 16.3105 157.541 17.7511V26.7707H153.721L154.253 24.1865ZM148.622 24.622C149.216 24.622 149.789 24.5851 150.341 24.5132C150.898 24.4406 151.403 24.3119 151.871 24.1265C152.335 23.9417 152.727 23.7081 153.043 23.4223C153.359 23.1406 153.545 22.835 153.595 22.5123L153.709 20.299H148.47C148.031 20.299 147.613 20.3267 147.222 20.3874C146.858 20.4392 146.505 20.5453 146.177 20.7016C145.874 20.8474 145.624 21.0745 145.461 21.3535C145.287 21.6393 145.199 22.0055 145.199 22.4523C145.199 22.967 145.296 23.3695 145.489 23.6599C145.674 23.9394 145.947 24.1596 146.27 24.2915C146.621 24.4302 146.993 24.5198 147.373 24.5574C147.788 24.601 148.205 24.6231 148.622 24.622ZM167.008 24.1628L170.878 12.4989H175L169.803 26.7707C168.749 29.3786 167.75 30.808 166.806 31.0575C165.862 31.3069 163.62 31.4316 160.078 31.4316V28.437C162.995 28.437 164.618 28.3769 164.947 28.2562C165.276 28.1308 165.672 27.6319 166.136 26.7714H164.694L159.434 12.4989H163.543L167.008 24.1628Z" fill="#1E1D1D"/>
</svg>
