<svg width="100" height="50" viewBox="0 0 100 50" fill="none" xmlns="http://www.w3.org/2000/svg">
<path d="M50.6867 43.6771C50.7456 43.6308 50.8092 43.5903 50.8781 43.5568C51.6143 43.1864 52.3593 42.8311 53.0979 42.4648C54.0091 42.0174 54.921 41.5678 55.8299 41.1175C56.9238 40.5793 58.0153 40.0411 59.1068 39.5012C60.2649 38.9318 61.42 38.3618 62.578 37.79C63.6806 37.2478 64.7832 36.7026 65.8847 36.1581C66.8163 35.7009 67.7486 35.2402 68.6785 34.7813L70.6037 33.8323L71.3102 33.4839C71.3102 33.4839 73.3363 33.2848 72.4682 34.9463L54.3691 48.5139C53.8837 48.8756 53.127 48.9798 52.546 48.9306C52.0472 48.8895 51.5641 48.7222 51.133 48.4734C50.5887 48.1592 50.1308 47.7865 49.8846 47.1985C49.7168 46.8017 49.6353 46.3741 49.6454 45.9439C49.657 45.4694 49.7935 45.0058 50.0123 44.5828C50.1786 44.2668 50.3904 43.9057 50.6867 43.6771Z" fill="#71A1DB"/>
<path d="M20.4345 9.60095C8.09223 18.5911 0.0635897 33.0656 0 49.4029H20.8767C20.9496 38.7663 26.8179 29.5031 35.5006 24.5453L20.4345 9.60095Z" fill="#D6D8DC"/>
<path d="M50.0009 0C38.9368 0 28.7164 3.5648 20.4346 9.60065L35.5007 24.545C39.9106 22.0251 44.9116 20.7015 50.0009 20.7071C55.3564 20.7071 60.3678 22.1446 64.679 24.6446L79.7288 9.71582C71.4201 3.61052 61.1355 0 50.0009 0Z" fill="#71A1DB"/>
<path d="M79.7265 9.71631L64.6768 24.6451C73.2637 29.6277 79.0515 38.8395 79.1227 49.4031H99.9994C99.9352 33.1358 91.9754 18.7157 79.7265 9.71631Z" fill="#456DBE"/>
</svg>
