<svg width="1440" height="1247" viewBox="0 0 1440 1247" fill="none" xmlns="http://www.w3.org/2000/svg">
<path d="M181.339 101.834L177.747 108.054V169.043L151.323 153.8L148.924 157.95L177.747 174.573V207.827H182.545V103.904C182.545 103.017 182.055 102.253 181.339 101.834ZM302.586 108.063L302.592 108.069V0H297.793V99.7642L297.788 99.7482V207.827H302.586V108.063ZM208.952 54.0431L237.766 70.6692V206.438L235.367 207.827H242.564V1.38285L244.964 0H240.165L237.766 4.15654V65.1362L211.352 49.8865H211.349L208.95 54.0431H208.952ZM151.333 261.864L241.371 209.907C241.734 209.695 242.035 209.391 242.244 209.026C242.453 208.661 242.562 208.248 242.561 207.827H235.375L182.536 238.314L182.533 207.827H177.734L177.737 241.087L148.934 257.704L151.333 261.864ZM211.352 365.768L297.793 315.881L302.592 307.576L208.952 361.611L211.352 365.768Z" fill="#EDEDED" fill-opacity="0.5"/>
<path d="M177.749 307.584L181.342 313.801L181.348 313.811L357.818 211.976L360.217 207.826H360.22V207.817H364.944L362.544 206.437V203.799L362.619 203.671V142.689L388.983 157.899L388.962 157.939L475.404 207.818H485.001L391.417 153.814L391.435 153.784H391.433L362.619 137.148V1.38285L365.019 0H357.821V206.438L355.422 207.827H355.419L302.582 238.314V207.827H297.784V241.081L180.148 308.969L177.749 307.585M237.774 411.49L240.174 415.645L241.373 413.569L242.573 411.489L240.174 412.872L237.774 411.49Z" fill="#EDEDED" fill-opacity="0.5"/>
<path d="M418.99 105.952L418.974 105.984L418.968 105.993L595.441 207.827H600.24L597.841 203.671L545.004 173.174L571.418 157.941H571.421L569.021 153.784H569.018L540.206 170.411L422.566 102.531V99.8849L422.638 99.7642V38.783L449.005 53.9959L448.98 54.0359L539.018 106C539.787 106.44 540.696 106.4 541.415 105.984L537.822 99.765L484.982 69.2808L511.403 54.0271L509.003 49.8769L480.184 66.5047L451.432 49.9185L451.458 49.8721L422.639 33.2452V0H417.841V103.914C417.841 104.785 418.303 105.528 418.99 105.952ZM419.039 309.661L242.571 411.499L240.172 415.645H244.97L297.807 385.161V415.645H302.605V382.384L420.241 314.507L422.64 315.89L419.047 309.671L419.041 309.661M449.049 361.611L359.012 413.568C358.648 413.779 358.346 414.082 358.137 414.447C357.928 414.811 357.82 415.225 357.822 415.645H365.007L417.846 385.152L417.85 415.645H422.649L422.645 382.384L451.449 365.758L449.049 361.611ZM297.791 315.897L391.43 261.864L389.031 257.704L302.589 307.591L297.791 315.897M359.015 209.907L357.815 211.977L360.215 210.594L362.614 211.977L360.215 207.827L359.015 209.907ZM360.221 207.827L362.62 211.977L415.456 242.47L389.041 257.704L389.037 257.714L391.436 261.864H391.439L420.255 245.236L537.89 313.124V315.889L541.483 309.671L541.489 309.66L365.019 207.827H360.221ZM419.047 309.661L422.639 315.881L475.475 346.368L449.06 361.618L451.459 365.768L480.274 349.142L509.081 365.758L511.48 361.612L421.443 309.655C421.079 309.444 420.665 309.333 420.244 309.334C419.823 309.335 419.41 309.448 419.047 309.661ZM475.46 207.827L569.1 261.864L571.499 257.704L485.057 207.827H475.46ZM600.315 207.827H595.516L597.916 209.21V211.977L600.315 207.827ZM541.496 309.661L537.903 315.881V376.862L511.483 361.618L509.084 365.777L537.903 382.4V415.645H542.702V311.731C542.702 310.844 542.214 310.08 541.496 309.661ZM662.743 315.881L662.748 315.897V207.827H657.95V307.584L657.944 307.576V415.645H662.743V315.881Z" fill="#EDEDED" fill-opacity="0.5"/>
<path d="M571.502 257.714L569.102 261.865L569.105 261.87L597.922 278.497V414.266L595.522 415.646H602.72V211.977H602.717V209.212L605.116 207.828H605.119L657.956 177.335V207.818H662.754V174.568L780.389 106.681L782.789 108.064L779.196 101.845L779.19 101.835L602.72 203.672L600.321 207.828H600.318L597.922 211.977V272.959L571.504 257.715H571.502M602.714 415.646H595.529L542.691 446.143L542.688 415.655H537.89L537.893 448.911L509.086 465.535L511.485 469.689L601.524 417.725C602.295 417.286 602.714 416.479 602.714 415.646ZM571.508 573.589L657.949 523.706L662.748 515.401L569.108 569.436L571.508 573.589ZM601.52 621.394L602.72 619.317L600.321 620.703L597.922 619.317L600.321 623.47L601.52 621.394Z" fill="#EDEDED" fill-opacity="0.5"/>
<path d="M751.584 361.603L722.769 344.977V209.211L725.168 207.828H717.97V414.266L715.571 415.645H715.567L662.731 446.142L662.734 415.655V415.645H657.935V415.655L657.932 448.909L540.297 516.793L537.897 515.41L541.493 521.629L541.496 521.639L717.966 419.804L720.365 415.645H725.095L722.696 414.265V411.617L722.768 411.498V350.517L749.132 365.727L749.11 365.767L835.555 415.645H845.152L751.565 361.642L751.587 361.612L751.584 361.602M809.203 569.437L719.163 621.394C718.799 621.605 718.497 621.908 718.288 622.273C718.079 622.638 717.97 623.052 717.973 623.473H725.158L777.997 592.98L778.001 623.469H782.8L782.796 590.213L811.603 573.589L809.203 569.437ZM657.942 523.725L751.581 469.689L749.182 465.532L662.74 515.416L657.942 523.724" fill="#EDEDED" fill-opacity="0.5"/>
<path d="M657.956 623.472H662.754V590.213L780.389 522.329L782.789 523.716L779.196 517.492L779.19 517.486L602.72 619.32L600.321 623.473H600.318L597.922 627.629V688.61L571.504 673.362H571.502L569.102 677.516L569.105 677.519L597.922 694.145V829.911L595.522 831.3H602.72V627.629L602.717 627.626V624.86L605.116 623.473H605.119L657.956 592.983V623.473M720.364 415.654L719.165 417.725L717.965 419.804L720.364 418.421L722.763 419.804L720.364 415.654ZM845.207 415.645H835.61L929.084 469.591L929.028 469.691V469.693L957.843 486.32V622.089L955.444 623.472H962.641V417.028L965.041 415.645H960.242V415.654H955.669L958.069 417.037V419.419L957.844 419.804V480.785L931.596 465.631L931.652 465.531L845.207 415.645ZM511.486 54.0367L601.524 2.07987C602.295 1.63944 602.714 0.830509 602.714 0H595.529L542.691 30.493L542.688 0H537.89L537.893 33.2603L509.086 49.8865L511.485 54.0367M571.508 157.941L657.949 108.054L662.748 99.749L569.108 153.784L571.508 157.941ZM537.896 99.757L541.492 105.984L541.495 105.993L717.965 4.15574L720.364 0H715.566L662.729 30.4866L662.733 0.00959202V0H657.934V0.00959202L657.931 33.2595L540.295 101.141L537.896 99.757ZM601.52 205.741L602.72 203.671L600.321 205.054L597.922 203.671L600.321 207.818L601.52 205.741ZM809.202 153.784L719.161 205.741C718.798 205.953 718.497 206.256 718.289 206.62C718.08 206.985 717.97 207.398 717.971 207.818H725.156L777.996 177.334L778 207.818H782.798L782.795 174.557L811.602 157.941L809.202 153.784Z" fill="#EDEDED" fill-opacity="0.5"/>
<path d="M657.941 108.07L751.581 54.0359L749.182 49.8857L662.74 99.7634L657.941 108.069M720.365 0L719.165 2.07987L717.966 4.15574L720.365 2.77289L722.764 4.15574L720.365 0ZM775.608 34.6432L749.19 49.8865H749.186L751.586 54.0431L751.589 54.0367L780.406 37.4089L898.038 105.296V107.685L897.822 108.053V169.043L871.568 153.887L871.631 153.783L781.593 101.827C781.228 101.617 780.815 101.508 780.394 101.509C779.974 101.51 779.561 101.622 779.197 101.833L782.79 108.053L835.626 138.546L809.21 153.79L811.609 157.949L840.424 141.313L869.066 157.843L869.01 157.949L897.823 174.572V207.827H902.621V103.904C902.621 103.089 902.205 102.377 901.581 101.946L901.637 101.843V101.834L725.169 0H720.371L722.77 4.15654L775.608 34.6432ZM182.545 623.472V519.555C182.545 518.669 182.055 517.901 181.339 517.488L177.747 523.705V584.689L151.323 569.446L148.924 573.598L177.747 590.228V623.472H182.545ZM211.349 465.538L208.95 469.691L208.952 469.693L237.766 486.32V622.089L235.366 623.472H242.564V417.028L244.964 415.645H240.165L237.766 419.804V480.785L211.352 465.538H211.349Z" fill="#EDEDED" fill-opacity="0.5"/>
<path d="M181.348 729.462L357.818 627.628L360.217 623.472H360.22V623.469H364.944L362.544 622.086V619.448L362.619 619.32V558.338L388.983 573.554L388.962 573.589L475.404 623.472H485.001L391.417 569.467L391.435 569.433C391.435 569.433 391.435 569.43 391.433 569.43L362.619 552.8V417.029L365.019 415.647H357.821V622.09L355.422 623.473H355.419L302.582 653.964V623.479C302.585 623.476 302.582 623.476 302.582 623.473H297.787C297.787 623.476 297.787 623.476 297.784 623.479V656.733L180.148 724.617L177.749 723.231L181.342 729.454L181.348 729.462Z" fill="#EDEDED" fill-opacity="0.5"/>
<path d="M151.335 677.512L241.372 625.552C241.736 625.341 242.038 625.038 242.247 624.674C242.456 624.309 242.564 623.896 242.562 623.475H235.377L182.537 653.966L182.534 623.475H177.735L177.739 656.736L148.936 673.359L151.335 677.512ZM297.796 731.533L302.594 723.224L208.954 777.26L211.353 781.413L297.796 731.533ZM241.369 829.214L242.569 827.144L240.17 828.527L237.77 827.144L240.17 831.293L241.369 829.214ZM539.016 521.645C539.785 522.088 540.694 522.05 541.413 521.635L537.82 515.419L484.981 484.925L511.4 469.679L509.001 465.526L480.182 482.155L451.431 465.566L451.457 465.523L422.638 448.896V415.645H417.839V519.565C417.839 520.43 418.301 521.18 418.988 521.601L418.972 521.629L418.967 521.639L595.44 623.472H600.238L597.839 619.32L545.003 588.829L571.416 573.589C571.419 573.589 571.419 573.586 571.419 573.586L569.02 569.433L569.017 569.436L540.204 586.06L422.566 518.176V515.534L422.638 515.416V454.432L449.005 469.644L448.979 469.688L539.016 521.645ZM297.796 515.412L297.789 515.4V623.472H302.588V523.709L302.593 523.721V415.645H297.795V515.413M449.048 777.26L359.01 829.214C358.647 829.426 358.346 829.73 358.137 830.095C357.929 830.46 357.819 830.873 357.82 831.293H365.005L417.845 800.806L417.849 831.293H422.647L422.644 798.037L451.447 781.413L449.048 777.26ZM297.789 731.548L391.429 677.512L389.03 673.356L302.588 723.24L297.789 731.548ZM302.603 831.293V798.041L420.238 730.153L422.638 731.54L419.045 725.316L419.039 725.311L242.569 827.145L240.17 831.301H244.968L297.804 800.806V831.294L302.603 831.293ZM360.213 623.475L357.814 627.629L360.213 626.245L362.612 627.628L360.213 623.475ZM571.498 673.356L485.056 623.475H475.459L569.098 677.512L571.498 673.356M480.272 764.789L509.079 781.413L511.479 777.26L421.441 725.3C421.076 725.092 420.662 724.983 420.242 724.984C419.821 724.986 419.408 725.098 419.045 725.31L422.638 731.529L475.474 762.019L449.058 777.27L451.457 781.423L480.272 764.789ZM541.482 725.316L541.488 725.31L365.018 623.472H360.219L362.619 627.629L415.455 658.115L389.039 673.359H389.035L391.434 677.515C391.434 677.512 391.438 677.512 391.438 677.512L420.253 660.885L537.889 728.77V731.539L541.482 725.316ZM600.313 623.475H595.515L597.914 624.862V627.628L600.313 623.475ZM537.902 831.299H542.7V727.379C542.7 726.493 542.212 725.728 541.494 725.313L537.902 731.532V792.513L511.482 777.27L509.083 781.426L537.902 798.052V831.299Z" fill="#EDEDED" fill-opacity="0.5"/>
<path d="M511.486 885.336L601.524 833.379C601.887 833.168 602.189 832.864 602.398 832.499C602.607 832.134 602.716 831.72 602.714 831.299H595.529L542.691 861.786L542.688 831.299H537.89L537.893 864.563L509.086 881.18L511.485 885.336M662.748 931.051L569.109 985.085L571.508 989.234L657.95 939.357L662.748 931.052M601.52 1037.04L602.72 1034.96L600.321 1036.35L597.921 1034.96L600.321 1039.12L601.52 1037.04Z" fill="#EDEDED" fill-opacity="0.5"/>
<path d="M751.584 777.253L722.769 760.623V624.858L725.168 623.471H717.97V829.909L715.573 831.299H715.567L662.731 861.785L662.734 831.299H662.74V731.535L662.746 731.544V623.471H657.947V723.236L657.942 723.223V831.299H657.935L657.932 864.553L540.297 932.44L537.897 931.057L541.493 937.276L541.496 937.283L717.966 835.449L720.365 831.299H720.369L720.372 831.292H725.095L722.696 829.909V827.272L722.768 827.144V766.162L749.132 781.378L749.11 781.412L835.555 831.292H845.152L751.565 777.291L751.587 777.256C751.584 777.256 751.584 777.253 751.584 777.253ZM809.203 985.084L719.163 1037.04C718.798 1037.25 718.496 1037.55 718.287 1037.92C718.078 1038.28 717.97 1038.7 717.973 1039.12H725.158L777.997 1008.62L778.001 1039.12H782.8L782.796 1005.86L811.603 989.234L809.203 985.084ZM749.182 881.179L662.74 931.065L657.942 939.371L751.581 885.335L749.182 881.179Z" fill="#EDEDED" fill-opacity="0.5"/>
<path d="M717.966 835.45L720.365 834.067L722.764 835.45L720.365 831.299L719.165 833.379L717.966 835.45ZM782.79 939.363L779.197 933.143L779.191 933.137L602.721 1034.97L600.322 1039.12H605.12L657.957 1008.63V1039.12H662.755V1005.86L780.39 937.979L782.79 939.362M177.747 1039.12H182.545V935.207C182.545 934.32 182.055 933.552 181.339 933.136L177.747 939.357V1000.34L151.323 985.094L148.924 989.25L177.747 1005.88V1039.12ZM151.333 1093.16L241.371 1041.2C242.139 1040.76 242.561 1039.95 242.561 1039.12H235.375L182.536 1069.61L182.533 1039.13H177.734L177.737 1072.38L148.934 1089.01L151.333 1093.16ZM302.593 1138.87L208.952 1192.91L211.352 1197.06L297.793 1147.18L302.593 1138.87Z" fill="#EDEDED" fill-opacity="0.5"/>
<path d="M240.161 1246.95L241.361 1244.87L242.56 1242.79L240.161 1244.17L237.762 1242.79L240.161 1246.95Z" fill="#EDEDED" fill-opacity="0.5"/>
<path d="M600.25 1039.12L597.851 1034.97L545.014 1004.48L571.428 989.233H571.431L569.031 985.084H569.028L540.216 1001.71L422.577 933.823V931.185L422.649 931.065V870.086L449.013 885.294L448.99 885.334L539.028 937.291C539.797 937.739 540.706 937.701 541.425 937.283L537.832 931.066L484.992 900.569L511.412 885.326L509.013 881.169L480.194 897.806L451.443 881.211L451.468 881.17L422.649 864.544V831.299H417.851V935.213C417.851 936.077 418.313 936.83 419 937.245L418.984 937.277L418.978 937.282L595.451 1039.12H600.25Z" fill="#EDEDED" fill-opacity="0.5"/>
<path d="M391.418 985.118L391.436 985.084C391.436 985.077 391.436 985.077 391.434 985.077L362.62 968.451V832.682L365.02 831.299H357.822V1037.74L355.423 1039.12H355.419L302.583 1069.61V1039.13C302.586 1039.13 302.583 1039.12 302.583 1039.12H297.788C297.788 1039.13 297.788 1039.13 297.785 1039.13V1072.38L180.149 1140.27L177.75 1138.88L181.342 1145.1L181.349 1145.11L357.819 1043.28L360.218 1039.12H364.945L362.545 1037.74V1035.1L362.62 1034.97V973.99L388.981 989.202L388.963 989.234L475.405 1039.12H485.002L391.418 985.118Z" fill="#EDEDED" fill-opacity="0.5"/>
<path d="M297.806 931.058L297.8 931.051V1039.12H302.598V939.356L302.604 939.372V831.299H297.805V931.057M244.975 831.299H240.176L237.777 835.45V896.43L211.364 881.187H211.361L208.962 885.335C208.962 885.335 208.962 885.346 208.964 885.346L237.778 901.969V1037.74L235.378 1039.12H242.576V832.684L244.976 831.301" fill="#EDEDED" fill-opacity="0.5"/>
<path d="M449.039 1192.91L359.002 1244.87C358.637 1245.08 358.335 1245.38 358.126 1245.75C357.917 1246.11 357.809 1246.53 357.812 1246.95H364.997L417.836 1216.45L417.84 1246.95H422.639L422.635 1213.69L451.438 1197.06L449.039 1192.91Z" fill="#EDEDED" fill-opacity="0.5"/>
<path d="M389.026 1089.01L302.584 1138.88L297.785 1147.2L391.425 1093.15L389.026 1089.01Z" fill="#EDEDED" fill-opacity="0.5"/>
<path d="M422.639 1147.19L419.047 1140.96L419.041 1140.95L242.571 1242.79L240.172 1246.95H244.97L297.807 1216.45V1246.94C297.804 1246.94 297.807 1246.95 297.807 1246.95H302.602V1246.94L302.605 1213.69L420.241 1145.8L422.639 1147.19Z" fill="#EDEDED" fill-opacity="0.5"/>
<path d="M360.211 1039.13L359.011 1041.2L357.812 1043.28L360.211 1041.89L362.61 1043.28L360.211 1039.13ZM421.439 1140.95C421.073 1140.74 420.66 1140.63 420.24 1140.63C419.82 1140.63 419.407 1140.75 419.043 1140.95L422.635 1147.18L475.472 1177.67L449.056 1192.91L451.455 1197.07L480.27 1180.43L509.077 1197.06L511.476 1192.91L421.439 1140.95ZM485.053 1039.12H475.456L569.096 1093.15L571.495 1089.01L485.053 1039.12ZM541.48 1140.96L541.486 1140.95L365.016 1039.12H360.217L362.616 1043.28L415.453 1073.76L389.037 1089.01H389.033L391.432 1093.16H391.435L420.251 1076.54L537.887 1144.42V1147.19L541.48 1140.96ZM600.311 1039.13H595.513L597.912 1040.51V1043.28L600.311 1039.13Z" fill="#EDEDED" fill-opacity="0.5"/>
<path d="M541.497 1140.96L537.905 1147.18V1208.16L511.485 1192.92L509.086 1197.07L537.905 1213.7V1246.95H542.703V1143.02C542.703 1142.14 542.216 1141.38 541.497 1140.96Z" fill="#EDEDED" fill-opacity="0.5"/>
<path d="M657.953 1138.89L657.947 1138.88V1246.95H662.746V1147.18L662.751 1147.2V1039.12H657.953V1138.88" fill="#EDEDED" fill-opacity="0.5"/>
<path d="M751.588 1192.91H751.585L722.77 1176.28V1040.5L725.169 1039.12H717.972V1245.56L715.572 1246.95H725.097L722.698 1245.56V1242.92L722.77 1242.79V1181.81L749.133 1197.03L749.111 1197.06L835.557 1246.95H845.154L751.567 1192.94L751.588 1192.91Z" fill="#EDEDED" fill-opacity="0.5"/>
<path d="M605.111 1039.12H600.313L597.917 1043.28V1104.26L571.499 1089.01C571.499 1089.01 571.497 1089.01 571.497 1089.01L569.098 1093.16H569.1L597.917 1109.8V1245.56L595.517 1246.95H602.715V1043.28H602.712V1040.5L605.111 1039.12Z" fill="#EDEDED" fill-opacity="0.5"/>
<path d="M58.7441 313.81L235.215 415.644H240.013L237.614 411.498L184.778 381.001L211.194 365.757H211.197L208.798 361.611H208.795L179.979 378.238L62.3438 310.35V307.712L62.4126 307.591V246.609L88.7796 261.822L88.754 261.862L178.795 313.819C179.563 314.267 180.473 314.225 181.191 313.81L177.598 307.591L124.759 277.097L151.179 261.853L148.779 257.697L119.96 274.331L91.2092 257.738L91.2348 257.698L62.4118 241.071V207.826H57.6133V311.74C57.6133 312.602 58.0795 313.355 58.7665 313.77L58.7505 313.801L58.7441 313.81Z" fill="#EDEDED" fill-opacity="0.5"/>
<path d="M2.32408 415.644H4.72333L2.32408 414.264V411.626L2.39925 411.497V350.516L28.763 365.726L28.7407 365.765L115.183 415.644H124.78L31.1967 361.641L31.2151 361.611C31.2151 361.601 31.2151 361.601 31.2119 361.601L2.39925 344.976V209.209L4.79851 207.826H0V415.644H2.32408ZM57.6261 592.978L57.6293 623.468H62.4278L62.4246 590.212L91.2316 573.588L88.8323 569.435L0 620.696V623.471H4.78891L57.6261 592.978ZM28.8094 465.531L0 482.158V487.698L31.2087 469.688L28.8094 465.531ZM62.4206 523.714L58.8257 517.49L58.8225 517.485L0 551.428V556.964L60.0213 522.327L62.4206 523.714ZM0 415.654V418.419L2.39605 419.803L0 415.654Z" fill="#EDEDED" fill-opacity="0.5"/>
<path d="M208.882 469.688L211.281 465.531L124.84 415.645H115.243L208.882 469.688ZM91.2372 573.598L120.056 556.965L148.863 573.589L151.262 569.436L61.2209 517.476C60.8559 517.267 60.4422 517.158 60.0216 517.16C59.601 517.162 59.1883 517.274 58.8249 517.486L62.4174 523.704L115.257 554.195L88.8371 569.443L91.2372 573.598ZM28.819 465.534L31.2183 469.691C31.2183 469.688 31.2183 469.688 31.2215 469.688L60.0373 453.061L177.673 520.945V523.715L181.265 517.491L181.272 517.486L4.8017 415.645H0.003199L2.40245 419.804L55.2388 450.294L28.823 465.534H28.819ZM240.097 415.654H235.299L237.698 417.037V419.804L240.097 415.654ZM57.6261 177.334L57.6292 207.818H62.4278L62.4246 174.557L91.2316 157.941L88.8323 153.784L0 205.045V207.818H4.78891L57.6261 177.334ZM28.8094 49.8865L0 66.5127V72.0433L31.2087 54.0367L28.8094 49.8865ZM62.4206 108.063L58.8257 101.844L58.8225 101.834L0 135.784V141.314L60.0213 106.68L62.4206 108.063ZM0 0.00959202V2.77289L2.39605 4.15574L0 0.00959202ZM55.2388 34.6432L28.823 49.8865H28.819L31.2183 54.0431C31.2183 54.0431 31.2183 54.0367 31.2215 54.0367L60.0373 37.4089L177.673 105.296V108.062L181.265 101.843L181.272 101.833L4.8017 0H0.003199L2.40245 4.15654L55.2388 34.6432ZM211.281 49.8865L124.84 0H115.243L208.882 54.0367L211.281 49.8865Z" fill="#EDEDED" fill-opacity="0.5"/>
<path d="M91.2316 157.95L120.051 141.314L148.858 157.94L151.257 153.785L61.2162 101.828C60.8515 101.619 60.438 101.509 60.0174 101.51C59.5968 101.511 59.1838 101.623 58.8201 101.834L62.4126 108.054L115.252 138.547L88.8324 153.79L91.2316 157.95ZM237.692 4.15654L240.092 0H235.293L237.692 1.38924V4.15654ZM58.7441 729.462L235.215 831.299H240.013L237.614 827.143L184.778 796.654L211.194 781.413C211.197 781.413 211.197 781.409 211.197 781.409L208.798 777.257C208.798 777.257 208.798 777.26 208.795 777.26L179.979 793.884L62.3438 726.003V723.358L62.4126 723.239V662.258L88.7796 677.468L88.754 677.512L178.795 729.469C179.563 729.911 180.473 729.875 181.191 729.462L177.598 723.242L124.759 692.749L151.179 677.502L148.779 673.35L119.96 689.979L91.2092 673.39L91.2348 673.346L62.4118 656.719V623.472H57.6133V727.389C57.6133 728.254 58.0795 729.003 58.7665 729.421L58.7505 729.453L58.7449 729.461" fill="#EDEDED" fill-opacity="0.5"/>
<path d="M2.32408 831.292H4.72333L2.32408 829.909V827.272L2.39925 827.144V766.162L28.763 781.378L28.7406 781.412L115.183 831.292H124.78L31.1967 777.291L31.2151 777.256C31.2151 777.256 31.2151 777.253 31.2119 777.253L2.39925 760.623V624.858L4.79851 623.471H0V831.292H2.32408ZM57.6261 1008.62L57.6292 1039.12H62.4278L62.4246 1005.86L91.2316 989.234L88.8323 985.084L0 1036.35V1039.12H4.78891L57.6261 1008.62ZM28.8094 881.179L0 897.807V903.346L31.2087 885.336L28.8094 881.179ZM62.4206 939.362L58.8257 933.142L58.8225 933.136L0 967.075V972.615L60.0213 937.978L62.4206 939.361M0 831.308V834.074L2.39605 835.449L0 831.308ZM208.882 885.335L211.281 881.179L124.84 831.299H115.243L208.882 885.335ZM91.2372 989.239L120.056 972.616L148.863 989.234L151.262 985.084L61.2217 933.127C60.8572 932.917 60.4433 932.807 60.0224 932.808C59.6015 932.81 59.1885 932.923 58.8257 933.136L62.4182 939.355L115.258 969.84L88.8379 985.093L91.2372 989.239ZM28.819 881.185L31.2183 885.335H31.2215L60.0373 868.709L177.673 936.596V939.362L181.265 933.143L181.272 933.136L4.8017 831.299H0.003199L2.40245 835.449L55.2388 865.942L28.823 881.18C28.819 881.18 28.819 881.185 28.819 881.185ZM240.097 831.299H235.299L237.698 832.682V835.449L240.097 831.299Z" fill="#EDEDED" fill-opacity="0.5"/>
<path d="M184.777 1212.3L211.194 1197.06H211.197L208.798 1192.9H208.795L179.979 1209.53L62.3438 1141.65V1139.01L62.4126 1138.88V1077.9L88.7796 1093.12L88.754 1093.16L178.795 1145.12C179.563 1145.56 180.473 1145.52 181.191 1145.11L177.598 1138.89L124.759 1108.4L151.179 1093.15L148.779 1089L119.96 1105.63L91.2092 1089.04L91.2348 1089L62.4118 1072.36V1039.12H57.6133V1143.04C57.6133 1143.9 58.0795 1144.65 58.7665 1145.07L58.7505 1145.1L58.7449 1145.11L235.215 1246.95H240.013L237.614 1242.79L184.778 1212.3" fill="#EDEDED" fill-opacity="0.5"/>
<path d="M31.2151 1192.91H31.2119L2.39925 1176.28V1040.5L4.79851 1039.12H0V1246.95H4.72333L2.32408 1245.56V1242.92L2.39925 1242.79V1181.81L28.763 1197.03L28.7407 1197.06L115.183 1246.95H124.78L31.1967 1192.94L31.2151 1192.91Z" fill="#EDEDED" fill-opacity="0.5"/>
<path d="M1022.66 108.063L1022.67 108.069V0H1017.87V99.7642L1017.86 99.7483V207.827H1022.66V108.063ZM929.026 54.0431L957.842 70.6692V206.438L955.443 207.827H962.641V1.38285L965.04 0H955.667L958.066 1.38924V3.77126L957.842 4.15574V65.137L931.595 49.9832L931.651 49.8873L845.205 0H835.608L929.083 53.9391L929.027 54.0431" fill="#EDEDED" fill-opacity="0.5"/>
<path d="M898.042 307.704L897.979 307.591L845.14 277.098L871.556 261.854L871.522 261.798L961.456 209.907C961.819 209.694 962.12 209.39 962.329 209.026C962.538 208.661 962.648 208.248 962.647 207.827H955.458L902.619 238.314V207.827H897.82V241.088L869.02 257.704L869.052 257.76L840.341 274.331L811.59 257.738L811.613 257.698L782.794 241.072V207.827H777.995V311.741C777.995 312.602 778.461 313.355 779.148 313.771L779.129 313.801L779.126 313.811L955.593 415.645H965.046L1017.89 385.161V415.645H1022.68V382.384L1140.32 314.507L1142.72 315.89L1139.13 309.671L1139.12 309.661L962.647 411.499L960.32 415.526L961.456 413.568L962.656 411.49L960.257 412.873L958.064 411.611L957.992 411.499L905.162 381.002L931.575 365.758L931.544 365.705L1017.88 315.881L1022.68 307.576L929.042 361.611L929.074 361.667L900.363 378.238L782.725 310.351V307.713L782.794 307.591V246.61L809.161 261.823L809.135 261.863L899.17 313.82C899.535 314.03 899.949 314.14 900.371 314.139C900.792 314.137 901.206 314.024 901.569 313.811L901.537 313.749L1077.9 211.977L1080.3 207.827V207.818H1085.02L1082.63 206.438V203.799L1082.7 203.671V142.69L1109.06 157.9L1109.04 157.94L1195.48 207.818H1205.07L1111.5 153.815L1111.51 153.785L1082.7 137.148V1.38285L1085.1 0H1077.9V206.438L1075.5 207.827L1022.66 238.314V207.827H1017.86V241.081L900.226 308.969L898.043 307.703" fill="#EDEDED" fill-opacity="0.5"/>
<path d="M1139.08 105.952L1139.06 105.984L1139.05 105.993L1315.53 207.827H1320.32L1317.93 203.671L1265.09 173.174L1291.5 157.941H1291.51L1289.11 153.784H1289.1L1260.29 170.411L1142.65 102.531V99.8849L1142.72 99.7642V38.783L1169.09 53.9959L1169.07 54.0359L1259.1 105.999C1259.87 106.439 1260.78 106.399 1261.5 105.983L1257.91 99.7642L1205.07 69.28L1231.49 54.0271L1229.09 49.8769L1200.28 66.5039L1171.52 49.9177L1171.55 49.8713L1142.72 33.2444V0H1137.92V103.914C1137.92 104.785 1138.39 105.528 1139.08 105.952ZM1077.9 415.645H1085.09L1137.93 385.152V415.645H1142.73V382.384L1171.54 365.758L1169.14 361.612L1079.1 413.569C1078.33 414.015 1077.91 414.814 1077.9 415.645M1017.88 315.897L1111.52 261.864L1109.12 257.704L1022.67 307.591L1017.88 315.897M1080.3 207.827L1079.1 209.907L1077.9 211.977L1080.3 210.594L1082.7 211.977L1080.3 207.827Z" fill="#EDEDED" fill-opacity="0.5"/>
<path d="M1195.56 346.369L1169.14 361.618L1171.54 365.769L1200.36 349.142L1229.17 365.759L1231.56 361.613L1141.52 309.656C1140.75 309.206 1139.85 309.247 1139.13 309.662L1142.72 315.882L1195.56 346.369ZM1291.59 257.705L1205.14 207.828H1195.54L1289.19 261.865L1291.59 257.705ZM1111.52 261.865L1140.34 245.238L1257.97 313.125V315.891L1261.57 309.672V309.662L1085.1 207.828H1080.3L1082.7 211.977L1135.54 242.471L1109.12 257.705V257.714L1111.52 261.865M1320.4 207.828H1315.6L1318 209.211V211.977L1320.4 207.828Z" fill="#EDEDED" fill-opacity="0.5"/>
<path d="M1322.8 211.977L1320.41 207.828L1318.01 211.977V272.958L1291.59 257.715H1291.58L1289.18 261.864L1289.19 261.87L1318.01 278.497V414.266L1315.61 415.645H1322.8V211.977ZM1262.78 415.645V311.732C1262.78 310.845 1262.29 310.08 1261.58 309.662L1257.98 315.882V376.863L1231.56 361.619L1229.16 365.778L1257.98 382.401V415.645H1262.78ZM1378.03 415.645H1382.83V315.882L1378.03 307.577V415.645Z" fill="#EDEDED" fill-opacity="0.5"/>
<path d="M1438.05 411.499V414.265L1435.65 415.646L1382.81 446.143L1382.82 415.655V415.646H1378.02V415.655L1378.01 448.909L1260.37 516.793L1257.98 515.41L1261.57 521.629V521.639L1438.05 419.804L1440 416.423V414.872L1439.25 413.569L1438.05 411.499" fill="#EDEDED" fill-opacity="0.5"/>
<path d="M1322.79 415.645H1315.61L1262.77 446.142L1262.76 415.655H1257.96L1257.97 448.911L1229.16 465.535L1231.56 469.688L1321.6 417.725C1322.37 417.285 1322.79 416.479 1322.79 415.645ZM1382.83 515.4L1289.18 569.436L1291.58 573.589L1378.03 523.706L1382.83 515.401M1321.6 621.393L1322.8 619.317L1320.4 620.703L1318 619.317L1320.4 623.469L1321.6 621.393Z" fill="#EDEDED" fill-opacity="0.5"/>
<path d="M1438.04 207.828V411.498L1439.99 414.872V207.828H1438.04Z" fill="#EDEDED" fill-opacity="0.5"/>
<path d="M1382.82 207.828H1378.03V307.592L1382.82 315.897V207.828Z" fill="#EDEDED" fill-opacity="0.5"/>
<path d="M1320.4 623.472L1321.6 625.548L1322.8 627.628V624.859L1325.2 623.472L1378.04 592.982L1378.03 623.469V623.472H1382.83V623.469L1382.84 590.212L1440 557.227V551.688L1322.8 619.319L1320.4 623.472Z" fill="#EDEDED" fill-opacity="0.5"/>
<path d="M1438.05 623.471H1439.99V620.955L1439.24 621.392C1438.88 621.603 1438.58 621.907 1438.37 622.272C1438.16 622.637 1438.05 623.051 1438.05 623.471Z" fill="#EDEDED" fill-opacity="0.5"/>
<path d="M1378.03 523.725L1440 487.958V482.418L1382.82 515.416L1378.03 523.725" fill="#EDEDED" fill-opacity="0.5"/>
<path d="M1438.04 419.804L1439.99 418.677V416.423L1439.24 417.725L1438.04 419.804Z" fill="#EDEDED" fill-opacity="0.5"/>
<path d="M1435.65 0L1382.81 30.4866L1382.82 0.00959202V0H1378.02V0.00959202L1378.01 33.2595L1260.37 101.141L1257.98 99.7579L1261.57 105.984V105.993L1438.05 4.15574L1440 0.774556V0H1435.65Z" fill="#EDEDED" fill-opacity="0.5"/>
<path d="M1231.56 54.0367L1321.6 2.07987C1322.37 1.63944 1322.79 0.830509 1322.79 0H1315.61L1262.77 30.493L1262.76 0H1257.96L1257.97 33.2603L1229.16 49.8865L1231.56 54.0367ZM1382.83 99.749L1289.18 153.784L1291.58 157.941L1378.03 108.054L1382.83 99.749ZM1321.6 205.741L1322.8 203.671L1320.4 205.054L1318 203.671L1320.4 207.818L1321.6 205.741Z" fill="#EDEDED" fill-opacity="0.5"/>
<path d="M1320.4 207.828L1321.6 209.898L1322.8 211.978V209.212L1325.2 207.828L1378.04 177.335L1378.03 207.819H1382.83L1382.84 174.569L1440 141.58V136.041L1322.8 203.672L1320.4 207.828Z" fill="#EDEDED" fill-opacity="0.5"/>
<path d="M1438.05 207.818H1439.99V205.312L1439.24 205.743C1438.88 205.954 1438.58 206.257 1438.37 206.621C1438.16 206.986 1438.05 207.398 1438.05 207.818Z" fill="#EDEDED" fill-opacity="0.5"/>
<path d="M1378.03 108.071L1440 72.3085V66.7699L1382.82 99.7648L1378.03 108.071Z" fill="#EDEDED" fill-opacity="0.5"/>
<path d="M902.624 623.472V519.556C902.624 518.738 902.208 518.026 901.584 517.595L901.64 517.492V517.486L725.172 415.645H720.373L722.772 419.804L775.609 450.295L749.192 465.535H749.189L751.588 469.691C751.588 469.688 751.591 469.688 751.591 469.688L780.408 453.061L898.039 520.946V523.334L897.823 523.706V584.689L871.57 569.54L871.632 569.436L781.595 517.477C781.23 517.268 780.816 517.159 780.395 517.16C779.975 517.162 779.562 517.274 779.199 517.486L782.791 523.705L835.628 554.196L809.212 569.443L811.611 573.599L840.426 556.965L869.068 573.496L869.012 573.599L897.824 590.228V623.472H902.624ZM1022.67 523.709L1022.67 523.721V415.645H1017.87V515.413L1017.87 515.4V623.472H1022.67V523.709ZM1259.1 521.645C1259.87 522.088 1260.78 522.05 1261.5 521.635L1257.91 515.419L1205.07 484.925L1231.48 469.679L1229.08 465.526L1200.27 482.156L1171.52 465.566L1171.54 465.523L1142.72 448.896V415.645H1137.92V519.565C1137.92 520.43 1138.38 521.18 1139.07 521.598L1139.06 521.63L1139.05 521.638L1315.52 623.473H1320.32L1317.92 619.32L1265.08 588.829L1291.5 573.589L1291.5 573.586L1289.1 569.433L1289.1 569.437L1260.28 586.06L1142.65 518.176V515.534L1142.72 515.416V454.432L1169.08 469.644L1169.06 469.688L1259.1 521.645ZM1137.93 800.807V831.293H1142.73V798.037L1171.53 781.413L1169.13 777.26L1079.09 829.214C1078.73 829.428 1078.43 829.731 1078.22 830.096C1078.01 830.46 1077.9 830.873 1077.9 831.293H1085.09L1137.93 800.807M1017.87 731.548L1111.51 677.512L1109.11 673.356L1022.67 723.24L1017.87 731.548Z" fill="#EDEDED" fill-opacity="0.5"/>
<path d="M1022.69 831.293V798.041L1140.32 730.153L1142.72 731.54L1139.13 725.316L1139.12 725.311L962.651 827.144L960.324 831.173L961.46 829.215L962.66 827.144L960.261 828.527L958.068 827.266L957.996 827.144L905.166 796.655L931.579 781.414V781.41L931.548 781.355L1017.88 731.534L1022.68 723.224L929.045 777.261L929.077 777.32L900.366 793.885L782.729 726.004V723.359L782.797 723.24V662.259L809.164 677.469L809.139 677.513L899.174 729.47C899.539 729.679 899.953 729.789 900.374 729.787C900.796 729.786 901.209 729.675 901.573 729.463L901.541 729.401L1077.9 627.63L1080.3 623.473V623.47H1085.03L1082.63 622.087V619.449L1082.7 619.32V558.339L1109.06 573.555L1109.05 573.59L1195.48 623.473H1205.08L1111.5 569.468L1111.52 569.433V569.43L1082.7 552.8V417.029L1085.1 415.647H1077.9V622.09L1075.5 623.473L1022.66 653.964V623.473H1017.86V656.733L900.229 724.617L898.045 723.356L897.982 723.244L845.143 692.75L871.559 677.503L871.525 677.451L961.459 625.553C961.823 625.342 962.124 625.039 962.333 624.674C962.542 624.309 962.651 623.896 962.65 623.476H955.461L902.622 653.967V623.476H897.823V656.737L869.023 673.36L869.054 673.413L840.344 689.98L811.593 673.391L811.616 673.348L782.797 656.721V623.473H777.998V727.39C777.998 728.255 778.463 729.004 779.15 729.423L779.132 729.454L779.129 729.462L955.596 831.3H965.049L1017.89 800.807V831.294H1022.69" fill="#EDEDED" fill-opacity="0.5"/>
<path d="M1080.3 623.476L1077.9 627.63L1080.3 626.246L1082.7 627.629L1080.3 623.476ZM1291.59 673.357L1205.14 623.476H1195.55L1289.19 677.513L1291.59 673.356M1171.54 781.423L1200.36 764.79L1229.17 781.414L1231.57 777.261L1141.52 725.301C1141.16 725.092 1140.75 724.983 1140.33 724.985C1139.91 724.987 1139.5 725.099 1139.13 725.311L1142.72 731.53L1195.56 762.02L1169.14 777.271L1171.54 781.423Z" fill="#EDEDED" fill-opacity="0.5"/>
<path d="M1111.51 677.511L1140.33 660.885L1257.96 728.769V731.539L1261.56 725.315V725.309L1085.09 623.472H1080.29L1082.69 627.628L1135.53 658.115L1109.11 673.358L1111.51 677.515L1111.51 677.511ZM1320.39 623.475H1315.6L1318 624.862V627.627L1320.39 623.475ZM1322.8 627.628L1320.4 623.472L1318 627.628V688.609L1291.58 673.361H1291.58L1289.18 677.515L1289.19 677.518L1318 694.144V829.91L1315.6 831.299H1322.8V627.628ZM1262.78 831.299V727.379C1262.78 726.492 1262.29 725.727 1261.57 725.313L1257.98 731.531V792.513L1231.56 777.269L1229.16 781.425L1257.98 798.051V831.299H1262.78Z" fill="#EDEDED" fill-opacity="0.5"/>
<path d="M1438.05 827.144V829.91L1435.65 831.299H1435.65L1382.81 861.786L1382.82 831.299H1382.82V731.533L1378.03 723.224V831.299H1378.02L1378.01 864.553L1260.37 932.441L1257.98 931.058L1261.57 937.277V937.283L1438.05 835.449L1440 832.076V830.519L1439.25 829.223L1438.05 827.144Z" fill="#EDEDED" fill-opacity="0.5"/>
<path d="M1322.79 831.299H1315.61L1262.77 861.786L1262.76 831.299H1257.96L1257.97 864.563L1229.16 881.18L1231.56 885.336L1321.6 833.379C1321.96 833.168 1322.27 832.865 1322.47 832.5C1322.68 832.135 1322.79 831.72 1322.79 831.299ZM1382.83 931.051L1289.18 985.084L1291.58 989.234L1378.03 939.357L1382.83 931.051ZM1320.4 1039.12L1321.6 1037.04L1322.8 1034.96L1320.4 1036.35L1318 1034.96L1320.4 1039.12Z" fill="#EDEDED" fill-opacity="0.5"/>
<path d="M1438.04 623.473V827.144L1439.99 830.52V623.473H1438.04Z" fill="#EDEDED" fill-opacity="0.5"/>
<path d="M1382.82 623.473H1378.03V723.24L1382.82 731.545V623.473Z" fill="#EDEDED" fill-opacity="0.5"/>
<path d="M1320.4 1039.12H1325.2L1378.04 1008.63L1378.03 1039.12H1382.83L1382.84 1005.86L1440 972.872V967.34L1322.8 1034.97L1320.4 1039.12Z" fill="#EDEDED" fill-opacity="0.5"/>
<path d="M1438.05 1039.12H1439.99V1036.6L1439.24 1037.04C1438.88 1037.25 1438.58 1037.55 1438.37 1037.92C1438.16 1038.28 1438.05 1038.7 1438.05 1039.12Z" fill="#EDEDED" fill-opacity="0.5"/>
<path d="M1378.03 939.373L1440 903.609V898.069L1382.82 931.067L1378.03 939.373Z" fill="#EDEDED" fill-opacity="0.5"/>
<path d="M1438.04 835.45L1439.99 834.331V832.077L1439.24 833.379L1438.04 835.45Z" fill="#EDEDED" fill-opacity="0.5"/>
<path d="M902.623 1039.12V935.207C902.623 934.383 902.207 933.671 901.583 933.24L901.639 933.143V933.137L725.172 831.299H720.373L722.772 835.45L775.609 865.943L749.192 881.18C749.192 881.18 749.192 881.186 749.189 881.186L751.588 885.336H751.591L780.408 868.71L898.039 936.597V938.979L897.823 939.357V1000.34L871.57 985.19L871.632 985.084L781.595 933.128C781.23 932.917 780.816 932.807 780.395 932.809C779.975 932.811 779.562 932.924 779.199 933.137L782.791 939.356L835.628 969.841L809.212 985.094L811.611 989.24L840.426 972.616L869.068 989.147L869.012 989.25L897.824 1005.88V1039.12H902.623ZM1259.1 937.293C1259.86 937.739 1260.78 937.702 1261.5 937.283L1257.91 931.067L1205.07 900.57L1231.48 885.326L1229.08 881.17L1200.27 897.807L1171.52 881.212L1171.54 881.171L1142.72 864.545V831.3H1137.92V935.214C1137.92 935.623 1138.02 936.025 1138.23 936.381C1138.43 936.737 1138.72 937.035 1139.07 937.246L1139.05 937.278L1139.05 937.283L1315.52 1039.12H1320.32L1317.92 1034.97L1265.08 1004.48L1291.5 989.234H1291.5L1289.1 985.084L1260.28 1001.71L1142.64 933.824V931.186L1142.72 931.066V870.086L1169.08 885.295L1169.06 885.335L1259.1 937.292M1017.87 931.058L1017.87 931.051V1039.12H1022.67V939.356L1022.67 939.372V831.299H1017.87V931.057" fill="#EDEDED" fill-opacity="0.5"/>
<path d="M965.044 831.299H955.671L958.07 832.682V835.075L957.846 835.45V896.43L931.598 881.283L931.654 881.18L845.209 831.299H835.612L929.086 885.239L929.03 885.336V885.346L957.845 901.969V1037.74L955.446 1039.12H962.644V832.684L965.043 831.301" fill="#EDEDED" fill-opacity="0.5"/>
<path d="M1169.13 1192.91L1079.08 1244.87C1078.32 1245.31 1077.9 1246.12 1077.89 1246.95H1085.08L1137.92 1216.45V1246.95H1142.72V1213.69L1171.53 1197.06L1169.13 1192.91Z" fill="#EDEDED" fill-opacity="0.5"/>
<path d="M1017.87 1147.2L1111.51 1093.15L1109.11 1089.01L1022.66 1138.88L1017.87 1147.2Z" fill="#EDEDED" fill-opacity="0.5"/>
<path d="M1142.72 1147.19L1139.13 1140.96L1139.12 1140.96L962.649 1242.79L960.322 1246.82L961.458 1244.87L962.658 1242.79L960.259 1244.18L958.066 1242.91L957.994 1242.79L905.164 1212.31L931.577 1197.06L931.546 1197L1017.88 1147.18L1022.68 1138.87L929.044 1192.91L929.076 1192.97L900.365 1209.53L782.727 1141.65V1139.01L782.796 1138.89V1077.9L809.163 1093.12L809.137 1093.16L899.172 1145.12C899.949 1145.56 900.852 1145.52 901.571 1145.11L901.539 1145.05L1077.9 1043.28L1080.3 1039.12H1085.03L1082.63 1037.74V1035.1L1082.7 1034.97V973.991L1109.06 989.203L1109.04 989.235L1195.48 1039.12H1205.08L1111.5 985.119L1111.52 985.085V985.079L1082.7 968.452V832.684L1085.1 831.301H1077.9V1037.74L1075.5 1039.12L1022.66 1069.61V1039.12H1017.86V1072.38L900.228 1140.27L898.045 1139.01L897.981 1138.89L845.142 1108.4L871.558 1093.15L871.524 1093.1L961.458 1041.2C961.823 1040.99 962.125 1040.68 962.334 1040.32C962.543 1039.95 962.652 1039.54 962.649 1039.12H955.46L902.621 1069.61V1039.13H897.822V1072.38L869.022 1089.01L869.054 1089.06L840.343 1105.63L811.592 1089.04L811.615 1089L782.796 1072.37V1039.12H777.997V1143.04C777.997 1143.91 778.463 1144.65 779.149 1145.07L779.131 1145.11L779.128 1145.11L955.595 1246.95H965.048L1017.89 1216.45V1246.95H1022.69V1213.69L1140.32 1145.8L1142.72 1147.19Z" fill="#EDEDED" fill-opacity="0.5"/>
<path d="M1080.29 1039.13L1079.09 1041.2L1077.89 1043.28L1080.29 1041.89L1082.69 1043.28L1080.29 1039.13ZM1141.51 1140.95C1141.15 1140.74 1140.73 1140.63 1140.31 1140.63C1139.9 1140.63 1139.48 1140.75 1139.12 1140.95L1142.71 1147.18L1195.55 1177.67L1169.13 1192.91L1171.53 1197.07L1200.35 1180.43L1229.15 1197.06L1231.55 1192.91L1141.51 1140.95ZM1205.13 1039.12H1195.53L1289.18 1093.15L1291.58 1089.01L1205.13 1039.12ZM1261.56 1140.96V1140.95L1085.09 1039.12H1080.29L1082.69 1043.28L1135.53 1073.76L1109.11 1089.01L1111.51 1093.16L1140.33 1076.54L1257.96 1144.42V1147.19L1261.56 1140.96ZM1320.39 1039.13H1315.59L1317.99 1040.51V1043.28L1320.39 1039.13Z" fill="#EDEDED" fill-opacity="0.5"/>
<path d="M1318 1043.28V1104.26L1291.58 1089.01C1291.58 1089.01 1291.58 1089.01 1291.58 1089.01L1289.18 1093.16H1289.18L1318 1109.8V1245.56L1315.6 1246.95H1322.8V1040.5L1325.2 1039.12H1320.4L1318 1043.28Z" fill="#EDEDED" fill-opacity="0.5"/>
<path d="M1261.58 1140.96L1257.99 1147.18V1208.16L1231.56 1192.92L1229.16 1197.07L1257.99 1213.7V1246.95H1262.79V1143.02C1262.79 1142.14 1262.3 1141.38 1261.58 1140.96" fill="#EDEDED" fill-opacity="0.5"/>
<path d="M1438.05 1039.12V1245.56L1435.65 1246.95H1440V1039.12H1438.05Z" fill="#EDEDED" fill-opacity="0.5"/>
<path d="M1378.03 1138.89L1378.03 1138.88V1246.95H1382.82V1147.18L1382.83 1147.2V1039.12H1378.03V1138.88" fill="#EDEDED" fill-opacity="0.5"/>
</svg>
