<svg width="81" height="80" viewBox="0 0 81 80" fill="none" xmlns="http://www.w3.org/2000/svg">
<path d="M77.6957 60.6723C77.7167 61.2186 77.7434 61.7634 77.7574 62.3097C77.7656 62.6706 77.7586 63.0322 77.7586 63.4428H80.4889V66.2119H77.7586V66.7244C77.7586 68.2472 77.7586 69.7687 77.7574 71.2913C77.7574 71.4498 77.7377 71.6084 77.7274 71.7655L77.7434 71.7497H75.0357L75.0497 71.7618V69.0073H72.2508V71.7618L72.2635 71.7497C70.4021 71.7547 68.5393 71.7598 66.6779 71.7637V69.0123H55.7203V71.7547H58.4419V74.5061H61.2161V77.2415H66.6959L66.6799 77.2236V79.9872H55.6763V77.2586H50.1884V71.737H52.9606V74.4634H55.6586V71.751H52.9499C52.9518 70.8209 52.9536 69.8915 52.9549 68.9613L52.9409 68.9753H55.6535V63.4905H50.1566V66.1902L50.1687 66.1764H47.3823V60.6982L47.3702 60.7091H55.6535V57.9157H50.1884V55.1714H58.4189V52.4342H61.204V49.6479H69.4541V46.8856H64.008V44.1331H66.6869V41.3817H63.9653V38.5933H61.2479V35.7753L61.2408 35.7841H63.9763V35.2761C63.9852 33.6285 63.9935 31.9826 64.0023 30.3343L63.9935 30.347H66.713V22.1038H69.4643V24.8195H75.0409V27.5601L75.0549 27.5499H69.4733V33.1136H66.7485V38.5865H69.5V35.8421H72.2596V33.1085H77.7483V30.3343L77.7323 30.3483H80.4977V44.1152H75.0536V41.3957H77.7375V35.893H75.016V38.6075H72.2895V49.644H74.9739V57.9139H72.2933V60.7271H69.5121V66.1744H74.9862V63.4548H72.2793V60.7145C73.9326 60.7113 75.5839 60.7075 77.2351 60.7025C77.3937 60.7025 77.5509 60.6827 77.7094 60.6738L77.6955 60.6725L77.6957 60.6723ZM66.6941 57.9599H58.4616V66.1832H66.6941V57.9599ZM63.9994 52.4552V55.1448H66.689V52.4553H63.9994V52.4552ZM30.838 30.3381V35.8561H28.1045V38.5896H36.321V41.3837H30.8502V44.1222H28.083V41.3977H25.3391V35.8861H22.579V44.1719H19.7888L19.7996 44.1821V41.3856H17.0024L17.0125 41.3957V38.6214H19.7709V35.8599H8.78199V33.1245H19.7709V30.3661H6.00079V33.0857H0.508789V27.5816H3.24436V24.8285H5.99004V22.0948H11.5066V27.5391H14.279V24.8673H17.0113L17.0043 24.8583V27.5639H22.584L22.5738 27.5512V30.3095H25.3284C25.3284 30.0912 25.3245 29.9046 25.3284 29.7175C25.3405 28.9949 25.3564 28.2725 25.3704 27.5512L25.3564 27.5658H28.0638L28.0498 27.5512V30.3503H30.8483L30.838 30.3381ZM8.72919 27.553V24.8653H6.03452V27.5531H8.72919V27.553Z" fill="#527AC6"/>
<path d="M30.8079 2.8042C30.8467 2.7884 30.8874 2.75841 30.9262 2.75841C32.6871 2.75645 34.4479 2.75841 36.2086 2.76037C36.2329 2.76037 36.2596 2.78514 36.2844 2.79915C36.3087 2.96473 36.3512 3.13014 36.3532 3.29571C36.3602 4.017 36.3564 4.73764 36.3564 5.47295H41.8571V2.75645C40.0327 2.75645 38.2387 2.75645 36.4461 2.75841C36.3902 2.75841 36.3353 2.7884 36.2807 2.8042C36.3054 2.38978 36.3442 1.97421 36.3545 1.55979C36.3672 1.05622 36.3582 0.55004 36.3582 0.012085H50.1443V2.8042H52.9802L52.9732 2.7954C52.9605 3.39822 52.9377 4.00299 52.9364 4.60711C52.9307 5.80199 52.9344 6.99752 52.9344 8.23639H50.1533L50.1673 8.25024V5.53782H41.9029V8.2522H36.3403V5.54287H30.8695V8.27323H33.6404V11.0404H36.3313V13.8076H33.6367V16.5125H30.8765V22.0751H33.6368V24.8392H36.3193V27.5656L36.3265 27.5549H33.6388V30.3393H30.8377L30.8504 30.352V27.5531H28.0515L28.0653 27.5669V22.1088H25.3586V27.5689L25.3726 27.5549C24.4399 27.5549 23.5061 27.5549 22.5735 27.5568L22.5844 27.5689V24.8635H17.0039L17.0109 24.8723V22.093H22.5595V16.5673H25.2968V19.2659H28.064V13.8161L28.0493 13.8268H30.8079V11.0277H28.0495L28.0622 11.0404V8.27127H25.3618V5.52184H30.8167V2.79915L30.8079 2.8042ZM39.1357 35.7893C39.5571 35.8121 39.9799 35.851 40.4013 35.8548C40.9003 35.8598 41.3987 35.8388 41.8978 35.8281L41.8871 35.8171V38.5794H47.4107V35.83H50.164L50.1513 35.816V41.4046H44.6862V44.1648H50.1265V52.4551H47.3929V52.9753C47.3929 54.8596 47.3949 56.7451 47.3916 58.6295C47.3898 59.324 47.3737 60.0198 47.3649 60.7143L47.3769 60.704C46.4769 60.704 45.5761 60.704 44.6753 60.7023L44.6842 60.7143V57.9171H39.1006L39.1129 57.9279V55.1786H44.6264V52.4361H36.3615V49.6866H33.6318V52.3953H30.8785V46.9105H33.6018V44.1749H36.3532V46.8715H41.8623V41.4045H39.1644C39.1427 41.3018 39.1166 41.235 39.1166 41.1682C39.1147 39.457 39.1147 37.7452 39.1147 36.036C39.1147 35.9495 39.1337 35.8629 39.1447 35.7769L39.1357 35.7891V35.7893Z" fill="#527AC6"/>
<path d="M0.499023 19.2678V0.00390907H19.7618V19.2678H0.499023ZM3.27338 2.77224V16.5022H17.0083V2.77224H3.27338ZM61.2381 0H80.499V19.2627H61.2379L61.2381 0ZM63.9984 2.7724V16.5024H77.7335V2.7724H63.9984ZM19.7769 60.7391V80H0.514993V60.7389L19.7769 60.7391ZM3.27533 63.4937V77.2237H17.0066V63.4937H3.27533ZM52.9383 22.086C56.5427 22.0821 60.149 22.077 63.7533 22.0751C63.8081 22.0751 63.8641 22.091 63.9896 22.1121V30.3501L63.9984 30.338H61.1943V24.8691H55.7163V27.5798H58.3971V30.359H55.7163V38.6215H58.4427V41.4066H61.1763V44.161H55.6685V46.8684H52.9649V44.1361H55.6507V41.3746H52.914V35.8579C52.6761 35.8579 52.4768 35.8618 52.2755 35.8579C51.5671 35.8458 50.8585 35.83 50.15 35.816L50.1627 35.83V33.1045H47.4222V24.8173H52.9471V22.0736L52.9383 22.0858V22.086ZM52.9611 27.5969V30.3132H55.6477V27.5969H52.9611Z" fill="#527AC6"/>
<path d="M22.5615 63.4409V57.9457H17.0467V55.2135H14.3005V57.9101H11.5338V55.2205H8.77361V57.9088H3.27787V55.1857H5.99421V52.438H8.73662V49.6956H25.3267V55.1677H28.0393V63.4408L22.5615 63.4409ZM11.5599 52.4501V55.1557H14.2615V52.4501H11.56H11.5599ZM19.7623 55.1607V52.4698H17.0646V55.1607H19.7623ZM50.1494 8.23624V11.0137H58.4053V19.2729H55.672V16.5601H52.9379V22.0859L52.9487 22.0736H44.6737V16.5042H47.3988V19.2765H50.1285V13.8216H44.6737V11.0262H47.3988V8.25206H50.1655L50.1496 8.23608L50.1494 8.23624ZM39.0937 71.7707H36.3653V66.2537H33.6121V68.9574H28.1081V66.2417H30.8257V63.4813H36.3214V60.7161H33.6349V55.2171H36.3532V57.9297H39.1129L39.1007 57.919V63.4395H41.9081V60.7161H44.6843L44.6753 60.7039C44.6665 62.3552 44.6576 64.0066 44.6505 65.656V66.2187H41.8992V68.9663H39.0798V71.7845C39.0798 71.7826 39.0937 71.7705 39.0937 71.7705V71.7707ZM17.0097 44.1738H14.306V46.8895H6.01328V49.6797H3.28488L3.29759 49.6898C3.27966 49.5912 3.24788 49.4944 3.24788 49.3958C3.24609 46.8157 3.24609 44.2336 3.24609 41.6529C3.24609 41.5828 3.25684 41.5142 3.2676 41.3957H5.9973V38.6443H8.71365V41.3836H6.00626C6.00626 42.2666 6.00121 43.1143 6.01718 43.9605C6.01898 44.0255 6.16353 44.1432 6.24045 44.1432C7.9785 44.1541 9.71638 44.1521 11.502 44.1521V41.4027H17.0098L16.9989 41.3924C16.9989 42.3246 16.9971 43.2591 16.9971 44.1909L17.0097 44.1738Z" fill="#527AC6"/>
<path d="M44.6807 74.5448H41.9116V79.9871H39.1214V77.2655H33.6403V74.504H39.0971V71.7706L39.0811 71.7846C40.5441 71.7737 42.0071 71.7634 43.4699 71.7526C43.8447 71.7508 44.2185 71.7526 44.6717 71.7526V74.555L44.6807 74.5448ZM28.046 74.481H22.5967V69.0122H25.3104V71.7337H28.046V74.481ZM41.8995 35.828C41.9006 33.0676 41.9007 30.3094 41.9026 27.5497L41.8886 27.5657H44.6279V35.817H41.8905L41.8995 35.828ZM52.98 2.8041V0.0090447H55.6764V2.74071H58.4087V5.48311H55.6944V2.7935C54.7496 2.7935 53.8597 2.79351 52.971 2.79546C52.973 2.79546 52.98 2.8041 52.98 2.8041ZM41.9006 27.5497H39.1004L39.1144 27.5657C39.1111 25.7341 39.1054 23.9046 39.1022 22.0737H41.8866V27.5657L41.9006 27.5497ZM28.0657 13.8107H22.6107V11.0354H28.0657L28.053 11.0224C28.053 11.9552 28.053 12.8871 28.051 13.8217L28.0657 13.8107ZM30.8182 2.79334C30.4445 2.77933 30.0728 2.75325 29.6991 2.75129C28.2699 2.74624 26.839 2.74934 25.3691 2.74934V0.00170898H30.8112V2.80231C30.8094 2.8041 30.8182 2.79334 30.8182 2.79334ZM72.2509 74.5428V77.2585C71.9319 77.2585 71.6626 77.2604 71.3927 77.2585C69.8202 77.2484 68.2505 77.2376 66.678 77.2274L66.694 77.2446C66.6901 76.3438 66.687 75.4417 66.6831 74.541C68.1848 74.5307 69.6866 74.5161 71.1883 74.511C71.548 74.5091 71.9057 74.5378 72.2655 74.5518L72.2509 74.5428ZM77.7324 74.541V79.9928H75.0378C75.027 79.924 75.0091 79.8565 75.0091 79.7878C75.0079 78.1084 75.0079 76.4303 75.0091 74.7511C75.0091 74.6804 75.034 74.6098 75.0466 74.5391L75.0378 74.5461C75.938 74.5461 76.8407 74.5461 77.7414 74.548L77.7324 74.541Z" fill="#527AC6"/>
<path d="M44.6707 74.5551H47.3692V79.9998H44.7197C44.7024 79.9782 44.6687 79.9571 44.6687 79.9363C44.6707 78.1404 44.6739 76.3445 44.6777 74.5481C44.6796 74.5448 44.6707 74.5551 44.6707 74.5551ZM39.0993 27.5498V30.3132H36.3249V27.5531L36.3179 27.5638C37.2506 27.5638 38.1826 27.5658 39.1151 27.5658L39.0993 27.5498ZM3.28723 49.6777V52.3933H0.503906V49.6865H3.29928C3.29928 49.6886 3.28723 49.6777 3.28723 49.6777ZM77.7015 60.6773C77.7195 60.0324 77.7403 59.3858 77.7563 58.7403C77.7612 58.4952 77.7574 58.252 77.7574 57.9699H80.486V60.6722H77.6963C77.6945 60.6722 77.7015 60.6773 77.7015 60.6773ZM52.9509 68.9645H50.1644V66.1801L50.1517 66.1941H52.9368V68.9785L52.9509 68.9645ZM75.0456 74.5411C74.113 74.5411 73.1803 74.5429 72.2498 74.5429L72.2625 74.5518V71.7527L72.2498 71.7654H75.0487L75.0347 71.7527C75.0347 72.6854 75.0367 73.6161 75.0367 74.5481L75.0456 74.5411ZM77.7276 71.7669H80.4915V74.5411H77.7313L77.7403 74.5481C77.7403 73.6159 77.7423 72.6834 77.7423 71.7527L77.7276 71.7667V71.7669ZM77.7116 27.5359C77.7276 26.8445 77.7436 26.1538 77.7574 25.463C77.7613 25.2779 77.7574 25.0906 77.7574 24.8672H80.4897V27.5231H77.7033C77.7015 27.525 77.7116 27.5359 77.7116 27.5359ZM19.7877 44.1738V46.8704H17.0101V44.1716L16.9991 44.1857C17.9318 44.1857 18.8656 44.1837 19.7983 44.1837L19.7875 44.1736L19.7877 44.1738ZM75.0367 27.5636L77.7116 27.5371C77.7116 27.5371 77.7015 27.5268 77.7015 27.525C77.7103 28.4678 77.7173 29.4093 77.7263 30.352L77.7423 30.338H75.0487V27.5511L75.0367 27.5636ZM39.1451 35.7783C38.8332 35.8051 38.523 35.8491 38.2113 35.8561C37.6186 35.8688 37.0285 35.8598 36.3957 35.8598V33.1422H39.1311C39.1311 34.0352 39.1311 34.9133 39.133 35.7911C39.1374 35.7872 39.1414 35.7829 39.1451 35.7783ZM25.3641 77.2817H28.0467V79.9979H25.3642V77.2816L25.3641 77.2817ZM61.2132 49.6656H58.416V46.9333H61.2132V49.6656Z" fill="#527AC6"/>
<path d="M58.4285 49.6529V52.4501H55.7121V49.6529H58.4285ZM61.2429 35.7803C60.9448 35.807 60.6489 35.8509 60.351 35.8561C59.7309 35.8688 59.1103 35.8598 58.4602 35.8598V33.1505H61.2326V35.7893C61.2359 35.7893 61.2429 35.7803 61.2429 35.7803ZM66.6927 71.7509C66.6927 72.6834 66.6908 73.6161 66.6908 74.5462H63.9961V71.7509H66.6927ZM63.9503 60.741V63.4376H61.2397V60.741H63.9503ZM39.1131 19.2888V22.086H33.6211V16.5055H36.3459V19.2906C37.3051 19.2888 38.2091 19.2888 39.1131 19.2888Z" fill="#527AC6"/>
<path d="M41.8989 16.5024V19.3009H39.1016V16.5024H41.8989ZM41.886 8.23816H44.6851V11.0353H41.886V8.23816Z" fill="#527AC6"/>
<path d="M44.6825 13.8089V16.5126C43.7507 16.5126 42.818 16.5126 41.8873 16.5143V13.8091L44.6825 13.8089ZM6.0332 13.763V5.53442H14.2637V13.763H6.0332ZM66.7436 5.53442H74.9767V13.7649H66.7436V5.53442ZM14.2587 74.488H6.03452V66.2487H14.2587V74.488Z" fill="#527AC6"/>
</svg>
