<svg width="49" height="48" viewBox="0 0 49 48" fill="none" xmlns="http://www.w3.org/2000/svg">
<path d="M36.8945 42V39H39.8945V42H36.8945ZM27.8945 36V33H30.8945V36H27.8945ZM27.8945 45H33.8945V42H30.8945V39H27.8945V45ZM39.8945 39V33H42.8945V39H39.8945ZM42.8945 39H45.8945V45H39.8945V42H42.8945V39ZM39.8945 30V27H45.8945V33H42.8945V30H39.8945ZM36.8945 30H33.8945V36H30.8945V39H36.8945V30ZM27.8945 30V27H33.8945V30H27.8945ZM9.89453 33H15.8945V39H9.89453V33Z" fill="#1C70EB"/>
<path d="M21.8945 45H3.89453V27H21.8945V45ZM6.89453 42H18.8945V30H6.89453V42ZM33.8945 9H39.8945V15H33.8945V9Z" fill="#1C70EB"/>
<path d="M45.8945 21H27.8945V3H45.8945V21ZM30.8945 18H42.8945V6H30.8945V18ZM9.89453 9H15.8945V15H9.89453V9Z" fill="#1C70EB"/>
<path d="M21.8945 21H3.89453V3H21.8945V21ZM6.89453 18H18.8945V6H6.89453V18Z" fill="#1C70EB"/>
</svg>
