<svg width="71" height="85" viewBox="0 0 71 85" fill="none" xmlns="http://www.w3.org/2000/svg">
<path d="M35.499 0L0.499023 11.6993V34.7322C0.499023 54.6794 11.7282 72.904 29.5169 81.8217L35.499 84.8197L41.4753 81.8217C50.1982 77.4518 57.5345 70.7311 62.6611 62.4135C67.7877 54.0959 70.5018 44.5103 70.499 34.7322V11.6993L35.499 0Z" fill="#527AC6"/>
<path d="M35.499 0V84.8197L41.4753 81.8217C50.1982 77.4518 57.5345 70.7311 62.6611 62.4135C67.7877 54.0959 70.5018 44.5103 70.499 34.7322V11.6993L35.499 0Z" fill="#719BD8"/>
<path d="M35.499 9.24243L9.24902 18.0169V34.7322C9.24902 51.4636 18.5124 66.4943 33.4311 73.9715L35.499 75.0055L37.5669 73.9715C52.4915 66.4943 61.749 51.4651 61.749 34.7322V18.0169L35.499 9.24243Z" fill="#4466B9"/>
<path d="M35.499 9.24243V75.0069L37.5669 73.9715C52.4915 66.4943 61.749 51.4651 61.749 34.7322V18.0169L35.499 9.24243Z" fill="#527AC6"/>
<path d="M54.0603 32.5721L49.9347 28.4364L32.5834 45.8376L24.3351 37.5648L20.2109 41.7019L32.5834 54.109L54.0603 32.5721Z" fill="#FACB07"/>
</svg>
