<svg width="16" height="16" viewBox="0 0 16 16" fill="none" xmlns="http://www.w3.org/2000/svg">
<circle cx="8" cy="8" r="8" fill="#FFDC8E"/>
<path d="M7.2285 10.032C7.1565 10.032 7.0965 10.012 7.0485 9.972C7.0005 9.924 6.9765 9.86 6.9765 9.78C6.9765 9.7 6.9765 9.62 6.9765 9.54C6.9765 9.46 6.9765 9.38 6.9765 9.3C6.9925 8.956 7.0685 8.652 7.2045 8.388C7.3405 8.124 7.5045 7.884 7.6965 7.668C7.8965 7.452 8.0965 7.248 8.2965 7.056C8.4965 6.856 8.6645 6.656 8.8005 6.456C8.9445 6.256 9.0325 6.044 9.0645 5.82C9.0965 5.532 9.0405 5.292 8.8965 5.1C8.7525 4.9 8.5565 4.748 8.3085 4.644C8.0605 4.54 7.8045 4.488 7.5405 4.488C7.1165 4.488 6.7525 4.6 6.4485 4.824C6.1525 5.04 5.9565 5.408 5.8605 5.928C5.8365 6.024 5.7965 6.092 5.7405 6.132C5.6845 6.172 5.6205 6.192 5.5485 6.192H4.9725C4.9005 6.192 4.8365 6.168 4.7805 6.12C4.7325 6.072 4.7085 6.008 4.7085 5.928C4.7165 5.6 4.7885 5.288 4.9245 4.992C5.0605 4.696 5.2525 4.436 5.5005 4.212C5.7565 3.988 6.0565 3.812 6.4005 3.684C6.7525 3.548 7.1445 3.48 7.5765 3.48C8.0645 3.48 8.4805 3.548 8.8245 3.684C9.1765 3.812 9.4565 3.988 9.6645 4.212C9.8805 4.428 10.0365 4.668 10.1325 4.932C10.2285 5.196 10.2685 5.46 10.2525 5.724C10.2285 6.044 10.1485 6.332 10.0125 6.588C9.8765 6.836 9.7125 7.068 9.5205 7.284C9.3285 7.492 9.1325 7.7 8.9325 7.908C8.7405 8.108 8.5725 8.32 8.4285 8.544C8.2925 8.76 8.2165 8.996 8.2005 9.252C8.1925 9.34 8.1845 9.428 8.1765 9.516C8.1765 9.596 8.1765 9.676 8.1765 9.756C8.1605 9.844 8.1285 9.912 8.0805 9.96C8.0325 10.008 7.9645 10.032 7.8765 10.032H7.2285ZM7.1325 12C7.0525 12 6.9845 11.976 6.9285 11.928C6.8805 11.872 6.8565 11.804 6.8565 11.724V10.992C6.8565 10.912 6.8805 10.848 6.9285 10.8C6.9845 10.744 7.0525 10.716 7.1325 10.716H7.9125C8.0005 10.716 8.0685 10.744 8.1165 10.8C8.1725 10.848 8.2005 10.912 8.2005 10.992V11.724C8.2005 11.804 8.1725 11.872 8.1165 11.928C8.0685 11.976 8.0005 12 7.9125 12H7.1325Z" fill="#153E90"/>
</svg>
