<svg width="48" height="48" viewBox="0 0 48 48" fill="none" xmlns="http://www.w3.org/2000/svg">
<path d="M44 4H4C3.46957 4 2.96086 4.21071 2.58579 4.58579C2.21071 4.96086 2 5.46957 2 6V22C2 22.5304 2.21071 23.0391 2.58579 23.4142C2.96086 23.7893 3.46957 24 4 24H10V42C10 42.5304 10.2107 43.0391 10.5858 43.4142C10.9609 43.7893 11.4696 44 12 44H36C36.5304 44 37.0391 43.7893 37.4142 43.4142C37.7893 43.0391 38 42.5304 38 42V24H44C44.5304 24 45.0391 23.7893 45.4142 23.4142C45.7893 23.0391 46 22.5304 46 22V6C46 5.46957 45.7893 4.96086 45.4142 4.58579C45.0391 4.21071 44.5304 4 44 4ZM14 40V36C15.0609 36 16.0783 36.4214 16.8284 37.1716C17.5786 37.9217 18 38.9391 18 40H14ZM34 40H30C30 38.9391 30.4214 37.9217 31.1716 37.1716C31.9217 36.4214 32.9391 36 34 36V40ZM34 32C31.8783 32 29.8434 32.8429 28.3431 34.3431C26.8429 35.8434 26 37.8783 26 40H22C22 37.8783 21.1571 35.8434 19.6569 34.3431C18.1566 32.8429 16.1217 32 14 32V16H34V32ZM42 20H38V14C38 13.4696 37.7893 12.9609 37.4142 12.5858C37.0391 12.2107 36.5304 12 36 12H12C11.4696 12 10.9609 12.2107 10.5858 12.5858C10.2107 12.9609 10 13.4696 10 14V20H6V8H42V20ZM24 30C25.1867 30 26.3467 29.6481 27.3334 28.9888C28.3201 28.3295 29.0892 27.3925 29.5433 26.2961C29.9974 25.1997 30.1162 23.9933 29.8847 22.8295C29.6532 21.6656 29.0818 20.5965 28.2426 19.7574C27.4035 18.9182 26.3344 18.3468 25.1705 18.1153C24.0067 17.8838 22.8003 18.0026 21.7039 18.4567C20.6075 18.9108 19.6705 19.6799 19.0112 20.6666C18.3519 21.6533 18 22.8133 18 24C18 25.5913 18.6321 27.1174 19.7574 28.2426C20.8826 29.3679 22.4087 30 24 30ZM24 22C24.3956 22 24.7822 22.1173 25.1111 22.3371C25.44 22.5568 25.6964 22.8692 25.8478 23.2346C25.9991 23.6001 26.0387 24.0022 25.9616 24.3902C25.8844 24.7781 25.6939 25.1345 25.4142 25.4142C25.1345 25.6939 24.7781 25.8844 24.3902 25.9616C24.0022 26.0387 23.6001 25.9991 23.2346 25.8478C22.8692 25.6964 22.5568 25.44 22.3371 25.1111C22.1173 24.7822 22 24.3956 22 24C22 23.4696 22.2107 22.9609 22.5858 22.5858C22.9609 22.2107 23.4696 22 24 22Z" fill="#1C70EB"/>
</svg>
