<svg width="351" height="364" viewBox="0 0 351 364" fill="none" xmlns="http://www.w3.org/2000/svg">
<path fill-rule="evenodd" clip-rule="evenodd" d="M2.71233 73.4405C2.71233 102.236 0.354204 105.88 25.2071 122.52C25.0892 127.863 13.1951 170.033 10.7633 177.609C4.07196 198.479 3.46772 216.935 19.8386 233.21L114.423 327.795C121.063 334.427 127.172 339.52 133.849 346.2C151.277 363.636 152.287 360.769 178.588 360.769C186.65 360.769 192.077 356.174 196.259 351.856C206.307 341.476 204.867 326.166 205.799 321.516C206.934 315.864 207.107 316.918 213.113 315.54C219.598 314.051 227.682 311.649 234.023 309.866C247.944 305.945 262.506 302.603 275.855 298.524C292.244 293.52 299.418 288.929 304.238 273.738L315.203 231.526C318.759 217.156 322.945 203.354 326.644 189.798L340.564 137.255C349.19 106.768 348.324 117.785 348.324 83.6654C348.324 71.8708 339.592 60.7395 326.475 57.4565C312.698 54.0114 298.136 55.8131 286.975 61.1706C284.808 57.9392 282.528 56.13 279.226 53.5803C272.797 48.6207 256.345 30.0096 254.852 28.8711C243.36 20.1016 233.257 2.88696 216.422 2.88696C171.664 2.88696 185.581 5.68735 142.195 16.6013C124.379 21.0818 107.434 26.115 90.4438 30.2934L38.8588 44.1476C27.7791 47.39 2.71233 51.2774 2.71233 73.4405Z" fill="#1C70EB"/>
<path fill-rule="evenodd" clip-rule="evenodd" d="M0.0609112 71.7245C0.0609112 100.998 -2.3334 104.703 22.9008 121.619C22.7811 127.05 10.7045 169.921 8.23536 177.622C1.4414 198.838 0.82789 217.601 17.4499 234.146L113.486 330.301C120.227 337.043 126.43 342.22 133.209 349.011C150.905 366.736 151.93 363.822 178.635 363.822C186.82 363.822 192.331 359.151 196.577 354.761C206.779 344.209 205.317 328.645 206.263 323.918C207.416 318.172 207.591 319.243 213.689 317.842C220.274 316.329 228.482 313.886 234.921 312.073C249.055 308.088 263.84 304.691 277.394 300.544C294.035 295.457 301.319 290.79 306.212 275.346L317.346 232.434C320.956 217.825 325.206 203.794 328.962 190.013L343.096 136.598C351.855 105.605 350.975 116.805 350.975 82.1191C350.975 70.1288 342.109 58.8127 328.79 55.4752C314.802 51.9729 300.017 53.8046 288.685 59.251C286.485 55.9659 284.169 54.1267 280.817 51.5346C274.289 46.4928 257.585 27.5728 256.069 26.4154C244.401 17.5004 234.142 0 217.049 0C171.605 0 185.735 2.84686 141.683 13.9419C123.594 18.4968 106.389 23.6136 89.1383 27.8613L36.7619 41.9454C25.5122 45.2417 0.0609112 49.1936 0.0609112 71.7245Z" fill="url(#paint0_linear_549_783)" fill-opacity="0.4"/>
<path fill-rule="evenodd" clip-rule="evenodd" d="M197.982 265.827C211.464 262.584 234.452 257.058 237.953 254.825L238.984 254.394L239.799 254.22C231.95 245.208 207.448 221.059 190.31 204.172C182.381 196.36 176.003 190.078 173.49 187.458L172.226 186.095C170.461 184.168 169.669 183.302 165.667 184.127L72.7078 209.61L75.4895 212.484L75.7328 212.779C79.2332 217.396 95.1065 233.52 112.085 250.296C128.803 266.818 146.401 283.863 154.138 291.03C154.415 284.28 154.912 280.65 158.899 277.507C162.631 274.571 169.105 272.964 181.928 269.781L190.133 267.728C191.161 267.47 194.271 266.719 197.982 265.827ZM260.142 233.789C260.646 232.197 260.905 230.34 261.115 228.31L261.21 227.809L289.951 122.377C287.629 123.136 285.967 123.935 284.63 124.576C281.314 126.172 279.394 127.093 275.923 125.597V125.582C272.386 124.053 267.916 119.587 257.341 109.016L250.554 102.244C247.467 99.1706 244.033 95.8987 240.532 92.5567C232.47 84.8632 224.003 76.7865 217.098 68.614L215.218 66.8821C212.595 74.9626 206.825 95.2613 201.294 115.564C195.454 137.008 189.968 158.261 188.796 165.059L259.725 234.883C259.873 234.53 260.009 234.165 260.131 233.789H260.142ZM74.1041 145.977C70.9906 156.95 67.7924 168.214 66.2927 177.536L66.1933 177.967L64.9035 182.175C74.7121 180.052 96.2893 174.485 116.702 168.917C138.419 162.992 158.608 157.2 161.323 155.8C162.628 152.989 169.301 129.554 175.745 105.84C180.87 86.9745 185.767 68.1092 187.635 59.3397L182.823 60.3382L75.3422 89.4211L75.4011 89.4653C87.472 98.349 87.0741 99.716 82.3467 115.976C81.3371 119.462 80.0843 123.766 78.5847 129.665C77.3061 134.687 75.7106 140.295 74.1041 145.977ZM49.5276 133.714C52.3427 122.572 54.4907 113.202 54.8776 109.267C51.9152 107.491 48.8827 105.847 46.0123 104.292C34.391 97.9842 25.1499 92.9731 26.5317 82.6155C27.7255 73.6508 35.316 71.7827 42.6189 69.9846C43.7096 69.7156 44.7892 69.4504 45.5077 69.2514L45.5187 69.2403L150.826 41.0306C164.982 37.4934 175.329 34.3099 183.288 31.8633C195.642 28.0681 202.492 25.9642 208.804 27.0106C216.803 28.3408 222.437 34.3062 235.071 47.6778C237.68 50.4413 240.598 53.5363 243.804 56.8672C246.914 60.0987 252.105 65.1835 257.706 70.6699C266.932 79.7047 277.253 89.819 281.531 94.8706C284.663 93.8242 288.44 91.5102 292.342 89.1226C301.509 83.5146 311.255 77.5528 319.663 83.0871C329.085 89.2921 323.002 108.098 319.214 119.794C318.514 121.967 317.891 123.884 317.519 125.217C314.298 137.025 311.151 148.853 308.079 160.701C303.989 176.346 299.906 191.932 295.706 206.648C292.758 216.976 289.991 227.614 287.36 237.721L284.715 247.853C283.934 250.852 283.204 253.864 282.526 256.888C279.114 271.774 279 272.26 259.018 277.669V277.662L181.556 298.989C181.541 300.698 181.589 302.703 181.64 304.862C181.847 313.399 182.112 324.287 178.999 331.181C176.032 337.755 170.678 340.924 161.062 336.587C157.495 334.977 98.795 275.532 68.2567 244.6C60.4747 236.715 54.5276 230.694 51.8341 227.993C48.1863 224.334 45.0433 221.412 42.453 218.999C31.0969 208.417 29.1073 206.563 33.3815 192.333C35.887 183.984 43.9859 155.653 49.5276 133.714Z" fill="#F5FAFE"/>
<defs>
<linearGradient id="paint0_linear_549_783" x1="175.5" y1="0" x2="175.5" y2="364" gradientUnits="userSpaceOnUse">
<stop stop-color="#D2E4FF"/>
<stop offset="1" stop-color="#1814F3"/>
</linearGradient>
</defs>
</svg>
